<svg id="visual" viewBox="0 0 1920 1080" width="1920" height="1080" xmlns="http://www.w3.org/2000/svg" xmlns:xlink="http://www.w3.org/1999/xlink" version="1.1"><rect width="1920" height="1080" fill="#F7F7F7"></rect><g><g transform="translate(1801 460)"><path d="M0 -25.7L22.2 -12.8L22.2 12.8L0 25.7L-22.2 12.8L-22.2 -12.8Z" fill="none" stroke="#789395" stroke-width="1"></path></g><g transform="translate(913 500)"><path d="M0 -4L3.5 -2L3.5 2L0 4L-3.5 2L-3.5 -2Z" fill="none" stroke="#789395" stroke-width="1"></path></g><g transform="translate(1338 75)"><path d="M0 -10L8.7 -5L8.7 5L0 10L-8.7 5L-8.7 -5Z" fill="none" stroke="#789395" stroke-width="1"></path></g><g transform="translate(630 684)"><path d="M0 -24L20.8 -12L20.8 12L0 24L-20.8 12L-20.8 -12Z" fill="none" stroke="#789395" stroke-width="1"></path></g><g transform="translate(1147 476)"><path d="M0 -13L11.3 -6.5L11.3 6.5L0 13L-11.3 6.5L-11.3 -6.5Z" fill="none" stroke="#789395" stroke-width="1"></path></g><g transform="translate(23 807)"><path d="M0 -15L13 -7.5L13 7.5L0 15L-13 7.5L-13 -7.5Z" stroke="#789395" fill="none" stroke-width="1"></path></g><g transform="translate(258 618)"><path d="M0 -7L6.1 -3.5L6.1 3.5L0 7L-6.1 3.5L-6.1 -3.5Z" stroke="#789395" fill="none" stroke-width="1"></path></g><g transform="translate(761 211)"><path d="M0 -4L3.5 -2L3.5 2L0 4L-3.5 2L-3.5 -2Z" stroke="#789395" fill="none" stroke-width="1"></path></g><g transform="translate(755 267)"><path d="M0 -5L4.3 -2.5L4.3 2.5L0 5L-4.3 2.5L-4.3 -2.5Z" stroke="#789395" fill="none" stroke-width="1"></path></g><g transform="translate(1187 13)"><path d="M0 -22L19.1 -11L19.1 11L0 22L-19.1 11L-19.1 -11Z" stroke="#789395" fill="none" stroke-width="1"></path></g><g transform="translate(1450 59)"><path d="M0 -6L5.2 -3L5.2 3L0 6L-5.2 3L-5.2 -3Z" stroke="#789395" fill="none" stroke-width="1"></path></g><g transform="translate(717 601)"><path d="M0 -19L16.5 -9.5L16.5 9.5L0 19L-16.5 9.5L-16.5 -9.5Z" stroke="#789395" fill="none" stroke-width="1"></path></g><g transform="translate(1284 635)"><path d="M0 -14L12.1 -7L12.1 7L0 14L-12.1 7L-12.1 -7Z" stroke="#789395" fill="none" stroke-width="1"></path></g><g transform="translate(1562 493)"><path d="M0 -17L14.7 -8.5L14.7 8.5L0 17L-14.7 8.5L-14.7 -8.5Z" stroke="#789395" fill="none" stroke-width="1"></path></g><g transform="translate(1358 642)"><path d="M0 -5L4.3 -2.5L4.3 2.5L0 5L-4.3 2.5L-4.3 -2.5Z" stroke="#789395" fill="none" stroke-width="1"></path></g><g transform="translate(531 861)"><path d="M0 -18L15.6 -9L15.6 9L0 18L-15.6 9L-15.6 -9Z" stroke="#789395" fill="none" stroke-width="1"></path></g><g transform="translate(571 434)"><path d="M0 -18L15.6 -9L15.6 9L0 18L-15.6 9L-15.6 -9Z" stroke="#789395" fill="none" stroke-width="1"></path></g><g transform="translate(680 489)"><path d="M0 -7L6.1 -3.5L6.1 3.5L0 7L-6.1 3.5L-6.1 -3.5Z" stroke="#789395" fill="none" stroke-width="1"></path></g><g transform="translate(1653 229)"><path d="M0 -4L3.5 -2L3.5 2L0 4L-3.5 2L-3.5 -2Z" stroke="#789395" fill="none" stroke-width="1"></path></g><g transform="translate(1216 431)"><path d="M0 -20L17.3 -10L17.3 10L0 20L-17.3 10L-17.3 -10Z" stroke="#789395" fill="none" stroke-width="1"></path></g><g transform="translate(1202 358)"><path d="M0 -6L5.2 -3L5.2 3L0 6L-5.2 3L-5.2 -3Z" stroke="#789395" fill="none" stroke-width="1"></path></g><g transform="translate(572 211)"><path d="M0 -14L12.1 -7L12.1 7L0 14L-12.1 7L-12.1 -7Z" stroke="#789395" fill="none" stroke-width="1"></path></g><g transform="translate(408 558)"><path d="M0 -5L4.3 -2.5L4.3 2.5L0 5L-4.3 2.5L-4.3 -2.5Z" stroke="#789395" fill="none" stroke-width="1"></path></g><g transform="translate(455 409)"><path d="M0 -19L16.5 -9.5L16.5 9.5L0 19L-16.5 9.5L-16.5 -9.5Z" stroke="#789395" fill="none" stroke-width="1"></path></g><g transform="translate(484 679)"><path d="M0 -9L7.8 -4.5L7.8 4.5L0 9L-7.8 4.5L-7.8 -4.5Z" stroke="#789395" fill="none" stroke-width="1"></path></g><g transform="translate(1084 216)"><path d="M0 -10L8.7 -5L8.7 5L0 10L-8.7 5L-8.7 -5Z" stroke="#789395" fill="none" stroke-width="1"></path></g><g transform="translate(842 1018)"><path d="M0 -10L8.7 -5L8.7 5L0 10L-8.7 5L-8.7 -5Z" stroke="#789395" fill="none" stroke-width="1"></path></g><g transform="translate(1655 717)"><path d="M0 -17L14.7 -8.5L14.7 8.5L0 17L-14.7 8.5L-14.7 -8.5Z" stroke="#789395" fill="none" stroke-width="1"></path></g><g transform="translate(1077 427)"><path d="M0 -7L6.1 -3.5L6.1 3.5L0 7L-6.1 3.5L-6.1 -3.5Z" stroke="#789395" fill="none" stroke-width="1"></path></g><g transform="translate(789 677)"><path d="M0 -21L18.2 -10.5L18.2 10.5L0 21L-18.2 10.5L-18.2 -10.5Z" stroke="#789395" fill="none" stroke-width="1"></path></g><g transform="translate(166 844)"><path d="M0 -18L15.6 -9L15.6 9L0 18L-15.6 9L-15.6 -9Z" stroke="#789395" fill="none" stroke-width="1"></path></g><g transform="translate(822 724)"><path d="M0 -22L19.1 -11L19.1 11L0 22L-19.1 11L-19.1 -11Z" stroke="#789395" fill="none" stroke-width="1"></path></g><g transform="translate(1786 401)"><path d="M0 -21L18.2 -10.5L18.2 10.5L0 21L-18.2 10.5L-18.2 -10.5Z" stroke="#789395" fill="none" stroke-width="1"></path></g><g transform="translate(431 627)"><path d="M0 -7L6.1 -3.5L6.1 3.5L0 7L-6.1 3.5L-6.1 -3.5Z" stroke="#789395" fill="none" stroke-width="1"></path></g><g transform="translate(139 910)"><path d="M0 -7L6.1 -3.5L6.1 3.5L0 7L-6.1 3.5L-6.1 -3.5Z" stroke="#789395" fill="none" stroke-width="1"></path></g><g transform="translate(1340 495)"><path d="M0 -3L2.6 -1.5L2.6 1.5L0 3L-2.6 1.5L-2.6 -1.5Z" stroke="#789395" fill="none" stroke-width="1"></path></g><g transform="translate(648 419)"><path d="M0 -10L8.7 -5L8.7 5L0 10L-8.7 5L-8.7 -5Z" stroke="#789395" fill="none" stroke-width="1"></path></g><g transform="translate(1891 421)"><path d="M0 -3L2.6 -1.5L2.6 1.5L0 3L-2.6 1.5L-2.6 -1.5Z" stroke="#789395" fill="none" stroke-width="1"></path></g><g transform="translate(525 125)"><path d="M0 -12L10.4 -6L10.4 6L0 12L-10.4 6L-10.4 -6Z" stroke="#789395" fill="none" stroke-width="1"></path></g><g transform="translate(1703 98)"><path d="M0 -16L13.9 -8L13.9 8L0 16L-13.9 8L-13.9 -8Z" stroke="#789395" fill="none" stroke-width="1"></path></g><g transform="translate(84 667)"><path d="M0 -5L4.3 -2.5L4.3 2.5L0 5L-4.3 2.5L-4.3 -2.5Z" stroke="#789395" fill="none" stroke-width="1"></path></g><g transform="translate(1012 585)"><path d="M0 -13L11.3 -6.5L11.3 6.5L0 13L-11.3 6.5L-11.3 -6.5Z" stroke="#789395" fill="none" stroke-width="1"></path></g><g transform="translate(159 1065)"><path d="M0 -18L15.6 -9L15.6 9L0 18L-15.6 9L-15.6 -9Z" stroke="#789395" fill="none" stroke-width="1"></path></g><g transform="translate(459 900)"><path d="M0 -12L10.4 -6L10.4 6L0 12L-10.4 6L-10.4 -6Z" stroke="#789395" fill="none" stroke-width="1"></path></g><g transform="translate(1071 125)"><path d="M0 -12L10.4 -6L10.4 6L0 12L-10.4 6L-10.4 -6Z" stroke="#789395" fill="none" stroke-width="1"></path></g><g transform="translate(1866 81)"><path d="M0 -21L18.2 -10.5L18.2 10.5L0 21L-18.2 10.5L-18.2 -10.5Z" stroke="#789395" fill="none" stroke-width="1"></path></g><g transform="translate(236 774)"><path d="M0 -3L2.6 -1.5L2.6 1.5L0 3L-2.6 1.5L-2.6 -1.5Z" stroke="#789395" fill="none" stroke-width="1"></path></g><g transform="translate(1399 255)"><path d="M0 -8L6.9 -4L6.9 4L0 8L-6.9 4L-6.9 -4Z" stroke="#789395" fill="none" stroke-width="1"></path></g><g transform="translate(124 786)"><path d="M0 -11L9.5 -5.5L9.5 5.5L0 11L-9.5 5.5L-9.5 -5.5Z" stroke="#789395" fill="none" stroke-width="1"></path></g><g transform="translate(1812 999)"><path d="M0 -24L20.8 -12L20.8 12L0 24L-20.8 12L-20.8 -12Z" stroke="#789395" fill="none" stroke-width="1"></path></g><g transform="translate(1425 335)"><path d="M0 -12L10.4 -6L10.4 6L0 12L-10.4 6L-10.4 -6Z" stroke="#789395" fill="none" stroke-width="1"></path></g><g transform="translate(1338 371)"><path d="M0 -14L12.1 -7L12.1 7L0 14L-12.1 7L-12.1 -7Z" stroke="#789395" fill="none" stroke-width="1"></path></g><g transform="translate(1221 65)"><path d="M0 -22L19.1 -11L19.1 11L0 22L-19.1 11L-19.1 -11Z" stroke="#789395" fill="none" stroke-width="1"></path></g><g transform="translate(361 786)"><path d="M0 -21L18.2 -10.5L18.2 10.5L0 21L-18.2 10.5L-18.2 -10.5Z" stroke="#789395" fill="none" stroke-width="1"></path></g><g transform="translate(532 1072)"><path d="M0 -4L3.5 -2L3.5 2L0 4L-3.5 2L-3.5 -2Z" stroke="#789395" fill="none" stroke-width="1"></path></g><g transform="translate(1900 911)"><path d="M0 -6L5.2 -3L5.2 3L0 6L-5.2 3L-5.2 -3Z" stroke="#789395" fill="none" stroke-width="1"></path></g><g transform="translate(1400 543)"><path d="M0 -3L2.6 -1.5L2.6 1.5L0 3L-2.6 1.5L-2.6 -1.5Z" stroke="#789395" fill="none" stroke-width="1"></path></g><g transform="translate(864 309)"><path d="M0 -6L5.2 -3L5.2 3L0 6L-5.2 3L-5.2 -3Z" stroke="#789395" fill="none" stroke-width="1"></path></g><g transform="translate(1615 1034)"><path d="M0 -6L5.2 -3L5.2 3L0 6L-5.2 3L-5.2 -3Z" stroke="#789395" fill="none" stroke-width="1"></path></g><g transform="translate(680 46)"><path d="M0 -22L19.1 -11L19.1 11L0 22L-19.1 11L-19.1 -11Z" stroke="#789395" fill="none" stroke-width="1"></path></g><g transform="translate(1656 16)"><path d="M0 -4L3.5 -2L3.5 2L0 4L-3.5 2L-3.5 -2Z" stroke="#789395" fill="none" stroke-width="1"></path></g><g transform="translate(885 830)"><path d="M0 -21L18.2 -10.5L18.2 10.5L0 21L-18.2 10.5L-18.2 -10.5Z" stroke="#789395" fill="none" stroke-width="1"></path></g><g transform="translate(1222 733)"><path d="M0 -19L16.5 -9.5L16.5 9.5L0 19L-16.5 9.5L-16.5 -9.5Z" stroke="#789395" fill="none" stroke-width="1"></path></g><g transform="translate(701 196)"><path d="M0 -20L17.3 -10L17.3 10L0 20L-17.3 10L-17.3 -10Z" stroke="#789395" fill="none" stroke-width="1"></path></g><g transform="translate(762 439)"><path d="M0 -18L15.6 -9L15.6 9L0 18L-15.6 9L-15.6 -9Z" stroke="#789395" fill="none" stroke-width="1"></path></g><g transform="translate(1659 963)"><path d="M0 -21L18.2 -10.5L18.2 10.5L0 21L-18.2 10.5L-18.2 -10.5Z" stroke="#789395" fill="none" stroke-width="1"></path></g><g transform="translate(1678 374)"><path d="M0 -19L16.5 -9.5L16.5 9.5L0 19L-16.5 9.5L-16.5 -9.5Z" stroke="#789395" fill="none" stroke-width="1"></path></g><g transform="translate(1518 651)"><path d="M0 -22L19.1 -11L19.1 11L0 22L-19.1 11L-19.1 -11Z" stroke="#789395" fill="none" stroke-width="1"></path></g><g transform="translate(1141 870)"><path d="M0 -17L14.7 -8.5L14.7 8.5L0 17L-14.7 8.5L-14.7 -8.5Z" stroke="#789395" fill="none" stroke-width="1"></path></g><g transform="translate(98 1002)"><path d="M0 -10L8.7 -5L8.7 5L0 10L-8.7 5L-8.7 -5Z" stroke="#789395" fill="none" stroke-width="1"></path></g><g transform="translate(1805 533)"><path d="M0 -8L6.9 -4L6.9 4L0 8L-6.9 4L-6.9 -4Z" stroke="#789395" fill="none" stroke-width="1"></path></g><g transform="translate(7 206)"><path d="M0 -20L17.3 -10L17.3 10L0 20L-17.3 10L-17.3 -10Z" stroke="#789395" fill="none" stroke-width="1"></path></g><g transform="translate(1101 992)"><path d="M0 -15L13 -7.5L13 7.5L0 15L-13 7.5L-13 -7.5Z" stroke="#789395" fill="none" stroke-width="1"></path></g><g transform="translate(391 79)"><path d="M0 -21L18.2 -10.5L18.2 10.5L0 21L-18.2 10.5L-18.2 -10.5Z" stroke="#789395" fill="none" stroke-width="1"></path></g><g transform="translate(248 455)"><path d="M0 -15L13 -7.5L13 7.5L0 15L-13 7.5L-13 -7.5Z" stroke="#789395" fill="none" stroke-width="1"></path></g><g transform="translate(1006 1049)"><path d="M0 -13L11.3 -6.5L11.3 6.5L0 13L-11.3 6.5L-11.3 -6.5Z" stroke="#789395" fill="none" stroke-width="1"></path></g><g transform="translate(1329 870)"><path d="M0 -15L13 -7.5L13 7.5L0 15L-13 7.5L-13 -7.5Z" stroke="#789395" fill="none" stroke-width="1"></path></g><g transform="translate(1453 578)"><path d="M0 -16L13.9 -8L13.9 8L0 16L-13.9 8L-13.9 -8Z" stroke="#789395" fill="none" stroke-width="1"></path></g><g transform="translate(357 472)"><path d="M0 -13L11.3 -6.5L11.3 6.5L0 13L-11.3 6.5L-11.3 -6.5Z" stroke="#789395" fill="none" stroke-width="1"></path></g><g transform="translate(1478 708)"><path d="M0 -22L19.1 -11L19.1 11L0 22L-19.1 11L-19.1 -11Z" stroke="#789395" fill="none" stroke-width="1"></path></g><g transform="translate(517 32)"><path d="M0 -9L7.8 -4.5L7.8 4.5L0 9L-7.8 4.5L-7.8 -4.5Z" stroke="#789395" fill="none" stroke-width="1"></path></g><g transform="translate(1189 955)"><path d="M0 -20L17.3 -10L17.3 10L0 20L-17.3 10L-17.3 -10Z" stroke="#789395" fill="none" stroke-width="1"></path></g><g transform="translate(1391 829)"><path d="M0 -10L8.7 -5L8.7 5L0 10L-8.7 5L-8.7 -5Z" stroke="#789395" fill="none" stroke-width="1"></path></g><g transform="translate(1460 205)"><path d="M0 -8L6.9 -4L6.9 4L0 8L-6.9 4L-6.9 -4Z" stroke="#789395" fill="none" stroke-width="1"></path></g><g transform="translate(403 129)"><path d="M0 -7L6.1 -3.5L6.1 3.5L0 7L-6.1 3.5L-6.1 -3.5Z" stroke="#789395" fill="none" stroke-width="1"></path></g><g transform="translate(187 188)"><path d="M0 -11L9.5 -5.5L9.5 5.5L0 11L-9.5 5.5L-9.5 -5.5Z" stroke="#789395" fill="none" stroke-width="1"></path></g><g transform="translate(1474 381)"><path d="M0 -5L4.3 -2.5L4.3 2.5L0 5L-4.3 2.5L-4.3 -2.5Z" stroke="#789395" fill="none" stroke-width="1"></path></g><g transform="translate(223 225)"><path d="M0 -6L5.2 -3L5.2 3L0 6L-5.2 3L-5.2 -3Z" stroke="#789395" fill="none" stroke-width="1"></path></g><g transform="translate(482 771)"><path d="M0 -24L20.8 -12L20.8 12L0 24L-20.8 12L-20.8 -12Z" stroke="#789395" fill="none" stroke-width="1"></path></g><g transform="translate(304 690)"><path d="M0 -20L17.3 -10L17.3 10L0 20L-17.3 10L-17.3 -10Z" stroke="#789395" fill="none" stroke-width="1"></path></g><g transform="translate(1429 8)"><path d="M0 -5L4.3 -2.5L4.3 2.5L0 5L-4.3 2.5L-4.3 -2.5Z" stroke="#789395" fill="none" stroke-width="1"></path></g><g transform="translate(451 965)"><path d="M0 -3L2.6 -1.5L2.6 1.5L0 3L-2.6 1.5L-2.6 -1.5Z" stroke="#789395" fill="none" stroke-width="1"></path></g><g transform="translate(1743 743)"><path d="M0 -23L19.9 -11.5L19.9 11.5L0 23L-19.9 11.5L-19.9 -11.5Z" stroke="#789395" fill="none" stroke-width="1"></path></g><g transform="translate(989 344)"><path d="M0 -10L8.7 -5L8.7 5L0 10L-8.7 5L-8.7 -5Z" stroke="#789395" fill="none" stroke-width="1"></path></g><g transform="translate(1130 13)"><path d="M0 -6L5.2 -3L5.2 3L0 6L-5.2 3L-5.2 -3Z" stroke="#789395" fill="none" stroke-width="1"></path></g><g transform="translate(1294 463)"><path d="M0 -16L13.9 -8L13.9 8L0 16L-13.9 8L-13.9 -8Z" stroke="#789395" fill="none" stroke-width="1"></path></g><g transform="translate(354 907)"><path d="M0 -20L17.3 -10L17.3 10L0 20L-17.3 10L-17.3 -10Z" stroke="#789395" fill="none" stroke-width="1"></path></g><g transform="translate(1578 719)"><path d="M0 -20L17.3 -10L17.3 10L0 20L-17.3 10L-17.3 -10Z" stroke="#789395" fill="none" stroke-width="1"></path></g><g transform="translate(454 1072)"><path d="M0 -20L17.3 -10L17.3 10L0 20L-17.3 10L-17.3 -10Z" stroke="#789395" fill="none" stroke-width="1"></path></g><g transform="translate(1658 502)"><path d="M0 -23L19.9 -11.5L19.9 11.5L0 23L-19.9 11.5L-19.9 -11.5Z" stroke="#789395" fill="none" stroke-width="1"></path></g><g transform="translate(781 80)"><path d="M0 -19L16.5 -9.5L16.5 9.5L0 19L-16.5 9.5L-16.5 -9.5Z" stroke="#789395" fill="none" stroke-width="1"></path></g><g transform="translate(116 216)"><path d="M0 -15L13 -7.5L13 7.5L0 15L-13 7.5L-13 -7.5Z" stroke="#789395" fill="none" stroke-width="1"></path></g><g transform="translate(232 848)"><path d="M0 -18L15.6 -9L15.6 9L0 18L-15.6 9L-15.6 -9Z" stroke="#789395" fill="none" stroke-width="1"></path></g><g transform="translate(1907 203)"><path d="M0 -10L8.7 -5L8.7 5L0 10L-8.7 5L-8.7 -5Z" stroke="#789395" fill="none" stroke-width="1"></path></g><g transform="translate(1142 213)"><path d="M0 -13L11.3 -6.5L11.3 6.5L0 13L-11.3 6.5L-11.3 -6.5Z" stroke="#789395" fill="none" stroke-width="1"></path></g><g transform="translate(1600 198)"><path d="M0 -15L13 -7.5L13 7.5L0 15L-13 7.5L-13 -7.5Z" stroke="#789395" fill="none" stroke-width="1"></path></g><g transform="translate(1710 248)"><path d="M0 -13L11.3 -6.5L11.3 6.5L0 13L-11.3 6.5L-11.3 -6.5Z" stroke="#789395" fill="none" stroke-width="1"></path></g><g transform="translate(53 765)"><path d="M0 -5L4.3 -2.5L4.3 2.5L0 5L-4.3 2.5L-4.3 -2.5Z" stroke="#789395" fill="none" stroke-width="1"></path></g><g transform="translate(1725 680)"><path d="M0 -4L3.5 -2L3.5 2L0 4L-3.5 2L-3.5 -2Z" stroke="#789395" fill="none" stroke-width="1"></path></g><g transform="translate(816 127)"><path d="M0 -24L20.8 -12L20.8 12L0 24L-20.8 12L-20.8 -12Z" stroke="#789395" fill="none" stroke-width="1"></path></g><g transform="translate(197 285)"><path d="M0 -18L15.6 -9L15.6 9L0 18L-15.6 9L-15.6 -9Z" stroke="#789395" fill="none" stroke-width="1"></path></g><g transform="translate(852 916)"><path d="M0 -5L4.3 -2.5L4.3 2.5L0 5L-4.3 2.5L-4.3 -2.5Z" stroke="#789395" fill="none" stroke-width="1"></path></g><g transform="translate(1524 262)"><path d="M0 -13L11.3 -6.5L11.3 6.5L0 13L-11.3 6.5L-11.3 -6.5Z" stroke="#789395" fill="none" stroke-width="1"></path></g><g transform="translate(1666 434)"><path d="M0 -13L11.3 -6.5L11.3 6.5L0 13L-11.3 6.5L-11.3 -6.5Z" stroke="#789395" fill="none" stroke-width="1"></path></g><g transform="translate(119 474)"><path d="M0 -10L8.7 -5L8.7 5L0 10L-8.7 5L-8.7 -5Z" stroke="#789395" fill="none" stroke-width="1"></path></g><g transform="translate(562 932)"><path d="M0 -13L11.3 -6.5L11.3 6.5L0 13L-11.3 6.5L-11.3 -6.5Z" stroke="#789395" fill="none" stroke-width="1"></path></g><g transform="translate(1157 1052)"><path d="M0 -18L15.6 -9L15.6 9L0 18L-15.6 9L-15.6 -9Z" stroke="#789395" fill="none" stroke-width="1"></path></g><g transform="translate(17 317)"><path d="M0 -20L17.3 -10L17.3 10L0 20L-17.3 10L-17.3 -10Z" stroke="#789395" fill="none" stroke-width="1"></path></g><g transform="translate(375 368)"><path d="M0 -6L5.2 -3L5.2 3L0 6L-5.2 3L-5.2 -3Z" stroke="#789395" fill="none" stroke-width="1"></path></g><g transform="translate(1268 11)"><path d="M0 -17L14.7 -8.5L14.7 8.5L0 17L-14.7 8.5L-14.7 -8.5Z" stroke="#789395" fill="none" stroke-width="1"></path></g><g transform="translate(1699 313)"><path d="M0 -11L9.5 -5.5L9.5 5.5L0 11L-9.5 5.5L-9.5 -5.5Z" stroke="#789395" fill="none" stroke-width="1"></path></g><g transform="translate(727 126)"><path d="M0 -7L6.1 -3.5L6.1 3.5L0 7L-6.1 3.5L-6.1 -3.5Z" stroke="#789395" fill="none" stroke-width="1"></path></g><g transform="translate(1271 92)"><path d="M0 -4L3.5 -2L3.5 2L0 4L-3.5 2L-3.5 -2Z" stroke="#789395" fill="none" stroke-width="1"></path></g><g transform="translate(1046 686)"><path d="M0 -7L6.1 -3.5L6.1 3.5L0 7L-6.1 3.5L-6.1 -3.5Z" stroke="#789395" fill="none" stroke-width="1"></path></g><g transform="translate(506 369)"><path d="M0 -6L5.2 -3L5.2 3L0 6L-5.2 3L-5.2 -3Z" stroke="#789395" fill="none" stroke-width="1"></path></g><g transform="translate(627 89)"><path d="M0 -14L12.1 -7L12.1 7L0 14L-12.1 7L-12.1 -7Z" stroke="#789395" fill="none" stroke-width="1"></path></g><g transform="translate(1405 180)"><path d="M0 -14L12.1 -7L12.1 7L0 14L-12.1 7L-12.1 -7Z" stroke="#789395" fill="none" stroke-width="1"></path></g><g transform="translate(249 340)"><path d="M0 -13L11.3 -6.5L11.3 6.5L0 13L-11.3 6.5L-11.3 -6.5Z" stroke="#789395" fill="none" stroke-width="1"></path></g><g transform="translate(61 105)"><path d="M0 -16L13.9 -8L13.9 8L0 16L-13.9 8L-13.9 -8Z" stroke="#789395" fill="none" stroke-width="1"></path></g><g transform="translate(1797 97)"><path d="M0 -16L13.9 -8L13.9 8L0 16L-13.9 8L-13.9 -8Z" stroke="#789395" fill="none" stroke-width="1"></path></g><g transform="translate(1603 125)"><path d="M0 -17L14.7 -8.5L14.7 8.5L0 17L-14.7 8.5L-14.7 -8.5Z" stroke="#789395" fill="none" stroke-width="1"></path></g><g transform="translate(1813 226)"><path d="M0 -23L19.9 -11.5L19.9 11.5L0 23L-19.9 11.5L-19.9 -11.5Z" stroke="#789395" fill="none" stroke-width="1"></path></g><g transform="translate(1257 261)"><path d="M0 -11L9.5 -5.5L9.5 5.5L0 11L-9.5 5.5L-9.5 -5.5Z" stroke="#789395" fill="none" stroke-width="1"></path></g><g transform="translate(1745 191)"><path d="M0 -21L18.2 -10.5L18.2 10.5L0 21L-18.2 10.5L-18.2 -10.5Z" stroke="#789395" fill="none" stroke-width="1"></path></g><g transform="translate(1063 34)"><path d="M0 -6L5.2 -3L5.2 3L0 6L-5.2 3L-5.2 -3Z" stroke="#789395" fill="none" stroke-width="1"></path></g><g transform="translate(1488 109)"><path d="M0 -24L20.8 -12L20.8 12L0 24L-20.8 12L-20.8 -12Z" stroke="#789395" fill="none" stroke-width="1"></path></g><g transform="translate(698 734)"><path d="M0 -14L12.1 -7L12.1 7L0 14L-12.1 7L-12.1 -7Z" stroke="#789395" fill="none" stroke-width="1"></path></g><g transform="translate(940 701)"><path d="M0 -15L13 -7.5L13 7.5L0 15L-13 7.5L-13 -7.5Z" stroke="#789395" fill="none" stroke-width="1"></path></g><g transform="translate(745 328)"><path d="M0 -7L6.1 -3.5L6.1 3.5L0 7L-6.1 3.5L-6.1 -3.5Z" stroke="#789395" fill="none" stroke-width="1"></path></g><g transform="translate(705 1047)"><path d="M0 -4L3.5 -2L3.5 2L0 4L-3.5 2L-3.5 -2Z" stroke="#789395" fill="none" stroke-width="1"></path></g><g transform="translate(22 145)"><path d="M0 -7L6.1 -3.5L6.1 3.5L0 7L-6.1 3.5L-6.1 -3.5Z" stroke="#789395" fill="none" stroke-width="1"></path></g><g transform="translate(1589 298)"><path d="M0 -7L6.1 -3.5L6.1 3.5L0 7L-6.1 3.5L-6.1 -3.5Z" stroke="#789395" fill="none" stroke-width="1"></path></g><g transform="translate(1311 179)"><path d="M0 -23L19.9 -11.5L19.9 11.5L0 23L-19.9 11.5L-19.9 -11.5Z" stroke="#789395" fill="none" stroke-width="1"></path></g><g transform="translate(1507 851)"><path d="M0 -8L6.9 -4L6.9 4L0 8L-6.9 4L-6.9 -4Z" stroke="#789395" fill="none" stroke-width="1"></path></g><g transform="translate(1274 573)"><path d="M0 -5L4.3 -2.5L4.3 2.5L0 5L-4.3 2.5L-4.3 -2.5Z" stroke="#789395" fill="none" stroke-width="1"></path></g><g transform="translate(1425 638)"><path d="M0 -10L8.7 -5L8.7 5L0 10L-8.7 5L-8.7 -5Z" stroke="#789395" fill="none" stroke-width="1"></path></g><g transform="translate(1121 68)"><path d="M0 -17L14.7 -8.5L14.7 8.5L0 17L-14.7 8.5L-14.7 -8.5Z" stroke="#789395" fill="none" stroke-width="1"></path></g><g transform="translate(1167 598)"><path d="M0 -12L10.4 -6L10.4 6L0 12L-10.4 6L-10.4 -6Z" stroke="#789395" fill="none" stroke-width="1"></path></g><g transform="translate(1175 313)"><path d="M0 -12L10.4 -6L10.4 6L0 12L-10.4 6L-10.4 -6Z" stroke="#789395" fill="none" stroke-width="1"></path></g><g transform="translate(280 911)"><path d="M0 -14L12.1 -7L12.1 7L0 14L-12.1 7L-12.1 -7Z" stroke="#789395" fill="none" stroke-width="1"></path></g><g transform="translate(591 758)"><path d="M0 -13L11.3 -6.5L11.3 6.5L0 13L-11.3 6.5L-11.3 -6.5Z" stroke="#789395" fill="none" stroke-width="1"></path></g><g transform="translate(892 383)"><path d="M0 -16L13.9 -8L13.9 8L0 16L-13.9 8L-13.9 -8Z" stroke="#789395" fill="none" stroke-width="1"></path></g><g transform="translate(728 924)"><path d="M0 -16L13.9 -8L13.9 8L0 16L-13.9 8L-13.9 -8Z" stroke="#789395" fill="none" stroke-width="1"></path></g><g transform="translate(508 457)"><path d="M0 -17L14.7 -8.5L14.7 8.5L0 17L-14.7 8.5L-14.7 -8.5Z" stroke="#789395" fill="none" stroke-width="1"></path></g><g transform="translate(1917 25)"><path d="M0 -22L19.1 -11L19.1 11L0 22L-19.1 11L-19.1 -11Z" stroke="#789395" fill="none" stroke-width="1"></path></g><g transform="translate(1821 1050)"><path d="M0 -5L4.3 -2.5L4.3 2.5L0 5L-4.3 2.5L-4.3 -2.5Z" stroke="#789395" fill="none" stroke-width="1"></path></g><g transform="translate(86 355)"><path d="M0 -3L2.6 -1.5L2.6 1.5L0 3L-2.6 1.5L-2.6 -1.5Z" stroke="#789395" fill="none" stroke-width="1"></path></g><g transform="translate(205 646)"><path d="M0 -19L16.5 -9.5L16.5 9.5L0 19L-16.5 9.5L-16.5 -9.5Z" stroke="#789395" fill="none" stroke-width="1"></path></g><g transform="translate(1195 864)"><path d="M0 -19L16.5 -9.5L16.5 9.5L0 19L-16.5 9.5L-16.5 -9.5Z" stroke="#789395" fill="none" stroke-width="1"></path></g><g transform="translate(1081 892)"><path d="M0 -11L9.5 -5.5L9.5 5.5L0 11L-9.5 5.5L-9.5 -5.5Z" stroke="#789395" fill="none" stroke-width="1"></path></g><g transform="translate(959 602)"><path d="M0 -3L2.6 -1.5L2.6 1.5L0 3L-2.6 1.5L-2.6 -1.5Z" stroke="#789395" fill="none" stroke-width="1"></path></g><g transform="translate(304 516)"><path d="M0 -12L10.4 -6L10.4 6L0 12L-10.4 6L-10.4 -6Z" stroke="#789395" fill="none" stroke-width="1"></path></g><g transform="translate(211 34)"><path d="M0 -24L20.8 -12L20.8 12L0 24L-20.8 12L-20.8 -12Z" stroke="#789395" fill="none" stroke-width="1"></path></g><g transform="translate(1890 780)"><path d="M0 -14L12.1 -7L12.1 7L0 14L-12.1 7L-12.1 -7Z" stroke="#789395" fill="none" stroke-width="1"></path></g><g transform="translate(1353 1006)"><path d="M0 -21L18.2 -10.5L18.2 10.5L0 21L-18.2 10.5L-18.2 -10.5Z" stroke="#789395" fill="none" stroke-width="1"></path></g><g transform="translate(275 278)"><path d="M0 -13L11.3 -6.5L11.3 6.5L0 13L-11.3 6.5L-11.3 -6.5Z" stroke="#789395" fill="none" stroke-width="1"></path></g><g transform="translate(302 1055)"><path d="M0 -21L18.2 -10.5L18.2 10.5L0 21L-18.2 10.5L-18.2 -10.5Z" stroke="#789395" fill="none" stroke-width="1"></path></g><g transform="translate(1821 724)"><path d="M0 -3L2.6 -1.5L2.6 1.5L0 3L-2.6 1.5L-2.6 -1.5Z" stroke="#789395" fill="none" stroke-width="1"></path></g><g transform="translate(1797 943)"><path d="M0 -18L15.6 -9L15.6 9L0 18L-15.6 9L-15.6 -9Z" stroke="#789395" fill="none" stroke-width="1"></path></g><g transform="translate(862 168)"><path d="M0 -19L16.5 -9.5L16.5 9.5L0 19L-16.5 9.5L-16.5 -9.5Z" stroke="#789395" fill="none" stroke-width="1"></path></g><g transform="translate(1759 596)"><path d="M0 -3L2.6 -1.5L2.6 1.5L0 3L-2.6 1.5L-2.6 -1.5Z" stroke="#789395" fill="none" stroke-width="1"></path></g><g transform="translate(1740 429)"><path d="M0 -6L5.2 -3L5.2 3L0 6L-5.2 3L-5.2 -3Z" stroke="#789395" fill="none" stroke-width="1"></path></g><g transform="translate(1111 634)"><path d="M0 -24L20.8 -12L20.8 12L0 24L-20.8 12L-20.8 -12Z" stroke="#789395" fill="none" stroke-width="1"></path></g><g transform="translate(1049 173)"><path d="M0 -9L7.8 -4.5L7.8 4.5L0 9L-7.8 4.5L-7.8 -4.5Z" stroke="#789395" fill="none" stroke-width="1"></path></g><g transform="translate(935 114)"><path d="M0 -15L13 -7.5L13 7.5L0 15L-13 7.5L-13 -7.5Z" stroke="#789395" fill="none" stroke-width="1"></path></g><g transform="translate(1453 880)"><path d="M0 -6L5.2 -3L5.2 3L0 6L-5.2 3L-5.2 -3Z" stroke="#789395" fill="none" stroke-width="1"></path></g><g transform="translate(1111 774)"><path d="M0 -3L2.6 -1.5L2.6 1.5L0 3L-2.6 1.5L-2.6 -1.5Z" stroke="#789395" fill="none" stroke-width="1"></path></g><g transform="translate(956 165)"><path d="M0 -13L11.3 -6.5L11.3 6.5L0 13L-11.3 6.5L-11.3 -6.5Z" stroke="#789395" fill="none" stroke-width="1"></path></g><g transform="translate(891 631)"><path d="M0 -8L6.9 -4L6.9 4L0 8L-6.9 4L-6.9 -4Z" stroke="#789395" fill="none" stroke-width="1"></path></g><g transform="translate(325 745)"><path d="M0 -3L2.6 -1.5L2.6 1.5L0 3L-2.6 1.5L-2.6 -1.5Z" stroke="#789395" fill="none" stroke-width="1"></path></g><g transform="translate(376 681)"><path d="M0 -9L7.8 -4.5L7.8 4.5L0 9L-7.8 4.5L-7.8 -4.5Z" stroke="#789395" fill="none" stroke-width="1"></path></g><g transform="translate(152 530)"><path d="M0 -24L20.8 -12L20.8 12L0 24L-20.8 12L-20.8 -12Z" stroke="#789395" fill="none" stroke-width="1"></path></g><g transform="translate(528 709)"><path d="M0 -20L17.3 -10L17.3 10L0 20L-17.3 10L-17.3 -10Z" stroke="#789395" fill="none" stroke-width="1"></path></g><g transform="translate(1783 325)"><path d="M0 -11L9.5 -5.5L9.5 5.5L0 11L-9.5 5.5L-9.5 -5.5Z" stroke="#789395" fill="none" stroke-width="1"></path></g><g transform="translate(605 143)"><path d="M0 -10L8.7 -5L8.7 5L0 10L-8.7 5L-8.7 -5Z" stroke="#789395" fill="none" stroke-width="1"></path></g><g transform="translate(1130 418)"><path d="M0 -4L3.5 -2L3.5 2L0 4L-3.5 2L-3.5 -2Z" stroke="#789395" fill="none" stroke-width="1"></path></g><g transform="translate(677 289)"><path d="M0 -14L12.1 -7L12.1 7L0 14L-12.1 7L-12.1 -7Z" stroke="#789395" fill="none" stroke-width="1"></path></g><g transform="translate(1199 1019)"><path d="M0 -21L18.2 -10.5L18.2 10.5L0 21L-18.2 10.5L-18.2 -10.5Z" stroke="#789395" fill="none" stroke-width="1"></path></g><g transform="translate(182 793)"><path d="M0 -17L14.7 -8.5L14.7 8.5L0 17L-14.7 8.5L-14.7 -8.5Z" stroke="#789395" fill="none" stroke-width="1"></path></g><g transform="translate(203 481)"><path d="M0 -12L10.4 -6L10.4 6L0 12L-10.4 6L-10.4 -6Z" stroke="#789395" fill="none" stroke-width="1"></path></g><g transform="translate(664 885)"><path d="M0 -15L13 -7.5L13 7.5L0 15L-13 7.5L-13 -7.5Z" stroke="#789395" fill="none" stroke-width="1"></path></g><g transform="translate(1884 268)"><path d="M0 -15L13 -7.5L13 7.5L0 15L-13 7.5L-13 -7.5Z" stroke="#789395" fill="none" stroke-width="1"></path></g><g transform="translate(1267 349)"><path d="M0 -23L19.9 -11.5L19.9 11.5L0 23L-19.9 11.5L-19.9 -11.5Z" stroke="#789395" fill="none" stroke-width="1"></path></g><g transform="translate(1639 633)"><path d="M0 -10L8.7 -5L8.7 5L0 10L-8.7 5L-8.7 -5Z" stroke="#789395" fill="none" stroke-width="1"></path></g><g transform="translate(803 292)"><path d="M0 -19L16.5 -9.5L16.5 9.5L0 19L-16.5 9.5L-16.5 -9.5Z" stroke="#789395" fill="none" stroke-width="1"></path></g><g transform="translate(1685 854)"><path d="M0 -6L5.2 -3L5.2 3L0 6L-5.2 3L-5.2 -3Z" stroke="#789395" fill="none" stroke-width="1"></path></g><g transform="translate(627 202)"><path d="M0 -6L5.2 -3L5.2 3L0 6L-5.2 3L-5.2 -3Z" stroke="#789395" fill="none" stroke-width="1"></path></g><g transform="translate(446 7)"><path d="M0 -21L18.2 -10.5L18.2 10.5L0 21L-18.2 10.5L-18.2 -10.5Z" stroke="#789395" fill="none" stroke-width="1"></path></g><g transform="translate(1683 1046)"><path d="M0 -9L7.8 -4.5L7.8 4.5L0 9L-7.8 4.5L-7.8 -4.5Z" stroke="#789395" fill="none" stroke-width="1"></path></g><g transform="translate(1414 743)"><path d="M0 -20L17.3 -10L17.3 10L0 20L-17.3 10L-17.3 -10Z" stroke="#789395" fill="none" stroke-width="1"></path></g><g transform="translate(985 509)"><path d="M0 -15L13 -7.5L13 7.5L0 15L-13 7.5L-13 -7.5Z" stroke="#789395" fill="none" stroke-width="1"></path></g><g transform="translate(240 154)"><path d="M0 -12L10.4 -6L10.4 6L0 12L-10.4 6L-10.4 -6Z" stroke="#789395" fill="none" stroke-width="1"></path></g><g transform="translate(1097 498)"><path d="M0 -12L10.4 -6L10.4 6L0 12L-10.4 6L-10.4 -6Z" stroke="#789395" fill="none" stroke-width="1"></path></g><g transform="translate(9 264)"><path d="M0 -3L2.6 -1.5L2.6 1.5L0 3L-2.6 1.5L-2.6 -1.5Z" stroke="#789395" fill="none" stroke-width="1"></path></g><g transform="translate(1214 563)"><path d="M0 -16L13.9 -8L13.9 8L0 16L-13.9 8L-13.9 -8Z" stroke="#789395" fill="none" stroke-width="1"></path></g><g transform="translate(1471 1060)"><path d="M0 -21L18.2 -10.5L18.2 10.5L0 21L-18.2 10.5L-18.2 -10.5Z" stroke="#789395" fill="none" stroke-width="1"></path></g><g transform="translate(778 774)"><path d="M0 -12L10.4 -6L10.4 6L0 12L-10.4 6L-10.4 -6Z" stroke="#789395" fill="none" stroke-width="1"></path></g><g transform="translate(1482 4)"><path d="M0 -8L6.9 -4L6.9 4L0 8L-6.9 4L-6.9 -4Z" stroke="#789395" fill="none" stroke-width="1"></path></g><g transform="translate(1790 822)"><path d="M0 -19L16.5 -9.5L16.5 9.5L0 19L-16.5 9.5L-16.5 -9.5Z" stroke="#789395" fill="none" stroke-width="1"></path></g><g transform="translate(1094 1063)"><path d="M0 -8L6.9 -4L6.9 4L0 8L-6.9 4L-6.9 -4Z" stroke="#789395" fill="none" stroke-width="1"></path></g><g transform="translate(1489 983)"><path d="M0 -14L12.1 -7L12.1 7L0 14L-12.1 7L-12.1 -7Z" stroke="#789395" fill="none" stroke-width="1"></path></g><g transform="translate(36 401)"><path d="M0 -21L18.2 -10.5L18.2 10.5L0 21L-18.2 10.5L-18.2 -10.5Z" stroke="#789395" fill="none" stroke-width="1"></path></g><g transform="translate(899 944)"><path d="M0 -9L7.8 -4.5L7.8 4.5L0 9L-7.8 4.5L-7.8 -4.5Z" stroke="#789395" fill="none" stroke-width="1"></path></g><g transform="translate(348 12)"><path d="M0 -19L16.5 -9.5L16.5 9.5L0 19L-16.5 9.5L-16.5 -9.5Z" stroke="#789395" fill="none" stroke-width="1"></path></g><g transform="translate(921 890)"><path d="M0 -5L4.3 -2.5L4.3 2.5L0 5L-4.3 2.5L-4.3 -2.5Z" stroke="#789395" fill="none" stroke-width="1"></path></g><g transform="translate(1549 1026)"><path d="M0 -9L7.8 -4.5L7.8 4.5L0 9L-7.8 4.5L-7.8 -4.5Z" stroke="#789395" fill="none" stroke-width="1"></path></g><g transform="translate(355 245)"><path d="M0 -4L3.5 -2L3.5 2L0 4L-3.5 2L-3.5 -2Z" stroke="#789395" fill="none" stroke-width="1"></path></g><g transform="translate(34 972)"><path d="M0 -12L10.4 -6L10.4 6L0 12L-10.4 6L-10.4 -6Z" stroke="#789395" fill="none" stroke-width="1"></path></g><g transform="translate(784 936)"><path d="M0 -23L19.9 -11.5L19.9 11.5L0 23L-19.9 11.5L-19.9 -11.5Z" stroke="#789395" fill="none" stroke-width="1"></path></g><g transform="translate(1818 642)"><path d="M0 -4L3.5 -2L3.5 2L0 4L-3.5 2L-3.5 -2Z" stroke="#789395" fill="none" stroke-width="1"></path></g><g transform="translate(36 526)"><path d="M0 -3L2.6 -1.5L2.6 1.5L0 3L-2.6 1.5L-2.6 -1.5Z" stroke="#789395" fill="none" stroke-width="1"></path></g><g transform="translate(96 845)"><path d="M0 -9L7.8 -4.5L7.8 4.5L0 9L-7.8 4.5L-7.8 -4.5Z" stroke="#789395" fill="none" stroke-width="1"></path></g><g transform="translate(290 409)"><path d="M0 -23L19.9 -11.5L19.9 11.5L0 23L-19.9 11.5L-19.9 -11.5Z" stroke="#789395" fill="none" stroke-width="1"></path></g><g transform="translate(858 95)"><path d="M0 -23L19.9 -11.5L19.9 11.5L0 23L-19.9 11.5L-19.9 -11.5Z" stroke="#789395" fill="none" stroke-width="1"></path></g><g transform="translate(1531 446)"><path d="M0 -8L6.9 -4L6.9 4L0 8L-6.9 4L-6.9 -4Z" stroke="#789395" fill="none" stroke-width="1"></path></g><g transform="translate(1728 885)"><path d="M0 -5L4.3 -2.5L4.3 2.5L0 5L-4.3 2.5L-4.3 -2.5Z" stroke="#789395" fill="none" stroke-width="1"></path></g><g transform="translate(506 991)"><path d="M0 -3L2.6 -1.5L2.6 1.5L0 3L-2.6 1.5L-2.6 -1.5Z" stroke="#789395" fill="none" stroke-width="1"></path></g><g transform="translate(501 591)"><path d="M0 -22L19.1 -11L19.1 11L0 22L-19.1 11L-19.1 -11Z" stroke="#789395" fill="none" stroke-width="1"></path></g><g transform="translate(30 43)"><path d="M0 -16L13.9 -8L13.9 8L0 16L-13.9 8L-13.9 -8Z" stroke="#789395" fill="none" stroke-width="1"></path></g><g transform="translate(262 7)"><path d="M0 -22L19.1 -11L19.1 11L0 22L-19.1 11L-19.1 -11Z" stroke="#789395" fill="none" stroke-width="1"></path></g><g transform="translate(849 524)"><path d="M0 -13L11.3 -6.5L11.3 6.5L0 13L-11.3 6.5L-11.3 -6.5Z" stroke="#789395" fill="none" stroke-width="1"></path></g><g transform="translate(1589 398)"><path d="M0 -4L3.5 -2L3.5 2L0 4L-3.5 2L-3.5 -2Z" stroke="#789395" fill="none" stroke-width="1"></path></g><g transform="translate(1288 947)"><path d="M0 -23L19.9 -11.5L19.9 11.5L0 23L-19.9 11.5L-19.9 -11.5Z" stroke="#789395" fill="none" stroke-width="1"></path></g><g transform="translate(764 521)"><path d="M0 -14L12.1 -7L12.1 7L0 14L-12.1 7L-12.1 -7Z" stroke="#789395" fill="none" stroke-width="1"></path></g><g transform="translate(1578 942)"><path d="M0 -15L13 -7.5L13 7.5L0 15L-13 7.5L-13 -7.5Z" stroke="#789395" fill="none" stroke-width="1"></path></g><g transform="translate(1374 424)"><path d="M0 -9L7.8 -4.5L7.8 4.5L0 9L-7.8 4.5L-7.8 -4.5Z" stroke="#789395" fill="none" stroke-width="1"></path></g><g transform="translate(320 316)"><path d="M0 -5L4.3 -2.5L4.3 2.5L0 5L-4.3 2.5L-4.3 -2.5Z" stroke="#789395" fill="none" stroke-width="1"></path></g><g transform="translate(1623 68)"><path d="M0 -10L8.7 -5L8.7 5L0 10L-8.7 5L-8.7 -5Z" stroke="#789395" fill="none" stroke-width="1"></path></g><g transform="translate(755 999)"><path d="M0 -10L8.7 -5L8.7 5L0 10L-8.7 5L-8.7 -5Z" stroke="#789395" fill="none" stroke-width="1"></path></g><g transform="translate(114 601)"><path d="M0 -5L4.3 -2.5L4.3 2.5L0 5L-4.3 2.5L-4.3 -2.5Z" stroke="#789395" fill="none" stroke-width="1"></path></g><g transform="translate(1280 841)"><path d="M0 -3L2.6 -1.5L2.6 1.5L0 3L-2.6 1.5L-2.6 -1.5Z" stroke="#789395" fill="none" stroke-width="1"></path></g><g transform="translate(220 404)"><path d="M0 -19L16.5 -9.5L16.5 9.5L0 19L-16.5 9.5L-16.5 -9.5Z" stroke="#789395" fill="none" stroke-width="1"></path></g><g transform="translate(195 702)"><path d="M0 -23L19.9 -11.5L19.9 11.5L0 23L-19.9 11.5L-19.9 -11.5Z" stroke="#789395" fill="none" stroke-width="1"></path></g><g transform="translate(608 484)"><path d="M0 -20L17.3 -10L17.3 10L0 20L-17.3 10L-17.3 -10Z" stroke="#789395" fill="none" stroke-width="1"></path></g><g transform="translate(1851 851)"><path d="M0 -6L5.2 -3L5.2 3L0 6L-5.2 3L-5.2 -3Z" stroke="#789395" fill="none" stroke-width="1"></path></g><g transform="translate(567 345)"><path d="M0 -20L17.3 -10L17.3 10L0 20L-17.3 10L-17.3 -10Z" stroke="#789395" fill="none" stroke-width="1"></path></g><g transform="translate(1416 951)"><path d="M0 -21L18.2 -10.5L18.2 10.5L0 21L-18.2 10.5L-18.2 -10.5Z" stroke="#789395" fill="none" stroke-width="1"></path></g><g transform="translate(962 828)"><path d="M0 -19L16.5 -9.5L16.5 9.5L0 19L-16.5 9.5L-16.5 -9.5Z" stroke="#789395" fill="none" stroke-width="1"></path></g><g transform="translate(1913 990)"><path d="M0 -5L4.3 -2.5L4.3 2.5L0 5L-4.3 2.5L-4.3 -2.5Z" stroke="#789395" fill="none" stroke-width="1"></path></g><g transform="translate(318 989)"><path d="M0 -10L8.7 -5L8.7 5L0 10L-8.7 5L-8.7 -5Z" stroke="#789395" fill="none" stroke-width="1"></path></g><g transform="translate(1229 504)"><path d="M0 -11L9.5 -5.5L9.5 5.5L0 11L-9.5 5.5L-9.5 -5.5Z" stroke="#789395" fill="none" stroke-width="1"></path></g><g transform="translate(432 755)"><path d="M0 -19L16.5 -9.5L16.5 9.5L0 19L-16.5 9.5L-16.5 -9.5Z" stroke="#789395" fill="none" stroke-width="1"></path></g><g transform="translate(1328 567)"><path d="M0 -13L11.3 -6.5L11.3 6.5L0 13L-11.3 6.5L-11.3 -6.5Z" stroke="#789395" fill="none" stroke-width="1"></path></g><g transform="translate(1607 574)"><path d="M0 -16L13.9 -8L13.9 8L0 16L-13.9 8L-13.9 -8Z" stroke="#789395" fill="none" stroke-width="1"></path></g><g transform="translate(1321 242)"><path d="M0 -24L20.8 -12L20.8 12L0 24L-20.8 12L-20.8 -12Z" stroke="#789395" fill="none" stroke-width="1"></path></g><g transform="translate(878 254)"><path d="M0 -3L2.6 -1.5L2.6 1.5L0 3L-2.6 1.5L-2.6 -1.5Z" stroke="#789395" fill="none" stroke-width="1"></path></g><g transform="translate(960 995)"><path d="M0 -7L6.1 -3.5L6.1 3.5L0 7L-6.1 3.5L-6.1 -3.5Z" stroke="#789395" fill="none" stroke-width="1"></path></g><g transform="translate(66 271)"><path d="M0 -20L17.3 -10L17.3 10L0 20L-17.3 10L-17.3 -10Z" stroke="#789395" fill="none" stroke-width="1"></path></g><g transform="translate(1745 936)"><path d="M0 -20L17.3 -10L17.3 10L0 20L-17.3 10L-17.3 -10Z" stroke="#789395" fill="none" stroke-width="1"></path></g><g transform="translate(1014 814)"><path d="M0 -17L14.7 -8.5L14.7 8.5L0 17L-14.7 8.5L-14.7 -8.5Z" stroke="#789395" fill="none" stroke-width="1"></path></g><g transform="translate(829 422)"><path d="M0 -23L19.9 -11.5L19.9 11.5L0 23L-19.9 11.5L-19.9 -11.5Z" stroke="#789395" fill="none" stroke-width="1"></path></g><g transform="translate(829 847)"><path d="M0 -20L17.3 -10L17.3 10L0 20L-17.3 10L-17.3 -10Z" stroke="#789395" fill="none" stroke-width="1"></path></g><g transform="translate(1340 797)"><path d="M0 -15L13 -7.5L13 7.5L0 15L-13 7.5L-13 -7.5Z" stroke="#789395" fill="none" stroke-width="1"></path></g><g transform="translate(378 606)"><path d="M0 -4L3.5 -2L3.5 2L0 4L-3.5 2L-3.5 -2Z" stroke="#789395" fill="none" stroke-width="1"></path></g><g transform="translate(1063 597)"><path d="M0 -12L10.4 -6L10.4 6L0 12L-10.4 6L-10.4 -6Z" stroke="#789395" fill="none" stroke-width="1"></path></g><g transform="translate(429 218)"><path d="M0 -5L4.3 -2.5L4.3 2.5L0 5L-4.3 2.5L-4.3 -2.5Z" stroke="#789395" fill="none" stroke-width="1"></path></g><g transform="translate(1708 575)"><path d="M0 -19L16.5 -9.5L16.5 9.5L0 19L-16.5 9.5L-16.5 -9.5Z" stroke="#789395" fill="none" stroke-width="1"></path></g><g transform="translate(1150 117)"><path d="M0 -3L2.6 -1.5L2.6 1.5L0 3L-2.6 1.5L-2.6 -1.5Z" stroke="#789395" fill="none" stroke-width="1"></path></g><g transform="translate(370 980)"><path d="M0 -24L20.8 -12L20.8 12L0 24L-20.8 12L-20.8 -12Z" stroke="#789395" fill="none" stroke-width="1"></path></g><g transform="translate(660 611)"><path d="M0 -7L6.1 -3.5L6.1 3.5L0 7L-6.1 3.5L-6.1 -3.5Z" stroke="#789395" fill="none" stroke-width="1"></path></g><g transform="translate(1525 762)"><path d="M0 -21L18.2 -10.5L18.2 10.5L0 21L-18.2 10.5L-18.2 -10.5Z" stroke="#789395" fill="none" stroke-width="1"></path></g><g transform="translate(192 96)"><path d="M0 -11L9.5 -5.5L9.5 5.5L0 11L-9.5 5.5L-9.5 -5.5Z" stroke="#789395" fill="none" stroke-width="1"></path></g><g transform="translate(144 141)"><path d="M0 -17L14.7 -8.5L14.7 8.5L0 17L-14.7 8.5L-14.7 -8.5Z" stroke="#789395" fill="none" stroke-width="1"></path></g><g transform="translate(938 1060)"><path d="M0 -19L16.5 -9.5L16.5 9.5L0 19L-16.5 9.5L-16.5 -9.5Z" stroke="#789395" fill="none" stroke-width="1"></path></g><g transform="translate(353 1076)"><path d="M0 -3L2.6 -1.5L2.6 1.5L0 3L-2.6 1.5L-2.6 -1.5Z" stroke="#789395" fill="none" stroke-width="1"></path></g><g transform="translate(1635 876)"><path d="M0 -12L10.4 -6L10.4 6L0 12L-10.4 6L-10.4 -6Z" stroke="#789395" fill="none" stroke-width="1"></path></g><g transform="translate(633 19)"><path d="M0 -16L13.9 -8L13.9 8L0 16L-13.9 8L-13.9 -8Z" stroke="#789395" fill="none" stroke-width="1"></path></g><g transform="translate(1519 578)"><path d="M0 -15L13 -7.5L13 7.5L0 15L-13 7.5L-13 -7.5Z" stroke="#789395" fill="none" stroke-width="1"></path></g><g transform="translate(475 90)"><path d="M0 -9L7.8 -4.5L7.8 4.5L0 9L-7.8 4.5L-7.8 -4.5Z" stroke="#789395" fill="none" stroke-width="1"></path></g><g transform="translate(998 112)"><path d="M0 -13L11.3 -6.5L11.3 6.5L0 13L-11.3 6.5L-11.3 -6.5Z" stroke="#789395" fill="none" stroke-width="1"></path></g><g transform="translate(1864 1015)"><path d="M0 -6L5.2 -3L5.2 3L0 6L-5.2 3L-5.2 -3Z" stroke="#789395" fill="none" stroke-width="1"></path></g><g transform="translate(14 1028)"><path d="M0 -7L6.1 -3.5L6.1 3.5L0 7L-6.1 3.5L-6.1 -3.5Z" stroke="#789395" fill="none" stroke-width="1"></path></g><g transform="translate(881 759)"><path d="M0 -5L4.3 -2.5L4.3 2.5L0 5L-4.3 2.5L-4.3 -2.5Z" stroke="#789395" fill="none" stroke-width="1"></path></g><g transform="translate(659 1007)"><path d="M0 -24L20.8 -12L20.8 12L0 24L-20.8 12L-20.8 -12Z" stroke="#789395" fill="none" stroke-width="1"></path></g><g transform="translate(1125 706)"><path d="M0 -8L6.9 -4L6.9 4L0 8L-6.9 4L-6.9 -4Z" stroke="#789395" fill="none" stroke-width="1"></path></g><g transform="translate(1198 199)"><path d="M0 -17L14.7 -8.5L14.7 8.5L0 17L-14.7 8.5L-14.7 -8.5Z" stroke="#789395" fill="none" stroke-width="1"></path></g><g transform="translate(1106 327)"><path d="M0 -11L9.5 -5.5L9.5 5.5L0 11L-9.5 5.5L-9.5 -5.5Z" stroke="#789395" fill="none" stroke-width="1"></path></g><g transform="translate(1905 665)"><path d="M0 -17L14.7 -8.5L14.7 8.5L0 17L-14.7 8.5L-14.7 -8.5Z" stroke="#789395" fill="none" stroke-width="1"></path></g><g transform="translate(687 541)"><path d="M0 -17L14.7 -8.5L14.7 8.5L0 17L-14.7 8.5L-14.7 -8.5Z" stroke="#789395" fill="none" stroke-width="1"></path></g><g transform="translate(120 716)"><path d="M0 -4L3.5 -2L3.5 2L0 4L-3.5 2L-3.5 -2Z" stroke="#789395" fill="none" stroke-width="1"></path></g><g transform="translate(31 654)"><path d="M0 -15L13 -7.5L13 7.5L0 15L-13 7.5L-13 -7.5Z" stroke="#789395" fill="none" stroke-width="1"></path></g><g transform="translate(217 1002)"><path d="M0 -21L18.2 -10.5L18.2 10.5L0 21L-18.2 10.5L-18.2 -10.5Z" stroke="#789395" fill="none" stroke-width="1"></path></g><g transform="translate(21 892)"><path d="M0 -15L13 -7.5L13 7.5L0 15L-13 7.5L-13 -7.5Z" stroke="#789395" fill="none" stroke-width="1"></path></g><g transform="translate(299 219)"><path d="M0 -17L14.7 -8.5L14.7 8.5L0 17L-14.7 8.5L-14.7 -8.5Z" stroke="#789395" fill="none" stroke-width="1"></path></g><g transform="translate(436 284)"><path d="M0 -19L16.5 -9.5L16.5 9.5L0 19L-16.5 9.5L-16.5 -9.5Z" stroke="#789395" fill="none" stroke-width="1"></path></g><g transform="translate(1286 1043)"><path d="M0 -8L6.9 -4L6.9 4L0 8L-6.9 4L-6.9 -4Z" stroke="#789395" fill="none" stroke-width="1"></path></g><g transform="translate(975 227)"><path d="M0 -24L20.8 -12L20.8 12L0 24L-20.8 12L-20.8 -12Z" stroke="#789395" fill="none" stroke-width="1"></path></g><g transform="translate(1730 369)"><path d="M0 -19L16.5 -9.5L16.5 9.5L0 19L-16.5 9.5L-16.5 -9.5Z" stroke="#789395" fill="none" stroke-width="1"></path></g><g transform="translate(1165 784)"><path d="M0 -14L12.1 -7L12.1 7L0 14L-12.1 7L-12.1 -7Z" stroke="#789395" fill="none" stroke-width="1"></path></g><g transform="translate(1903 371)"><path d="M0 -4L3.5 -2L3.5 2L0 4L-3.5 2L-3.5 -2Z" stroke="#789395" fill="none" stroke-width="1"></path></g><g transform="translate(16 574)"><path d="M0 -6L5.2 -3L5.2 3L0 6L-5.2 3L-5.2 -3Z" stroke="#789395" fill="none" stroke-width="1"></path></g><g transform="translate(1857 13)"><path d="M0 -21L18.2 -10.5L18.2 10.5L0 21L-18.2 10.5L-18.2 -10.5Z" stroke="#789395" fill="none" stroke-width="1"></path></g><g transform="translate(621 366)"><path d="M0 -8L6.9 -4L6.9 4L0 8L-6.9 4L-6.9 -4Z" stroke="#789395" fill="none" stroke-width="1"></path></g><g transform="translate(1736 492)"><path d="M0 -19L16.5 -9.5L16.5 9.5L0 19L-16.5 9.5L-16.5 -9.5Z" stroke="#789395" fill="none" stroke-width="1"></path></g><g transform="translate(174 585)"><path d="M0 -24L20.8 -12L20.8 12L0 24L-20.8 12L-20.8 -12Z" stroke="#789395" fill="none" stroke-width="1"></path></g><g transform="translate(990 685)"><path d="M0 -19L16.5 -9.5L16.5 9.5L0 19L-16.5 9.5L-16.5 -9.5Z" stroke="#789395" fill="none" stroke-width="1"></path></g><g transform="translate(1021 754)"><path d="M0 -21L18.2 -10.5L18.2 10.5L0 21L-18.2 10.5L-18.2 -10.5Z" stroke="#789395" fill="none" stroke-width="1"></path></g><g transform="translate(455 170)"><path d="M0 -20L17.3 -10L17.3 10L0 20L-17.3 10L-17.3 -10Z" stroke="#789395" fill="none" stroke-width="1"></path></g><g transform="translate(593 581)"><path d="M0 -18L15.6 -9L15.6 9L0 18L-15.6 9L-15.6 -9Z" stroke="#789395" fill="none" stroke-width="1"></path></g><g transform="translate(1048 1007)"><path d="M0 -21L18.2 -10.5L18.2 10.5L0 21L-18.2 10.5L-18.2 -10.5Z" stroke="#789395" fill="none" stroke-width="1"></path></g><g transform="translate(880 46)"><path d="M0 -9L7.8 -4.5L7.8 4.5L0 9L-7.8 4.5L-7.8 -4.5Z" stroke="#789395" fill="none" stroke-width="1"></path></g><g transform="translate(1282 724)"><path d="M0 -5L4.3 -2.5L4.3 2.5L0 5L-4.3 2.5L-4.3 -2.5Z" stroke="#789395" fill="none" stroke-width="1"></path></g><g transform="translate(1341 744)"><path d="M0 -21L18.2 -10.5L18.2 10.5L0 21L-18.2 10.5L-18.2 -10.5Z" stroke="#789395" fill="none" stroke-width="1"></path></g><g transform="translate(1890 548)"><path d="M0 -19L16.5 -9.5L16.5 9.5L0 19L-16.5 9.5L-16.5 -9.5Z" stroke="#789395" fill="none" stroke-width="1"></path></g><g transform="translate(546 785)"><path d="M0 -10L8.7 -5L8.7 5L0 10L-8.7 5L-8.7 -5Z" stroke="#789395" fill="none" stroke-width="1"></path></g><g transform="translate(449 832)"><path d="M0 -12L10.4 -6L10.4 6L0 12L-10.4 6L-10.4 -6Z" stroke="#789395" fill="none" stroke-width="1"></path></g><g transform="translate(1220 617)"><path d="M0 -7L6.1 -3.5L6.1 3.5L0 7L-6.1 3.5L-6.1 -3.5Z" stroke="#789395" fill="none" stroke-width="1"></path></g><g transform="translate(1083 274)"><path d="M0 -5L4.3 -2.5L4.3 2.5L0 5L-4.3 2.5L-4.3 -2.5Z" stroke="#789395" fill="none" stroke-width="1"></path></g><g transform="translate(624 1055)"><path d="M0 -18L15.6 -9L15.6 9L0 18L-15.6 9L-15.6 -9Z" stroke="#789395" fill="none" stroke-width="1"></path></g><g transform="translate(119 408)"><path d="M0 -15L13 -7.5L13 7.5L0 15L-13 7.5L-13 -7.5Z" stroke="#789395" fill="none" stroke-width="1"></path></g><g transform="translate(1755 1068)"><path d="M0 -15L13 -7.5L13 7.5L0 15L-13 7.5L-13 -7.5Z" stroke="#789395" fill="none" stroke-width="1"></path></g><g transform="translate(777 388)"><path d="M0 -17L14.7 -8.5L14.7 8.5L0 17L-14.7 8.5L-14.7 -8.5Z" stroke="#789395" fill="none" stroke-width="1"></path></g><g transform="translate(1515 158)"><path d="M0 -21L18.2 -10.5L18.2 10.5L0 21L-18.2 10.5L-18.2 -10.5Z" stroke="#789395" fill="none" stroke-width="1"></path></g><g transform="translate(1602 801)"><path d="M0 -11L9.5 -5.5L9.5 5.5L0 11L-9.5 5.5L-9.5 -5.5Z" stroke="#789395" fill="none" stroke-width="1"></path></g><g transform="translate(942 304)"><path d="M0 -14L12.1 -7L12.1 7L0 14L-12.1 7L-12.1 -7Z" stroke="#789395" fill="none" stroke-width="1"></path></g><g transform="translate(286 110)"><path d="M0 -21L18.2 -10.5L18.2 10.5L0 21L-18.2 10.5L-18.2 -10.5Z" stroke="#789395" fill="none" stroke-width="1"></path></g><g transform="translate(96 46)"><path d="M0 -20L17.3 -10L17.3 10L0 20L-17.3 10L-17.3 -10Z" stroke="#789395" fill="none" stroke-width="1"></path></g><g transform="translate(1052 942)"><path d="M0 -17L14.7 -8.5L14.7 8.5L0 17L-14.7 8.5L-14.7 -8.5Z" stroke="#789395" fill="none" stroke-width="1"></path></g><g transform="translate(234 555)"><path d="M0 -12L10.4 -6L10.4 6L0 12L-10.4 6L-10.4 -6Z" stroke="#789395" fill="none" stroke-width="1"></path></g><g transform="translate(1852 174)"><path d="M0 -15L13 -7.5L13 7.5L0 15L-13 7.5L-13 -7.5Z" stroke="#789395" fill="none" stroke-width="1"></path></g><g transform="translate(512 315)"><path d="M0 -4L3.5 -2L3.5 2L0 4L-3.5 2L-3.5 -2Z" stroke="#789395" fill="none" stroke-width="1"></path></g><g transform="translate(1579 878)"><path d="M0 -18L15.6 -9L15.6 9L0 18L-15.6 9L-15.6 -9Z" stroke="#789395" fill="none" stroke-width="1"></path></g><g transform="translate(564 66)"><path d="M0 -5L4.3 -2.5L4.3 2.5L0 5L-4.3 2.5L-4.3 -2.5Z" stroke="#789395" fill="none" stroke-width="1"></path></g><g transform="translate(1347 128)"><path d="M0 -19L16.5 -9.5L16.5 9.5L0 19L-16.5 9.5L-16.5 -9.5Z" stroke="#789395" fill="none" stroke-width="1"></path></g><g transform="translate(651 786)"><path d="M0 -17L14.7 -8.5L14.7 8.5L0 17L-14.7 8.5L-14.7 -8.5Z" stroke="#789395" fill="none" stroke-width="1"></path></g><g transform="translate(967 402)"><path d="M0 -23L19.9 -11.5L19.9 11.5L0 23L-19.9 11.5L-19.9 -11.5Z" stroke="#789395" fill="none" stroke-width="1"></path></g><g transform="translate(1020 891)"><path d="M0 -3L2.6 -1.5L2.6 1.5L0 3L-2.6 1.5L-2.6 -1.5Z" stroke="#789395" fill="none" stroke-width="1"></path></g><g transform="translate(1732 141)"><path d="M0 -4L3.5 -2L3.5 2L0 4L-3.5 2L-3.5 -2Z" stroke="#789395" fill="none" stroke-width="1"></path></g><g transform="translate(841 370)"><path d="M0 -22L19.1 -11L19.1 11L0 22L-19.1 11L-19.1 -11Z" stroke="#789395" fill="none" stroke-width="1"></path></g><g transform="translate(1567 4)"><path d="M0 -14L12.1 -7L12.1 7L0 14L-12.1 7L-12.1 -7Z" stroke="#789395" fill="none" stroke-width="1"></path></g><g transform="translate(542 655)"><path d="M0 -10L8.7 -5L8.7 5L0 10L-8.7 5L-8.7 -5Z" stroke="#789395" fill="none" stroke-width="1"></path></g><g transform="translate(295 852)"><path d="M0 -7L6.1 -3.5L6.1 3.5L0 7L-6.1 3.5L-6.1 -3.5Z" stroke="#789395" fill="none" stroke-width="1"></path></g><g transform="translate(312 168)"><path d="M0 -6L5.2 -3L5.2 3L0 6L-5.2 3L-5.2 -3Z" stroke="#789395" fill="none" stroke-width="1"></path></g><g transform="translate(574 285)"><path d="M0 -11L9.5 -5.5L9.5 5.5L0 11L-9.5 5.5L-9.5 -5.5Z" stroke="#789395" fill="none" stroke-width="1"></path></g><g transform="translate(1065 819)"><path d="M0 -18L15.6 -9L15.6 9L0 18L-15.6 9L-15.6 -9Z" stroke="#789395" fill="none" stroke-width="1"></path></g><g transform="translate(174 359)"><path d="M0 -14L12.1 -7L12.1 7L0 14L-12.1 7L-12.1 -7Z" stroke="#789395" fill="none" stroke-width="1"></path></g><g transform="translate(1225 140)"><path d="M0 -14L12.1 -7L12.1 7L0 14L-12.1 7L-12.1 -7Z" stroke="#789395" fill="none" stroke-width="1"></path></g><g transform="translate(1038 505)"><path d="M0 -6L5.2 -3L5.2 3L0 6L-5.2 3L-5.2 -3Z" stroke="#789395" fill="none" stroke-width="1"></path></g><g transform="translate(919 215)"><path d="M0 -12L10.4 -6L10.4 6L0 12L-10.4 6L-10.4 -6Z" stroke="#789395" fill="none" stroke-width="1"></path></g><g transform="translate(1330 11)"><path d="M0 -24L20.8 -12L20.8 12L0 24L-20.8 12L-20.8 -12Z" stroke="#789395" fill="none" stroke-width="1"></path></g><g transform="translate(398 1031)"><path d="M0 -17L14.7 -8.5L14.7 8.5L0 17L-14.7 8.5L-14.7 -8.5Z" stroke="#789395" fill="none" stroke-width="1"></path></g><g transform="translate(481 235)"><path d="M0 -12L10.4 -6L10.4 6L0 12L-10.4 6L-10.4 -6Z" stroke="#789395" fill="none" stroke-width="1"></path></g><g transform="translate(631 543)"><path d="M0 -6L5.2 -3L5.2 3L0 6L-5.2 3L-5.2 -3Z" stroke="#789395" fill="none" stroke-width="1"></path></g><g transform="translate(885 1061)"><path d="M0 -19L16.5 -9.5L16.5 9.5L0 19L-16.5 9.5L-16.5 -9.5Z" stroke="#789395" fill="none" stroke-width="1"></path></g><g transform="translate(227 1053)"><path d="M0 -15L13 -7.5L13 7.5L0 15L-13 7.5L-13 -7.5Z" stroke="#789395" fill="none" stroke-width="1"></path></g><g transform="translate(1858 472)"><path d="M0 -9L7.8 -4.5L7.8 4.5L0 9L-7.8 4.5L-7.8 -4.5Z" stroke="#789395" fill="none" stroke-width="1"></path></g><g transform="translate(1534 904)"><path d="M0 -18L15.6 -9L15.6 9L0 18L-15.6 9L-15.6 -9Z" stroke="#789395" fill="none" stroke-width="1"></path></g><g transform="translate(388 427)"><path d="M0 -20L17.3 -10L17.3 10L0 20L-17.3 10L-17.3 -10Z" stroke="#789395" fill="none" stroke-width="1"></path></g><g transform="translate(938 17)"><path d="M0 -3L2.6 -1.5L2.6 1.5L0 3L-2.6 1.5L-2.6 -1.5Z" stroke="#789395" fill="none" stroke-width="1"></path></g><g transform="translate(808 19)"><path d="M0 -13L11.3 -6.5L11.3 6.5L0 13L-11.3 6.5L-11.3 -6.5Z" stroke="#789395" fill="none" stroke-width="1"></path></g><g transform="translate(390 868)"><path d="M0 -10L8.7 -5L8.7 5L0 10L-8.7 5L-8.7 -5Z" stroke="#789395" fill="none" stroke-width="1"></path></g><g transform="translate(1042 313)"><path d="M0 -7L6.1 -3.5L6.1 3.5L0 7L-6.1 3.5L-6.1 -3.5Z" stroke="#789395" fill="none" stroke-width="1"></path></g><g transform="translate(1282 403)"><path d="M0 -12L10.4 -6L10.4 6L0 12L-10.4 6L-10.4 -6Z" stroke="#789395" fill="none" stroke-width="1"></path></g><g transform="translate(937 449)"><path d="M0 -24L20.8 -12L20.8 12L0 24L-20.8 12L-20.8 -12Z" stroke="#789395" fill="none" stroke-width="1"></path></g><g transform="translate(700 843)"><path d="M0 -4L3.5 -2L3.5 2L0 4L-3.5 2L-3.5 -2Z" stroke="#789395" fill="none" stroke-width="1"></path></g><g transform="translate(193 920)"><path d="M0 -21L18.2 -10.5L18.2 10.5L0 21L-18.2 10.5L-18.2 -10.5Z" stroke="#789395" fill="none" stroke-width="1"></path></g><g transform="translate(323 583)"><path d="M0 -9L7.8 -4.5L7.8 4.5L0 9L-7.8 4.5L-7.8 -4.5Z" stroke="#789395" fill="none" stroke-width="1"></path></g><g transform="translate(1395 489)"><path d="M0 -14L12.1 -7L12.1 7L0 14L-12.1 7L-12.1 -7Z" stroke="#789395" fill="none" stroke-width="1"></path></g><g transform="translate(5 448)"><path d="M0 -7L6.1 -3.5L6.1 3.5L0 7L-6.1 3.5L-6.1 -3.5Z" stroke="#789395" fill="none" stroke-width="1"></path></g><g transform="translate(1495 488)"><path d="M0 -22L19.1 -11L19.1 11L0 22L-19.1 11L-19.1 -11Z" stroke="#789395" fill="none" stroke-width="1"></path></g><g transform="translate(674 136)"><path d="M0 -13L11.3 -6.5L11.3 6.5L0 13L-11.3 6.5L-11.3 -6.5Z" stroke="#789395" fill="none" stroke-width="1"></path></g><g transform="translate(640 946)"><path d="M0 -21L18.2 -10.5L18.2 10.5L0 21L-18.2 10.5L-18.2 -10.5Z" stroke="#789395" fill="none" stroke-width="1"></path></g><g transform="translate(425 467)"><path d="M0 -3L2.6 -1.5L2.6 1.5L0 3L-2.6 1.5L-2.6 -1.5Z" stroke="#789395" fill="none" stroke-width="1"></path></g><g transform="translate(1118 942)"><path d="M0 -11L9.5 -5.5L9.5 5.5L0 11L-9.5 5.5L-9.5 -5.5Z" stroke="#789395" fill="none" stroke-width="1"></path></g><g transform="translate(817 212)"><path d="M0 -19L16.5 -9.5L16.5 9.5L0 19L-16.5 9.5L-16.5 -9.5Z" stroke="#789395" fill="none" stroke-width="1"></path></g><g transform="translate(4 735)"><path d="M0 -24L20.8 -12L20.8 12L0 24L-20.8 12L-20.8 -12Z" stroke="#789395" fill="none" stroke-width="1"></path></g><g transform="translate(164 437)"><path d="M0 -6L5.2 -3L5.2 3L0 6L-5.2 3L-5.2 -3Z" stroke="#789395" fill="none" stroke-width="1"></path></g><g transform="translate(72 929)"><path d="M0 -15L13 -7.5L13 7.5L0 15L-13 7.5L-13 -7.5Z" stroke="#789395" fill="none" stroke-width="1"></path></g><g transform="translate(1758 24)"><path d="M0 -24L20.8 -12L20.8 12L0 24L-20.8 12L-20.8 -12Z" stroke="#789395" fill="none" stroke-width="1"></path></g><g transform="translate(708 787)"><path d="M0 -5L4.3 -2.5L4.3 2.5L0 5L-4.3 2.5L-4.3 -2.5Z" stroke="#789395" fill="none" stroke-width="1"></path></g><g transform="translate(810 562)"><path d="M0 -7L6.1 -3.5L6.1 3.5L0 7L-6.1 3.5L-6.1 -3.5Z" stroke="#789395" fill="none" stroke-width="1"></path></g><g transform="translate(1737 1018)"><path d="M0 -17L14.7 -8.5L14.7 8.5L0 17L-14.7 8.5L-14.7 -8.5Z" stroke="#789395" fill="none" stroke-width="1"></path></g><g transform="translate(591 1011)"><path d="M0 -20L17.3 -10L17.3 10L0 20L-17.3 10L-17.3 -10Z" stroke="#789395" fill="none" stroke-width="1"></path></g><g transform="translate(1890 1066)"><path d="M0 -21L18.2 -10.5L18.2 10.5L0 21L-18.2 10.5L-18.2 -10.5Z" stroke="#789395" fill="none" stroke-width="1"></path></g><g transform="translate(1002 47)"><path d="M0 -3L2.6 -1.5L2.6 1.5L0 3L-2.6 1.5L-2.6 -1.5Z" stroke="#789395" fill="none" stroke-width="1"></path></g><g transform="translate(728 24)"><path d="M0 -9L7.8 -4.5L7.8 4.5L0 9L-7.8 4.5L-7.8 -4.5Z" stroke="#789395" fill="none" stroke-width="1"></path></g><g transform="translate(340 92)"><path d="M0 -16L13.9 -8L13.9 8L0 16L-13.9 8L-13.9 -8Z" stroke="#789395" fill="none" stroke-width="1"></path></g><g transform="translate(1652 143)"><path d="M0 -8L6.9 -4L6.9 4L0 8L-6.9 4L-6.9 -4Z" stroke="#789395" fill="none" stroke-width="1"></path></g><g transform="translate(1007 438)"><path d="M0 -7L6.1 -3.5L6.1 3.5L0 7L-6.1 3.5L-6.1 -3.5Z" stroke="#789395" fill="none" stroke-width="1"></path></g><g transform="translate(711 419)"><path d="M0 -24L20.8 -12L20.8 12L0 24L-20.8 12L-20.8 -12Z" stroke="#789395" fill="none" stroke-width="1"></path></g><g transform="translate(158 965)"><path d="M0 -8L6.9 -4L6.9 4L0 8L-6.9 4L-6.9 -4Z" stroke="#789395" fill="none" stroke-width="1"></path></g><g transform="translate(1475 792)"><path d="M0 -20L17.3 -10L17.3 10L0 20L-17.3 10L-17.3 -10Z" stroke="#789395" fill="none" stroke-width="1"></path></g><g transform="translate(1431 433)"><path d="M0 -19L16.5 -9.5L16.5 9.5L0 19L-16.5 9.5L-16.5 -9.5Z" stroke="#789395" fill="none" stroke-width="1"></path></g><g transform="translate(1197 251)"><path d="M0 -17L14.7 -8.5L14.7 8.5L0 17L-14.7 8.5L-14.7 -8.5Z" stroke="#789395" fill="none" stroke-width="1"></path></g><g transform="translate(749 1078)"><path d="M0 -9L7.8 -4.5L7.8 4.5L0 9L-7.8 4.5L-7.8 -4.5Z" stroke="#789395" fill="none" stroke-width="1"></path></g><g transform="translate(1032 247)"><path d="M0 -11L9.5 -5.5L9.5 5.5L0 11L-9.5 5.5L-9.5 -5.5Z" stroke="#789395" fill="none" stroke-width="1"></path></g><g transform="translate(831 476)"><path d="M0 -24L20.8 -12L20.8 12L0 24L-20.8 12L-20.8 -12Z" stroke="#789395" fill="none" stroke-width="1"></path></g><g transform="translate(239 950)"><path d="M0 -20L17.3 -10L17.3 10L0 20L-17.3 10L-17.3 -10Z" stroke="#789395" fill="none" stroke-width="1"></path></g><g transform="translate(1186 682)"><path d="M0 -16L13.9 -8L13.9 8L0 16L-13.9 8L-13.9 -8Z" stroke="#789395" fill="none" stroke-width="1"></path></g><g transform="translate(1902 719)"><path d="M0 -11L9.5 -5.5L9.5 5.5L0 11L-9.5 5.5L-9.5 -5.5Z" stroke="#789395" fill="none" stroke-width="1"></path></g><g transform="translate(551 499)"><path d="M0 -8L6.9 -4L6.9 4L0 8L-6.9 4L-6.9 -4Z" stroke="#789395" fill="none" stroke-width="1"></path></g><g transform="translate(753 826)"><path d="M0 -10L8.7 -5L8.7 5L0 10L-8.7 5L-8.7 -5Z" stroke="#789395" fill="none" stroke-width="1"></path></g><g transform="translate(1770 268)"><path d="M0 -15L13 -7.5L13 7.5L0 15L-13 7.5L-13 -7.5Z" stroke="#789395" fill="none" stroke-width="1"></path></g><g transform="translate(1242 984)"><path d="M0 -19L16.5 -9.5L16.5 9.5L0 19L-16.5 9.5L-16.5 -9.5Z" stroke="#789395" fill="none" stroke-width="1"></path></g><g transform="translate(1902 136)"><path d="M0 -24L20.8 -12L20.8 12L0 24L-20.8 12L-20.8 -12Z" stroke="#789395" fill="none" stroke-width="1"></path></g><g transform="translate(1837 293)"><path d="M0 -8L6.9 -4L6.9 4L0 8L-6.9 4L-6.9 -4Z" stroke="#789395" fill="none" stroke-width="1"></path></g><g transform="translate(278 803)"><path d="M0 -13L11.3 -6.5L11.3 6.5L0 13L-11.3 6.5L-11.3 -6.5Z" stroke="#789395" fill="none" stroke-width="1"></path></g><g transform="translate(605 822)"><path d="M0 -22L19.1 -11L19.1 11L0 22L-19.1 11L-19.1 -11Z" stroke="#789395" fill="none" stroke-width="1"></path></g><g transform="translate(1637 330)"><path d="M0 -20L17.3 -10L17.3 10L0 20L-17.3 10L-17.3 -10Z" stroke="#789395" fill="none" stroke-width="1"></path></g><g transform="translate(1803 887)"><path d="M0 -17L14.7 -8.5L14.7 8.5L0 17L-14.7 8.5L-14.7 -8.5Z" stroke="#789395" fill="none" stroke-width="1"></path></g><g transform="translate(1147 541)"><path d="M0 -15L13 -7.5L13 7.5L0 15L-13 7.5L-13 -7.5Z" stroke="#789395" fill="none" stroke-width="1"></path></g><g transform="translate(1531 368)"><path d="M0 -16L13.9 -8L13.9 8L0 16L-13.9 8L-13.9 -8Z" stroke="#789395" fill="none" stroke-width="1"></path></g><g transform="translate(1572 83)"><path d="M0 -16L13.9 -8L13.9 8L0 16L-13.9 8L-13.9 -8Z" stroke="#789395" fill="none" stroke-width="1"></path></g><g transform="translate(1712 790)"><path d="M0 -10L8.7 -5L8.7 5L0 10L-8.7 5L-8.7 -5Z" stroke="#789395" fill="none" stroke-width="1"></path></g><g transform="translate(462 557)"><path d="M0 -11L9.5 -5.5L9.5 5.5L0 11L-9.5 5.5L-9.5 -5.5Z" stroke="#789395" fill="none" stroke-width="1"></path></g><g transform="translate(1862 607)"><path d="M0 -15L13 -7.5L13 7.5L0 15L-13 7.5L-13 -7.5Z" stroke="#789395" fill="none" stroke-width="1"></path></g><g transform="translate(1468 304)"><path d="M0 -4L3.5 -2L3.5 2L0 4L-3.5 2L-3.5 -2Z" stroke="#789395" fill="none" stroke-width="1"></path></g><g transform="translate(783 880)"><path d="M0 -19L16.5 -9.5L16.5 9.5L0 19L-16.5 9.5L-16.5 -9.5Z" stroke="#789395" fill="none" stroke-width="1"></path></g><g transform="translate(1469 933)"><path d="M0 -19L16.5 -9.5L16.5 9.5L0 19L-16.5 9.5L-16.5 -9.5Z" stroke="#789395" fill="none" stroke-width="1"></path></g><g transform="translate(1375 1057)"><path d="M0 -6L5.2 -3L5.2 3L0 6L-5.2 3L-5.2 -3Z" stroke="#789395" fill="none" stroke-width="1"></path></g><g transform="translate(305 462)"><path d="M0 -20L17.3 -10L17.3 10L0 20L-17.3 10L-17.3 -10Z" stroke="#789395" fill="none" stroke-width="1"></path></g><g transform="translate(911 582)"><path d="M0 -24L20.8 -12L20.8 12L0 24L-20.8 12L-20.8 -12Z" stroke="#789395" fill="none" stroke-width="1"></path></g><g transform="translate(952 941)"><path d="M0 -10L8.7 -5L8.7 5L0 10L-8.7 5L-8.7 -5Z" stroke="#789395" fill="none" stroke-width="1"></path></g><g transform="translate(379 306)"><path d="M0 -11L9.5 -5.5L9.5 5.5L0 11L-9.5 5.5L-9.5 -5.5Z" stroke="#789395" fill="none" stroke-width="1"></path></g><g transform="translate(1261 783)"><path d="M0 -16L13.9 -8L13.9 8L0 16L-13.9 8L-13.9 -8Z" stroke="#789395" fill="none" stroke-width="1"></path></g><g transform="translate(1608 449)"><path d="M0 -11L9.5 -5.5L9.5 5.5L0 11L-9.5 5.5L-9.5 -5.5Z" stroke="#789395" fill="none" stroke-width="1"></path></g><g transform="translate(816 1066)"><path d="M0 -6L5.2 -3L5.2 3L0 6L-5.2 3L-5.2 -3Z" stroke="#789395" fill="none" stroke-width="1"></path></g><g transform="translate(1375 699)"><path d="M0 -12L10.4 -6L10.4 6L0 12L-10.4 6L-10.4 -6Z" stroke="#789395" fill="none" stroke-width="1"></path></g><g transform="translate(890 687)"><path d="M0 -13L11.3 -6.5L11.3 6.5L0 13L-11.3 6.5L-11.3 -6.5Z" stroke="#789395" fill="none" stroke-width="1"></path></g><g transform="translate(139 87)"><path d="M0 -7L6.1 -3.5L6.1 3.5L0 7L-6.1 3.5L-6.1 -3.5Z" stroke="#789395" fill="none" stroke-width="1"></path></g><g transform="translate(84 1074)"><path d="M0 -22L19.1 -11L19.1 11L0 22L-19.1 11L-19.1 -11Z" stroke="#789395" fill="none" stroke-width="1"></path></g><g transform="translate(967 754)"><path d="M0 -3L2.6 -1.5L2.6 1.5L0 3L-2.6 1.5L-2.6 -1.5Z" stroke="#789395" fill="none" stroke-width="1"></path></g><g transform="translate(510 189)"><path d="M0 -14L12.1 -7L12.1 7L0 14L-12.1 7L-12.1 -7Z" stroke="#789395" fill="none" stroke-width="1"></path></g><g transform="translate(889 996)"><path d="M0 -10L8.7 -5L8.7 5L0 10L-8.7 5L-8.7 -5Z" stroke="#789395" fill="none" stroke-width="1"></path></g><g transform="translate(682 666)"><path d="M0 -16L13.9 -8L13.9 8L0 16L-13.9 8L-13.9 -8Z" stroke="#789395" fill="none" stroke-width="1"></path></g><g transform="translate(821 634)"><path d="M0 -11L9.5 -5.5L9.5 5.5L0 11L-9.5 5.5L-9.5 -5.5Z" stroke="#789395" fill="none" stroke-width="1"></path></g><g transform="translate(1567 617)"><path d="M0 -23L19.9 -11.5L19.9 11.5L0 23L-19.9 11.5L-19.9 -11.5Z" stroke="#789395" fill="none" stroke-width="1"></path></g><g transform="translate(1233 1064)"><path d="M0 -4L3.5 -2L3.5 2L0 4L-3.5 2L-3.5 -2Z" stroke="#789395" fill="none" stroke-width="1"></path></g><g transform="translate(1068 374)"><path d="M0 -8L6.9 -4L6.9 4L0 8L-6.9 4L-6.9 -4Z" stroke="#789395" fill="none" stroke-width="1"></path></g><g transform="translate(675 356)"><path d="M0 -22L19.1 -11L19.1 11L0 22L-19.1 11L-19.1 -11Z" stroke="#789395" fill="none" stroke-width="1"></path></g><g transform="translate(146 661)"><path d="M0 -19L16.5 -9.5L16.5 9.5L0 19L-16.5 9.5L-16.5 -9.5Z" stroke="#789395" fill="none" stroke-width="1"></path></g><g transform="translate(1853 944)"><path d="M0 -19L16.5 -9.5L16.5 9.5L0 19L-16.5 9.5L-16.5 -9.5Z" stroke="#789395" fill="none" stroke-width="1"></path></g><g transform="translate(728 689)"><path d="M0 -13L11.3 -6.5L11.3 6.5L0 13L-11.3 6.5L-11.3 -6.5Z" stroke="#789395" fill="none" stroke-width="1"></path></g><g transform="translate(1363 321)"><path d="M0 -19L16.5 -9.5L16.5 9.5L0 19L-16.5 9.5L-16.5 -9.5Z" stroke="#789395" fill="none" stroke-width="1"></path></g><g transform="translate(1338 925)"><path d="M0 -17L14.7 -8.5L14.7 8.5L0 17L-14.7 8.5L-14.7 -8.5Z" stroke="#789395" fill="none" stroke-width="1"></path></g><g transform="translate(1834 368)"><path d="M0 -4L3.5 -2L3.5 2L0 4L-3.5 2L-3.5 -2Z" stroke="#789395" fill="none" stroke-width="1"></path></g><g transform="translate(777 605)"><path d="M0 -18L15.6 -9L15.6 9L0 18L-15.6 9L-15.6 -9Z" stroke="#789395" fill="none" stroke-width="1"></path></g><g transform="translate(99 531)"><path d="M0 -12L10.4 -6L10.4 6L0 12L-10.4 6L-10.4 -6Z" stroke="#789395" fill="none" stroke-width="1"></path></g><g transform="translate(541 555)"><path d="M0 -21L18.2 -10.5L18.2 10.5L0 21L-18.2 10.5L-18.2 -10.5Z" stroke="#789395" fill="none" stroke-width="1"></path></g><g transform="translate(444 343)"><path d="M0 -22L19.1 -11L19.1 11L0 22L-19.1 11L-19.1 -11Z" stroke="#789395" fill="none" stroke-width="1"></path></g><g transform="translate(1408 383)"><path d="M0 -9L7.8 -4.5L7.8 4.5L0 9L-7.8 4.5L-7.8 -4.5Z" stroke="#789395" fill="none" stroke-width="1"></path></g><g transform="translate(1434 110)"><path d="M0 -3L2.6 -1.5L2.6 1.5L0 3L-2.6 1.5L-2.6 -1.5Z" stroke="#789395" fill="none" stroke-width="1"></path></g><g transform="translate(130 277)"><path d="M0 -7L6.1 -3.5L6.1 3.5L0 7L-6.1 3.5L-6.1 -3.5Z" stroke="#789395" fill="none" stroke-width="1"></path></g><g transform="translate(1390 895)"><path d="M0 -3L2.6 -1.5L2.6 1.5L0 3L-2.6 1.5L-2.6 -1.5Z" stroke="#789395" fill="none" stroke-width="1"></path></g><g transform="translate(1242 675)"><path d="M0 -17L14.7 -8.5L14.7 8.5L0 17L-14.7 8.5L-14.7 -8.5Z" stroke="#789395" fill="none" stroke-width="1"></path></g><g transform="translate(165 8)"><path d="M0 -23L19.9 -11.5L19.9 11.5L0 23L-19.9 11.5L-19.9 -11.5Z" stroke="#789395" fill="none" stroke-width="1"></path></g><g transform="translate(70 451)"><path d="M0 -5L4.3 -2.5L4.3 2.5L0 5L-4.3 2.5L-4.3 -2.5Z" stroke="#789395" fill="none" stroke-width="1"></path></g><g transform="translate(66 191)"><path d="M0 -20L17.3 -10L17.3 10L0 20L-17.3 10L-17.3 -10Z" stroke="#789395" fill="none" stroke-width="1"></path></g><g transform="translate(1258 200)"><path d="M0 -19L16.5 -9.5L16.5 9.5L0 19L-16.5 9.5L-16.5 -9.5Z" stroke="#789395" fill="none" stroke-width="1"></path></g><g transform="translate(504 934)"><path d="M0 -10L8.7 -5L8.7 5L0 10L-8.7 5L-8.7 -5Z" stroke="#789395" fill="none" stroke-width="1"></path></g><g transform="translate(260 59)"><path d="M0 -15L13 -7.5L13 7.5L0 15L-13 7.5L-13 -7.5Z" stroke="#789395" fill="none" stroke-width="1"></path></g><g transform="translate(1833 788)"><path d="M0 -12L10.4 -6L10.4 6L0 12L-10.4 6L-10.4 -6Z" stroke="#789395" fill="none" stroke-width="1"></path></g><g transform="translate(1309 317)"><path d="M0 -19L16.5 -9.5L16.5 9.5L0 19L-16.5 9.5L-16.5 -9.5Z" stroke="#789395" fill="none" stroke-width="1"></path></g><g transform="translate(270 1014)"><path d="M0 -11L9.5 -5.5L9.5 5.5L0 11L-9.5 5.5L-9.5 -5.5Z" stroke="#789395" fill="none" stroke-width="1"></path></g><g transform="translate(1112 159)"><path d="M0 -20L17.3 -10L17.3 10L0 20L-17.3 10L-17.3 -10Z" stroke="#789395" fill="none" stroke-width="1"></path></g><g transform="translate(1238 893)"><path d="M0 -16L13.9 -8L13.9 8L0 16L-13.9 8L-13.9 -8Z" stroke="#789395" fill="none" stroke-width="1"></path></g><g transform="translate(1707 31)"><path d="M0 -18L15.6 -9L15.6 9L0 18L-15.6 9L-15.6 -9Z" stroke="#789395" fill="none" stroke-width="1"></path></g><g transform="translate(884 457)"><path d="M0 -8L6.9 -4L6.9 4L0 8L-6.9 4L-6.9 -4Z" stroke="#789395" fill="none" stroke-width="1"></path></g><g transform="translate(1593 662)"><path d="M0 -7L6.1 -3.5L6.1 3.5L0 7L-6.1 3.5L-6.1 -3.5Z" stroke="#789395" fill="none" stroke-width="1"></path></g><g transform="translate(831 791)"><path d="M0 -15L13 -7.5L13 7.5L0 15L-13 7.5L-13 -7.5Z" stroke="#789395" fill="none" stroke-width="1"></path></g><g transform="translate(1526 53)"><path d="M0 -22L19.1 -11L19.1 11L0 22L-19.1 11L-19.1 -11Z" stroke="#789395" fill="none" stroke-width="1"></path></g><g transform="translate(366 185)"><path d="M0 -23L19.9 -11.5L19.9 11.5L0 23L-19.9 11.5L-19.9 -11.5Z" stroke="#789395" fill="none" stroke-width="1"></path></g><g transform="translate(1909 829)"><path d="M0 -4L3.5 -2L3.5 2L0 4L-3.5 2L-3.5 -2Z" stroke="#789395" fill="none" stroke-width="1"></path></g><g transform="translate(1447 509)"><path d="M0 -22L19.1 -11L19.1 11L0 22L-19.1 11L-19.1 -11Z" stroke="#789395" fill="none" stroke-width="1"></path></g><g transform="translate(1685 188)"><path d="M0 -23L19.9 -11.5L19.9 11.5L0 23L-19.9 11.5L-19.9 -11.5Z" stroke="#789395" fill="none" stroke-width="1"></path></g><g transform="translate(264 722)"><path d="M0 -9L7.8 -4.5L7.8 4.5L0 9L-7.8 4.5L-7.8 -4.5Z" stroke="#789395" fill="none" stroke-width="1"></path></g><g transform="translate(1656 556)"><path d="M0 -20L17.3 -10L17.3 10L0 20L-17.3 10L-17.3 -10Z" stroke="#789395" fill="none" stroke-width="1"></path></g><g transform="translate(318 635)"><path d="M0 -4L3.5 -2L3.5 2L0 4L-3.5 2L-3.5 -2Z" stroke="#789395" fill="none" stroke-width="1"></path></g><g transform="translate(1391 77)"><path d="M0 -14L12.1 -7L12.1 7L0 14L-12.1 7L-12.1 -7Z" stroke="#789395" fill="none" stroke-width="1"></path></g><g transform="translate(1697 628)"><path d="M0 -20L17.3 -10L17.3 10L0 20L-17.3 10L-17.3 -10Z" stroke="#789395" fill="none" stroke-width="1"></path></g><g transform="translate(636 252)"><path d="M0 -13L11.3 -6.5L11.3 6.5L0 13L-11.3 6.5L-11.3 -6.5Z" stroke="#789395" fill="none" stroke-width="1"></path></g><g transform="translate(430 686)"><path d="M0 -8L6.9 -4L6.9 4L0 8L-6.9 4L-6.9 -4Z" stroke="#789395" fill="none" stroke-width="1"></path></g><g transform="translate(1322 689)"><path d="M0 -24L20.8 -12L20.8 12L0 24L-20.8 12L-20.8 -12Z" stroke="#789395" fill="none" stroke-width="1"></path></g><g transform="translate(1426 1025)"><path d="M0 -9L7.8 -4.5L7.8 4.5L0 9L-7.8 4.5L-7.8 -4.5Z" stroke="#789395" fill="none" stroke-width="1"></path></g><g transform="translate(1796 157)"><path d="M0 -3L2.6 -1.5L2.6 1.5L0 3L-2.6 1.5L-2.6 -1.5Z" stroke="#789395" fill="none" stroke-width="1"></path></g><g transform="translate(1821 51)"><path d="M0 -18L15.6 -9L15.6 9L0 18L-15.6 9L-15.6 -9Z" stroke="#789395" fill="none" stroke-width="1"></path></g><g transform="translate(1029 637)"><path d="M0 -24L20.8 -12L20.8 12L0 24L-20.8 12L-20.8 -12Z" stroke="#789395" fill="none" stroke-width="1"></path></g><g transform="translate(610 890)"><path d="M0 -9L7.8 -4.5L7.8 4.5L0 9L-7.8 4.5L-7.8 -4.5Z" stroke="#789395" fill="none" stroke-width="1"></path></g><g transform="translate(1545 203)"><path d="M0 -6L5.2 -3L5.2 3L0 6L-5.2 3L-5.2 -3Z" stroke="#789395" fill="none" stroke-width="1"></path></g><g transform="translate(827 965)"><path d="M0 -20L17.3 -10L17.3 10L0 20L-17.3 10L-17.3 -10Z" stroke="#789395" fill="none" stroke-width="1"></path></g><g transform="translate(493 510)"><path d="M0 -12L10.4 -6L10.4 6L0 12L-10.4 6L-10.4 -6Z" stroke="#789395" fill="none" stroke-width="1"></path></g><g transform="translate(1903 496)"><path d="M0 -21L18.2 -10.5L18.2 10.5L0 21L-18.2 10.5L-18.2 -10.5Z" stroke="#789395" fill="none" stroke-width="1"></path></g><g transform="translate(1656 773)"><path d="M0 -13L11.3 -6.5L11.3 6.5L0 13L-11.3 6.5L-11.3 -6.5Z" stroke="#789395" fill="none" stroke-width="1"></path></g><g transform="translate(68 575)"><path d="M0 -8L6.9 -4L6.9 4L0 8L-6.9 4L-6.9 -4Z" stroke="#789395" fill="none" stroke-width="1"></path></g><g transform="translate(954 66)"><path d="M0 -24L20.8 -12L20.8 12L0 24L-20.8 12L-20.8 -12Z" stroke="#789395" fill="none" stroke-width="1"></path></g><g transform="translate(4 89)"><path d="M0 -13L11.3 -6.5L11.3 6.5L0 13L-11.3 6.5L-11.3 -6.5Z" stroke="#789395" fill="none" stroke-width="1"></path></g><g transform="translate(1906 317)"><path d="M0 -4L3.5 -2L3.5 2L0 4L-3.5 2L-3.5 -2Z" stroke="#789395" fill="none" stroke-width="1"></path></g><g transform="translate(775 160)"><path d="M0 -15L13 -7.5L13 7.5L0 15L-13 7.5L-13 -7.5Z" stroke="#789395" fill="none" stroke-width="1"></path></g><g transform="translate(63 1)"><path d="M0 -18L15.6 -9L15.6 9L0 18L-15.6 9L-15.6 -9Z" stroke="#789395" fill="none" stroke-width="1"></path></g><g transform="translate(1857 684)"><path d="M0 -20L17.3 -10L17.3 10L0 20L-17.3 10L-17.3 -10Z" stroke="#789395" fill="none" stroke-width="1"></path></g><g transform="translate(1136 275)"><path d="M0 -8L6.9 -4L6.9 4L0 8L-6.9 4L-6.9 -4Z" stroke="#789395" fill="none" stroke-width="1"></path></g><g transform="translate(1531 314)"><path d="M0 -11L9.5 -5.5L9.5 5.5L0 11L-9.5 5.5L-9.5 -5.5Z" stroke="#789395" fill="none" stroke-width="1"></path></g><g transform="translate(572 13)"><path d="M0 -22L19.1 -11L19.1 11L0 22L-19.1 11L-19.1 -11Z" stroke="#789395" fill="none" stroke-width="1"></path></g><g transform="translate(410 925)"><path d="M0 -5L4.3 -2.5L4.3 2.5L0 5L-4.3 2.5L-4.3 -2.5Z" stroke="#789395" fill="none" stroke-width="1"></path></g><g transform="translate(1776 687)"><path d="M0 -14L12.1 -7L12.1 7L0 14L-12.1 7L-12.1 -7Z" stroke="#789395" fill="none" stroke-width="1"></path></g><g transform="translate(1077 732)"><path d="M0 -3L2.6 -1.5L2.6 1.5L0 3L-2.6 1.5L-2.6 -1.5Z" stroke="#789395" fill="none" stroke-width="1"></path></g><g transform="translate(1678 905)"><path d="M0 -17L14.7 -8.5L14.7 8.5L0 17L-14.7 8.5L-14.7 -8.5Z" stroke="#789395" fill="none" stroke-width="1"></path></g><g transform="translate(1093 551)"><path d="M0 -3L2.6 -1.5L2.6 1.5L0 3L-2.6 1.5L-2.6 -1.5Z" stroke="#789395" fill="none" stroke-width="1"></path></g><g transform="translate(460 1019)"><path d="M0 -7L6.1 -3.5L6.1 3.5L0 7L-6.1 3.5L-6.1 -3.5Z" stroke="#789395" fill="none" stroke-width="1"></path></g><g transform="translate(859 587)"><path d="M0 -7L6.1 -3.5L6.1 3.5L0 7L-6.1 3.5L-6.1 -3.5Z" stroke="#789395" fill="none" stroke-width="1"></path></g><g transform="translate(1227 822)"><path d="M0 -23L19.9 -11.5L19.9 11.5L0 23L-19.9 11.5L-19.9 -11.5Z" stroke="#789395" fill="none" stroke-width="1"></path></g><g transform="translate(1357 204)"><path d="M0 -10L8.7 -5L8.7 5L0 10L-8.7 5L-8.7 -5Z" stroke="#789395" fill="none" stroke-width="1"></path></g><g transform="translate(58 712)"><path d="M0 -15L13 -7.5L13 7.5L0 15L-13 7.5L-13 -7.5Z" stroke="#789395" fill="none" stroke-width="1"></path></g><g transform="translate(1533 1078)"><path d="M0 -18L15.6 -9L15.6 9L0 18L-15.6 9L-15.6 -9Z" stroke="#789395" fill="none" stroke-width="1"></path></g><g transform="translate(611 633)"><path d="M0 -7L6.1 -3.5L6.1 3.5L0 7L-6.1 3.5L-6.1 -3.5Z" stroke="#789395" fill="none" stroke-width="1"></path></g><g transform="translate(1009 971)"><path d="M0 -22L19.1 -11L19.1 11L0 22L-19.1 11L-19.1 -11Z" stroke="#789395" fill="none" stroke-width="1"></path></g><g transform="translate(1562 548)"><path d="M0 -4L3.5 -2L3.5 2L0 4L-3.5 2L-3.5 -2Z" stroke="#789395" fill="none" stroke-width="1"></path></g><g transform="translate(1754 542)"><path d="M0 -18L15.6 -9L15.6 9L0 18L-15.6 9L-15.6 -9Z" stroke="#789395" fill="none" stroke-width="1"></path></g><g transform="translate(352 536)"><path d="M0 -14L12.1 -7L12.1 7L0 14L-12.1 7L-12.1 -7Z" stroke="#789395" fill="none" stroke-width="1"></path></g><g transform="translate(1918 595)"><path d="M0 -6L5.2 -3L5.2 3L0 6L-5.2 3L-5.2 -3Z" stroke="#789395" fill="none" stroke-width="1"></path></g><g transform="translate(626 310)"><path d="M0 -22L19.1 -11L19.1 11L0 22L-19.1 11L-19.1 -11Z" stroke="#789395" fill="none" stroke-width="1"></path></g><g transform="translate(990 284)"><path d="M0 -24L20.8 -12L20.8 12L0 24L-20.8 12L-20.8 -12Z" stroke="#789395" fill="none" stroke-width="1"></path></g><g transform="translate(379 733)"><path d="M0 -12L10.4 -6L10.4 6L0 12L-10.4 6L-10.4 -6Z" stroke="#789395" fill="none" stroke-width="1"></path></g><g transform="translate(1815 586)"><path d="M0 -5L4.3 -2.5L4.3 2.5L0 5L-4.3 2.5L-4.3 -2.5Z" stroke="#789395" fill="none" stroke-width="1"></path></g><g transform="translate(31 1077)"><path d="M0 -13L11.3 -6.5L11.3 6.5L0 13L-11.3 6.5L-11.3 -6.5Z" stroke="#789395" fill="none" stroke-width="1"></path></g><g transform="translate(1383 593)"><path d="M0 -11L9.5 -5.5L9.5 5.5L0 11L-9.5 5.5L-9.5 -5.5Z" stroke="#789395" fill="none" stroke-width="1"></path></g><g transform="translate(1549 816)"><path d="M0 -18L15.6 -9L15.6 9L0 18L-15.6 9L-15.6 -9Z" stroke="#789395" fill="none" stroke-width="1"></path></g><g transform="translate(579 694)"><path d="M0 -19L16.5 -9.5L16.5 9.5L0 19L-16.5 9.5L-16.5 -9.5Z" stroke="#789395" fill="none" stroke-width="1"></path></g><g transform="translate(1290 515)"><path d="M0 -21L18.2 -10.5L18.2 10.5L0 21L-18.2 10.5L-18.2 -10.5Z" stroke="#789395" fill="none" stroke-width="1"></path></g><g transform="translate(732 481)"><path d="M0 -3L2.6 -1.5L2.6 1.5L0 3L-2.6 1.5L-2.6 -1.5Z" stroke="#789395" fill="none" stroke-width="1"></path></g></g></svg>