<svg id="visual" viewBox="0 0 1920 1080" width="1920" height="1080" xmlns="http://www.w3.org/2000/svg" xmlns:xlink="http://www.w3.org/1999/xlink" version="1.1"><rect width="1920" height="1080" fill="#F7F7F7"></rect><g><g transform="translate(1405 508)"><path d="M0 -25.7L22.2 -12.8L22.2 12.8L0 25.7L-22.2 12.8L-22.2 -12.8Z" fill="none" stroke="#789395" stroke-width="2"></path></g><g transform="translate(305 280)"><path d="M0 -4L3.5 -2L3.5 2L0 4L-3.5 2L-3.5 -2Z" fill="none" stroke="#789395" stroke-width="2"></path></g><g transform="translate(592 510)"><path d="M0 -22L19.1 -11L19.1 11L0 22L-19.1 11L-19.1 -11Z" fill="none" stroke="#789395" stroke-width="2"></path></g><g transform="translate(1158 774)"><path d="M0 -4L3.5 -2L3.5 2L0 4L-3.5 2L-3.5 -2Z" fill="none" stroke="#789395" stroke-width="2"></path></g><g transform="translate(664 570)"><path d="M0 -14L12.1 -7L12.1 7L0 14L-12.1 7L-12.1 -7Z" fill="none" stroke="#789395" stroke-width="2"></path></g><g transform="translate(578 708)"><path d="M0 -22L19.1 -11L19.1 11L0 22L-19.1 11L-19.1 -11Z" stroke="#789395" fill="none" stroke-width="2"></path></g><g transform="translate(534 457)"><path d="M0 -5L4.3 -2.5L4.3 2.5L0 5L-4.3 2.5L-4.3 -2.5Z" stroke="#789395" fill="none" stroke-width="2"></path></g><g transform="translate(1544 432)"><path d="M0 -16L13.9 -8L13.9 8L0 16L-13.9 8L-13.9 -8Z" stroke="#789395" fill="none" stroke-width="2"></path></g><g transform="translate(1653 962)"><path d="M0 -16L13.9 -8L13.9 8L0 16L-13.9 8L-13.9 -8Z" stroke="#789395" fill="none" stroke-width="2"></path></g><g transform="translate(1182 1061)"><path d="M0 -21L18.2 -10.5L18.2 10.5L0 21L-18.2 10.5L-18.2 -10.5Z" stroke="#789395" fill="none" stroke-width="2"></path></g><g transform="translate(889 368)"><path d="M0 -15L13 -7.5L13 7.5L0 15L-13 7.5L-13 -7.5Z" stroke="#789395" fill="none" stroke-width="2"></path></g><g transform="translate(1081 913)"><path d="M0 -9L7.8 -4.5L7.8 4.5L0 9L-7.8 4.5L-7.8 -4.5Z" stroke="#789395" fill="none" stroke-width="2"></path></g><g transform="translate(1751 689)"><path d="M0 -8L6.9 -4L6.9 4L0 8L-6.9 4L-6.9 -4Z" stroke="#789395" fill="none" stroke-width="2"></path></g><g transform="translate(1646 288)"><path d="M0 -23L19.9 -11.5L19.9 11.5L0 23L-19.9 11.5L-19.9 -11.5Z" stroke="#789395" fill="none" stroke-width="2"></path></g><g transform="translate(1402 576)"><path d="M0 -11L9.5 -5.5L9.5 5.5L0 11L-9.5 5.5L-9.5 -5.5Z" stroke="#789395" fill="none" stroke-width="2"></path></g><g transform="translate(45 373)"><path d="M0 -23L19.9 -11.5L19.9 11.5L0 23L-19.9 11.5L-19.9 -11.5Z" stroke="#789395" fill="none" stroke-width="2"></path></g><g transform="translate(1199 720)"><path d="M0 -16L13.9 -8L13.9 8L0 16L-13.9 8L-13.9 -8Z" stroke="#789395" fill="none" stroke-width="2"></path></g><g transform="translate(1146 269)"><path d="M0 -3L2.6 -1.5L2.6 1.5L0 3L-2.6 1.5L-2.6 -1.5Z" stroke="#789395" fill="none" stroke-width="2"></path></g><g transform="translate(627 748)"><path d="M0 -7L6.1 -3.5L6.1 3.5L0 7L-6.1 3.5L-6.1 -3.5Z" stroke="#789395" fill="none" stroke-width="2"></path></g><g transform="translate(1457 129)"><path d="M0 -11L9.5 -5.5L9.5 5.5L0 11L-9.5 5.5L-9.5 -5.5Z" stroke="#789395" fill="none" stroke-width="2"></path></g><g transform="translate(246 515)"><path d="M0 -23L19.9 -11.5L19.9 11.5L0 23L-19.9 11.5L-19.9 -11.5Z" stroke="#789395" fill="none" stroke-width="2"></path></g><g transform="translate(1392 148)"><path d="M0 -24L20.8 -12L20.8 12L0 24L-20.8 12L-20.8 -12Z" stroke="#789395" fill="none" stroke-width="2"></path></g><g transform="translate(374 4)"><path d="M0 -23L19.9 -11.5L19.9 11.5L0 23L-19.9 11.5L-19.9 -11.5Z" stroke="#789395" fill="none" stroke-width="2"></path></g><g transform="translate(251 918)"><path d="M0 -12L10.4 -6L10.4 6L0 12L-10.4 6L-10.4 -6Z" stroke="#789395" fill="none" stroke-width="2"></path></g><g transform="translate(1462 971)"><path d="M0 -7L6.1 -3.5L6.1 3.5L0 7L-6.1 3.5L-6.1 -3.5Z" stroke="#789395" fill="none" stroke-width="2"></path></g><g transform="translate(1450 711)"><path d="M0 -19L16.5 -9.5L16.5 9.5L0 19L-16.5 9.5L-16.5 -9.5Z" stroke="#789395" fill="none" stroke-width="2"></path></g><g transform="translate(630 845)"><path d="M0 -14L12.1 -7L12.1 7L0 14L-12.1 7L-12.1 -7Z" stroke="#789395" fill="none" stroke-width="2"></path></g><g transform="translate(879 1009)"><path d="M0 -19L16.5 -9.5L16.5 9.5L0 19L-16.5 9.5L-16.5 -9.5Z" stroke="#789395" fill="none" stroke-width="2"></path></g><g transform="translate(77 775)"><path d="M0 -7L6.1 -3.5L6.1 3.5L0 7L-6.1 3.5L-6.1 -3.5Z" stroke="#789395" fill="none" stroke-width="2"></path></g><g transform="translate(761 857)"><path d="M0 -21L18.2 -10.5L18.2 10.5L0 21L-18.2 10.5L-18.2 -10.5Z" stroke="#789395" fill="none" stroke-width="2"></path></g><g transform="translate(539 367)"><path d="M0 -6L5.2 -3L5.2 3L0 6L-5.2 3L-5.2 -3Z" stroke="#789395" fill="none" stroke-width="2"></path></g><g transform="translate(335 421)"><path d="M0 -23L19.9 -11.5L19.9 11.5L0 23L-19.9 11.5L-19.9 -11.5Z" stroke="#789395" fill="none" stroke-width="2"></path></g><g transform="translate(211 646)"><path d="M0 -24L20.8 -12L20.8 12L0 24L-20.8 12L-20.8 -12Z" stroke="#789395" fill="none" stroke-width="2"></path></g><g transform="translate(624 442)"><path d="M0 -17L14.7 -8.5L14.7 8.5L0 17L-14.7 8.5L-14.7 -8.5Z" stroke="#789395" fill="none" stroke-width="2"></path></g><g transform="translate(740 202)"><path d="M0 -16L13.9 -8L13.9 8L0 16L-13.9 8L-13.9 -8Z" stroke="#789395" fill="none" stroke-width="2"></path></g><g transform="translate(1023 157)"><path d="M0 -3L2.6 -1.5L2.6 1.5L0 3L-2.6 1.5L-2.6 -1.5Z" stroke="#789395" fill="none" stroke-width="2"></path></g><g transform="translate(214 848)"><path d="M0 -11L9.5 -5.5L9.5 5.5L0 11L-9.5 5.5L-9.5 -5.5Z" stroke="#789395" fill="none" stroke-width="2"></path></g><g transform="translate(1775 1067)"><path d="M0 -7L6.1 -3.5L6.1 3.5L0 7L-6.1 3.5L-6.1 -3.5Z" stroke="#789395" fill="none" stroke-width="2"></path></g><g transform="translate(531 624)"><path d="M0 -13L11.3 -6.5L11.3 6.5L0 13L-11.3 6.5L-11.3 -6.5Z" stroke="#789395" fill="none" stroke-width="2"></path></g><g transform="translate(92 19)"><path d="M0 -10L8.7 -5L8.7 5L0 10L-8.7 5L-8.7 -5Z" stroke="#789395" fill="none" stroke-width="2"></path></g><g transform="translate(1854 823)"><path d="M0 -15L13 -7.5L13 7.5L0 15L-13 7.5L-13 -7.5Z" stroke="#789395" fill="none" stroke-width="2"></path></g><g transform="translate(839 769)"><path d="M0 -10L8.7 -5L8.7 5L0 10L-8.7 5L-8.7 -5Z" stroke="#789395" fill="none" stroke-width="2"></path></g><g transform="translate(993 329)"><path d="M0 -11L9.5 -5.5L9.5 5.5L0 11L-9.5 5.5L-9.5 -5.5Z" stroke="#789395" fill="none" stroke-width="2"></path></g><g transform="translate(174 758)"><path d="M0 -13L11.3 -6.5L11.3 6.5L0 13L-11.3 6.5L-11.3 -6.5Z" stroke="#789395" fill="none" stroke-width="2"></path></g><g transform="translate(482 843)"><path d="M0 -23L19.9 -11.5L19.9 11.5L0 23L-19.9 11.5L-19.9 -11.5Z" stroke="#789395" fill="none" stroke-width="2"></path></g><g transform="translate(1141 339)"><path d="M0 -23L19.9 -11.5L19.9 11.5L0 23L-19.9 11.5L-19.9 -11.5Z" stroke="#789395" fill="none" stroke-width="2"></path></g><g transform="translate(1641 217)"><path d="M0 -22L19.1 -11L19.1 11L0 22L-19.1 11L-19.1 -11Z" stroke="#789395" fill="none" stroke-width="2"></path></g><g transform="translate(118 551)"><path d="M0 -22L19.1 -11L19.1 11L0 22L-19.1 11L-19.1 -11Z" stroke="#789395" fill="none" stroke-width="2"></path></g><g transform="translate(780 490)"><path d="M0 -8L6.9 -4L6.9 4L0 8L-6.9 4L-6.9 -4Z" stroke="#789395" fill="none" stroke-width="2"></path></g><g transform="translate(1898 109)"><path d="M0 -15L13 -7.5L13 7.5L0 15L-13 7.5L-13 -7.5Z" stroke="#789395" fill="none" stroke-width="2"></path></g><g transform="translate(270 586)"><path d="M0 -14L12.1 -7L12.1 7L0 14L-12.1 7L-12.1 -7Z" stroke="#789395" fill="none" stroke-width="2"></path></g><g transform="translate(157 703)"><path d="M0 -5L4.3 -2.5L4.3 2.5L0 5L-4.3 2.5L-4.3 -2.5Z" stroke="#789395" fill="none" stroke-width="2"></path></g><g transform="translate(1866 649)"><path d="M0 -10L8.7 -5L8.7 5L0 10L-8.7 5L-8.7 -5Z" stroke="#789395" fill="none" stroke-width="2"></path></g><g transform="translate(1295 1008)"><path d="M0 -23L19.9 -11.5L19.9 11.5L0 23L-19.9 11.5L-19.9 -11.5Z" stroke="#789395" fill="none" stroke-width="2"></path></g><g transform="translate(1088 546)"><path d="M0 -15L13 -7.5L13 7.5L0 15L-13 7.5L-13 -7.5Z" stroke="#789395" fill="none" stroke-width="2"></path></g><g transform="translate(1264 569)"><path d="M0 -18L15.6 -9L15.6 9L0 18L-15.6 9L-15.6 -9Z" stroke="#789395" fill="none" stroke-width="2"></path></g><g transform="translate(402 516)"><path d="M0 -20L17.3 -10L17.3 10L0 20L-17.3 10L-17.3 -10Z" stroke="#789395" fill="none" stroke-width="2"></path></g><g transform="translate(1195 479)"><path d="M0 -19L16.5 -9.5L16.5 9.5L0 19L-16.5 9.5L-16.5 -9.5Z" stroke="#789395" fill="none" stroke-width="2"></path></g><g transform="translate(1767 47)"><path d="M0 -7L6.1 -3.5L6.1 3.5L0 7L-6.1 3.5L-6.1 -3.5Z" stroke="#789395" fill="none" stroke-width="2"></path></g><g transform="translate(1105 1013)"><path d="M0 -13L11.3 -6.5L11.3 6.5L0 13L-11.3 6.5L-11.3 -6.5Z" stroke="#789395" fill="none" stroke-width="2"></path></g><g transform="translate(1539 374)"><path d="M0 -11L9.5 -5.5L9.5 5.5L0 11L-9.5 5.5L-9.5 -5.5Z" stroke="#789395" fill="none" stroke-width="2"></path></g><g transform="translate(1416 670)"><path d="M0 -17L14.7 -8.5L14.7 8.5L0 17L-14.7 8.5L-14.7 -8.5Z" stroke="#789395" fill="none" stroke-width="2"></path></g><g transform="translate(795 78)"><path d="M0 -5L4.3 -2.5L4.3 2.5L0 5L-4.3 2.5L-4.3 -2.5Z" stroke="#789395" fill="none" stroke-width="2"></path></g><g transform="translate(1197 937)"><path d="M0 -24L20.8 -12L20.8 12L0 24L-20.8 12L-20.8 -12Z" stroke="#789395" fill="none" stroke-width="2"></path></g><g transform="translate(1732 940)"><path d="M0 -24L20.8 -12L20.8 12L0 24L-20.8 12L-20.8 -12Z" stroke="#789395" fill="none" stroke-width="2"></path></g><g transform="translate(655 520)"><path d="M0 -19L16.5 -9.5L16.5 9.5L0 19L-16.5 9.5L-16.5 -9.5Z" stroke="#789395" fill="none" stroke-width="2"></path></g><g transform="translate(786 295)"><path d="M0 -8L6.9 -4L6.9 4L0 8L-6.9 4L-6.9 -4Z" stroke="#789395" fill="none" stroke-width="2"></path></g><g transform="translate(1537 726)"><path d="M0 -3L2.6 -1.5L2.6 1.5L0 3L-2.6 1.5L-2.6 -1.5Z" stroke="#789395" fill="none" stroke-width="2"></path></g><g transform="translate(105 333)"><path d="M0 -4L3.5 -2L3.5 2L0 4L-3.5 2L-3.5 -2Z" stroke="#789395" fill="none" stroke-width="2"></path></g><g transform="translate(1846 358)"><path d="M0 -3L2.6 -1.5L2.6 1.5L0 3L-2.6 1.5L-2.6 -1.5Z" stroke="#789395" fill="none" stroke-width="2"></path></g><g transform="translate(1184 659)"><path d="M0 -15L13 -7.5L13 7.5L0 15L-13 7.5L-13 -7.5Z" stroke="#789395" fill="none" stroke-width="2"></path></g><g transform="translate(597 606)"><path d="M0 -20L17.3 -10L17.3 10L0 20L-17.3 10L-17.3 -10Z" stroke="#789395" fill="none" stroke-width="2"></path></g><g transform="translate(1379 776)"><path d="M0 -14L12.1 -7L12.1 7L0 14L-12.1 7L-12.1 -7Z" stroke="#789395" fill="none" stroke-width="2"></path></g><g transform="translate(1305 352)"><path d="M0 -10L8.7 -5L8.7 5L0 10L-8.7 5L-8.7 -5Z" stroke="#789395" fill="none" stroke-width="2"></path></g><g transform="translate(1749 590)"><path d="M0 -20L17.3 -10L17.3 10L0 20L-17.3 10L-17.3 -10Z" stroke="#789395" fill="none" stroke-width="2"></path></g><g transform="translate(1034 1058)"><path d="M0 -11L9.5 -5.5L9.5 5.5L0 11L-9.5 5.5L-9.5 -5.5Z" stroke="#789395" fill="none" stroke-width="2"></path></g><g transform="translate(1405 851)"><path d="M0 -18L15.6 -9L15.6 9L0 18L-15.6 9L-15.6 -9Z" stroke="#789395" fill="none" stroke-width="2"></path></g><g transform="translate(1238 616)"><path d="M0 -18L15.6 -9L15.6 9L0 18L-15.6 9L-15.6 -9Z" stroke="#789395" fill="none" stroke-width="2"></path></g><g transform="translate(31 235)"><path d="M0 -16L13.9 -8L13.9 8L0 16L-13.9 8L-13.9 -8Z" stroke="#789395" fill="none" stroke-width="2"></path></g><g transform="translate(991 436)"><path d="M0 -23L19.9 -11.5L19.9 11.5L0 23L-19.9 11.5L-19.9 -11.5Z" stroke="#789395" fill="none" stroke-width="2"></path></g><g transform="translate(1493 922)"><path d="M0 -11L9.5 -5.5L9.5 5.5L0 11L-9.5 5.5L-9.5 -5.5Z" stroke="#789395" fill="none" stroke-width="2"></path></g><g transform="translate(810 438)"><path d="M0 -20L17.3 -10L17.3 10L0 20L-17.3 10L-17.3 -10Z" stroke="#789395" fill="none" stroke-width="2"></path></g><g transform="translate(1886 34)"><path d="M0 -7L6.1 -3.5L6.1 3.5L0 7L-6.1 3.5L-6.1 -3.5Z" stroke="#789395" fill="none" stroke-width="2"></path></g><g transform="translate(1093 835)"><path d="M0 -18L15.6 -9L15.6 9L0 18L-15.6 9L-15.6 -9Z" stroke="#789395" fill="none" stroke-width="2"></path></g><g transform="translate(784 976)"><path d="M0 -9L7.8 -4.5L7.8 4.5L0 9L-7.8 4.5L-7.8 -4.5Z" stroke="#789395" fill="none" stroke-width="2"></path></g><g transform="translate(1567 210)"><path d="M0 -24L20.8 -12L20.8 12L0 24L-20.8 12L-20.8 -12Z" stroke="#789395" fill="none" stroke-width="2"></path></g><g transform="translate(857 556)"><path d="M0 -5L4.3 -2.5L4.3 2.5L0 5L-4.3 2.5L-4.3 -2.5Z" stroke="#789395" fill="none" stroke-width="2"></path></g><g transform="translate(397 222)"><path d="M0 -6L5.2 -3L5.2 3L0 6L-5.2 3L-5.2 -3Z" stroke="#789395" fill="none" stroke-width="2"></path></g><g transform="translate(149 595)"><path d="M0 -18L15.6 -9L15.6 9L0 18L-15.6 9L-15.6 -9Z" stroke="#789395" fill="none" stroke-width="2"></path></g><g transform="translate(656 213)"><path d="M0 -22L19.1 -11L19.1 11L0 22L-19.1 11L-19.1 -11Z" stroke="#789395" fill="none" stroke-width="2"></path></g><g transform="translate(636 343)"><path d="M0 -16L13.9 -8L13.9 8L0 16L-13.9 8L-13.9 -8Z" stroke="#789395" fill="none" stroke-width="2"></path></g><g transform="translate(1584 621)"><path d="M0 -9L7.8 -4.5L7.8 4.5L0 9L-7.8 4.5L-7.8 -4.5Z" stroke="#789395" fill="none" stroke-width="2"></path></g><g transform="translate(721 253)"><path d="M0 -7L6.1 -3.5L6.1 3.5L0 7L-6.1 3.5L-6.1 -3.5Z" stroke="#789395" fill="none" stroke-width="2"></path></g><g transform="translate(748 645)"><path d="M0 -19L16.5 -9.5L16.5 9.5L0 19L-16.5 9.5L-16.5 -9.5Z" stroke="#789395" fill="none" stroke-width="2"></path></g><g transform="translate(1605 533)"><path d="M0 -12L10.4 -6L10.4 6L0 12L-10.4 6L-10.4 -6Z" stroke="#789395" fill="none" stroke-width="2"></path></g><g transform="translate(1064 593)"><path d="M0 -23L19.9 -11.5L19.9 11.5L0 23L-19.9 11.5L-19.9 -11.5Z" stroke="#789395" fill="none" stroke-width="2"></path></g><g transform="translate(1033 844)"><path d="M0 -3L2.6 -1.5L2.6 1.5L0 3L-2.6 1.5L-2.6 -1.5Z" stroke="#789395" fill="none" stroke-width="2"></path></g><g transform="translate(1874 481)"><path d="M0 -8L6.9 -4L6.9 4L0 8L-6.9 4L-6.9 -4Z" stroke="#789395" fill="none" stroke-width="2"></path></g><g transform="translate(89 170)"><path d="M0 -20L17.3 -10L17.3 10L0 20L-17.3 10L-17.3 -10Z" stroke="#789395" fill="none" stroke-width="2"></path></g><g transform="translate(253 319)"><path d="M0 -6L5.2 -3L5.2 3L0 6L-5.2 3L-5.2 -3Z" stroke="#789395" fill="none" stroke-width="2"></path></g><g transform="translate(790 1044)"><path d="M0 -14L12.1 -7L12.1 7L0 14L-12.1 7L-12.1 -7Z" stroke="#789395" fill="none" stroke-width="2"></path></g><g transform="translate(1786 888)"><path d="M0 -15L13 -7.5L13 7.5L0 15L-13 7.5L-13 -7.5Z" stroke="#789395" fill="none" stroke-width="2"></path></g><g transform="translate(902 437)"><path d="M0 -20L17.3 -10L17.3 10L0 20L-17.3 10L-17.3 -10Z" stroke="#789395" fill="none" stroke-width="2"></path></g><g transform="translate(1674 843)"><path d="M0 -10L8.7 -5L8.7 5L0 10L-8.7 5L-8.7 -5Z" stroke="#789395" fill="none" stroke-width="2"></path></g><g transform="translate(1791 826)"><path d="M0 -21L18.2 -10.5L18.2 10.5L0 21L-18.2 10.5L-18.2 -10.5Z" stroke="#789395" fill="none" stroke-width="2"></path></g><g transform="translate(159 340)"><path d="M0 -19L16.5 -9.5L16.5 9.5L0 19L-16.5 9.5L-16.5 -9.5Z" stroke="#789395" fill="none" stroke-width="2"></path></g><g transform="translate(1577 38)"><path d="M0 -5L4.3 -2.5L4.3 2.5L0 5L-4.3 2.5L-4.3 -2.5Z" stroke="#789395" fill="none" stroke-width="2"></path></g><g transform="translate(921 718)"><path d="M0 -19L16.5 -9.5L16.5 9.5L0 19L-16.5 9.5L-16.5 -9.5Z" stroke="#789395" fill="none" stroke-width="2"></path></g><g transform="translate(142 275)"><path d="M0 -9L7.8 -4.5L7.8 4.5L0 9L-7.8 4.5L-7.8 -4.5Z" stroke="#789395" fill="none" stroke-width="2"></path></g><g transform="translate(267 223)"><path d="M0 -13L11.3 -6.5L11.3 6.5L0 13L-11.3 6.5L-11.3 -6.5Z" stroke="#789395" fill="none" stroke-width="2"></path></g><g transform="translate(1818 140)"><path d="M0 -15L13 -7.5L13 7.5L0 15L-13 7.5L-13 -7.5Z" stroke="#789395" fill="none" stroke-width="2"></path></g><g transform="translate(71 488)"><path d="M0 -16L13.9 -8L13.9 8L0 16L-13.9 8L-13.9 -8Z" stroke="#789395" fill="none" stroke-width="2"></path></g><g transform="translate(156 90)"><path d="M0 -20L17.3 -10L17.3 10L0 20L-17.3 10L-17.3 -10Z" stroke="#789395" fill="none" stroke-width="2"></path></g><g transform="translate(1598 89)"><path d="M0 -6L5.2 -3L5.2 3L0 6L-5.2 3L-5.2 -3Z" stroke="#789395" fill="none" stroke-width="2"></path></g><g transform="translate(529 814)"><path d="M0 -22L19.1 -11L19.1 11L0 22L-19.1 11L-19.1 -11Z" stroke="#789395" fill="none" stroke-width="2"></path></g><g transform="translate(370 787)"><path d="M0 -22L19.1 -11L19.1 11L0 22L-19.1 11L-19.1 -11Z" stroke="#789395" fill="none" stroke-width="2"></path></g><g transform="translate(554 241)"><path d="M0 -24L20.8 -12L20.8 12L0 24L-20.8 12L-20.8 -12Z" stroke="#789395" fill="none" stroke-width="2"></path></g><g transform="translate(206 368)"><path d="M0 -19L16.5 -9.5L16.5 9.5L0 19L-16.5 9.5L-16.5 -9.5Z" stroke="#789395" fill="none" stroke-width="2"></path></g><g transform="translate(680 876)"><path d="M0 -14L12.1 -7L12.1 7L0 14L-12.1 7L-12.1 -7Z" stroke="#789395" fill="none" stroke-width="2"></path></g><g transform="translate(1370 401)"><path d="M0 -24L20.8 -12L20.8 12L0 24L-20.8 12L-20.8 -12Z" stroke="#789395" fill="none" stroke-width="2"></path></g><g transform="translate(1803 314)"><path d="M0 -7L6.1 -3.5L6.1 3.5L0 7L-6.1 3.5L-6.1 -3.5Z" stroke="#789395" fill="none" stroke-width="2"></path></g><g transform="translate(1312 694)"><path d="M0 -7L6.1 -3.5L6.1 3.5L0 7L-6.1 3.5L-6.1 -3.5Z" stroke="#789395" fill="none" stroke-width="2"></path></g><g transform="translate(1753 243)"><path d="M0 -7L6.1 -3.5L6.1 3.5L0 7L-6.1 3.5L-6.1 -3.5Z" stroke="#789395" fill="none" stroke-width="2"></path></g><g transform="translate(1563 1017)"><path d="M0 -12L10.4 -6L10.4 6L0 12L-10.4 6L-10.4 -6Z" stroke="#789395" fill="none" stroke-width="2"></path></g><g transform="translate(351 359)"><path d="M0 -24L20.8 -12L20.8 12L0 24L-20.8 12L-20.8 -12Z" stroke="#789395" fill="none" stroke-width="2"></path></g><g transform="translate(367 632)"><path d="M0 -14L12.1 -7L12.1 7L0 14L-12.1 7L-12.1 -7Z" stroke="#789395" fill="none" stroke-width="2"></path></g><g transform="translate(1615 1016)"><path d="M0 -8L6.9 -4L6.9 4L0 8L-6.9 4L-6.9 -4Z" stroke="#789395" fill="none" stroke-width="2"></path></g><g transform="translate(1690 564)"><path d="M0 -5L4.3 -2.5L4.3 2.5L0 5L-4.3 2.5L-4.3 -2.5Z" stroke="#789395" fill="none" stroke-width="2"></path></g><g transform="translate(1820 949)"><path d="M0 -22L19.1 -11L19.1 11L0 22L-19.1 11L-19.1 -11Z" stroke="#789395" fill="none" stroke-width="2"></path></g><g transform="translate(879 622)"><path d="M0 -11L9.5 -5.5L9.5 5.5L0 11L-9.5 5.5L-9.5 -5.5Z" stroke="#789395" fill="none" stroke-width="2"></path></g><g transform="translate(882 175)"><path d="M0 -21L18.2 -10.5L18.2 10.5L0 21L-18.2 10.5L-18.2 -10.5Z" stroke="#789395" fill="none" stroke-width="2"></path></g><g transform="translate(764 559)"><path d="M0 -4L3.5 -2L3.5 2L0 4L-3.5 2L-3.5 -2Z" stroke="#789395" fill="none" stroke-width="2"></path></g><g transform="translate(786 232)"><path d="M0 -4L3.5 -2L3.5 2L0 4L-3.5 2L-3.5 -2Z" stroke="#789395" fill="none" stroke-width="2"></path></g><g transform="translate(1035 499)"><path d="M0 -16L13.9 -8L13.9 8L0 16L-13.9 8L-13.9 -8Z" stroke="#789395" fill="none" stroke-width="2"></path></g><g transform="translate(1403 1031)"><path d="M0 -18L15.6 -9L15.6 9L0 18L-15.6 9L-15.6 -9Z" stroke="#789395" fill="none" stroke-width="2"></path></g><g transform="translate(1620 1077)"><path d="M0 -15L13 -7.5L13 7.5L0 15L-13 7.5L-13 -7.5Z" stroke="#789395" fill="none" stroke-width="2"></path></g><g transform="translate(591 28)"><path d="M0 -21L18.2 -10.5L18.2 10.5L0 21L-18.2 10.5L-18.2 -10.5Z" stroke="#789395" fill="none" stroke-width="2"></path></g><g transform="translate(1671 508)"><path d="M0 -11L9.5 -5.5L9.5 5.5L0 11L-9.5 5.5L-9.5 -5.5Z" stroke="#789395" fill="none" stroke-width="2"></path></g><g transform="translate(1685 713)"><path d="M0 -16L13.9 -8L13.9 8L0 16L-13.9 8L-13.9 -8Z" stroke="#789395" fill="none" stroke-width="2"></path></g><g transform="translate(1236 894)"><path d="M0 -13L11.3 -6.5L11.3 6.5L0 13L-11.3 6.5L-11.3 -6.5Z" stroke="#789395" fill="none" stroke-width="2"></path></g><g transform="translate(1486 531)"><path d="M0 -11L9.5 -5.5L9.5 5.5L0 11L-9.5 5.5L-9.5 -5.5Z" stroke="#789395" fill="none" stroke-width="2"></path></g><g transform="translate(933 824)"><path d="M0 -5L4.3 -2.5L4.3 2.5L0 5L-4.3 2.5L-4.3 -2.5Z" stroke="#789395" fill="none" stroke-width="2"></path></g><g transform="translate(232 86)"><path d="M0 -18L15.6 -9L15.6 9L0 18L-15.6 9L-15.6 -9Z" stroke="#789395" fill="none" stroke-width="2"></path></g><g transform="translate(519 758)"><path d="M0 -19L16.5 -9.5L16.5 9.5L0 19L-16.5 9.5L-16.5 -9.5Z" stroke="#789395" fill="none" stroke-width="2"></path></g><g transform="translate(1721 1053)"><path d="M0 -19L16.5 -9.5L16.5 9.5L0 19L-16.5 9.5L-16.5 -9.5Z" stroke="#789395" fill="none" stroke-width="2"></path></g><g transform="translate(137 873)"><path d="M0 -21L18.2 -10.5L18.2 10.5L0 21L-18.2 10.5L-18.2 -10.5Z" stroke="#789395" fill="none" stroke-width="2"></path></g><g transform="translate(966 885)"><path d="M0 -10L8.7 -5L8.7 5L0 10L-8.7 5L-8.7 -5Z" stroke="#789395" fill="none" stroke-width="2"></path></g><g transform="translate(132 449)"><path d="M0 -14L12.1 -7L12.1 7L0 14L-12.1 7L-12.1 -7Z" stroke="#789395" fill="none" stroke-width="2"></path></g><g transform="translate(606 965)"><path d="M0 -14L12.1 -7L12.1 7L0 14L-12.1 7L-12.1 -7Z" stroke="#789395" fill="none" stroke-width="2"></path></g><g transform="translate(308 135)"><path d="M0 -19L16.5 -9.5L16.5 9.5L0 19L-16.5 9.5L-16.5 -9.5Z" stroke="#789395" fill="none" stroke-width="2"></path></g><g transform="translate(290 982)"><path d="M0 -24L20.8 -12L20.8 12L0 24L-20.8 12L-20.8 -12Z" stroke="#789395" fill="none" stroke-width="2"></path></g><g transform="translate(253 756)"><path d="M0 -8L6.9 -4L6.9 4L0 8L-6.9 4L-6.9 -4Z" stroke="#789395" fill="none" stroke-width="2"></path></g><g transform="translate(1317 460)"><path d="M0 -10L8.7 -5L8.7 5L0 10L-8.7 5L-8.7 -5Z" stroke="#789395" fill="none" stroke-width="2"></path></g><g transform="translate(1059 774)"><path d="M0 -9L7.8 -4.5L7.8 4.5L0 9L-7.8 4.5L-7.8 -4.5Z" stroke="#789395" fill="none" stroke-width="2"></path></g><g transform="translate(422 331)"><path d="M0 -23L19.9 -11.5L19.9 11.5L0 23L-19.9 11.5L-19.9 -11.5Z" stroke="#789395" fill="none" stroke-width="2"></path></g><g transform="translate(987 111)"><path d="M0 -16L13.9 -8L13.9 8L0 16L-13.9 8L-13.9 -8Z" stroke="#789395" fill="none" stroke-width="2"></path></g><g transform="translate(1390 979)"><path d="M0 -19L16.5 -9.5L16.5 9.5L0 19L-16.5 9.5L-16.5 -9.5Z" stroke="#789395" fill="none" stroke-width="2"></path></g><g transform="translate(325 534)"><path d="M0 -11L9.5 -5.5L9.5 5.5L0 11L-9.5 5.5L-9.5 -5.5Z" stroke="#789395" fill="none" stroke-width="2"></path></g><g transform="translate(1676 360)"><path d="M0 -9L7.8 -4.5L7.8 4.5L0 9L-7.8 4.5L-7.8 -4.5Z" stroke="#789395" fill="none" stroke-width="2"></path></g><g transform="translate(1463 616)"><path d="M0 -12L10.4 -6L10.4 6L0 12L-10.4 6L-10.4 -6Z" stroke="#789395" fill="none" stroke-width="2"></path></g><g transform="translate(251 462)"><path d="M0 -11L9.5 -5.5L9.5 5.5L0 11L-9.5 5.5L-9.5 -5.5Z" stroke="#789395" fill="none" stroke-width="2"></path></g><g transform="translate(1244 416)"><path d="M0 -19L16.5 -9.5L16.5 9.5L0 19L-16.5 9.5L-16.5 -9.5Z" stroke="#789395" fill="none" stroke-width="2"></path></g><g transform="translate(1280 5)"><path d="M0 -19L16.5 -9.5L16.5 9.5L0 19L-16.5 9.5L-16.5 -9.5Z" stroke="#789395" fill="none" stroke-width="2"></path></g><g transform="translate(490 312)"><path d="M0 -3L2.6 -1.5L2.6 1.5L0 3L-2.6 1.5L-2.6 -1.5Z" stroke="#789395" fill="none" stroke-width="2"></path></g><g transform="translate(765 35)"><path d="M0 -6L5.2 -3L5.2 3L0 6L-5.2 3L-5.2 -3Z" stroke="#789395" fill="none" stroke-width="2"></path></g><g transform="translate(944 998)"><path d="M0 -19L16.5 -9.5L16.5 9.5L0 19L-16.5 9.5L-16.5 -9.5Z" stroke="#789395" fill="none" stroke-width="2"></path></g><g transform="translate(706 1002)"><path d="M0 -9L7.8 -4.5L7.8 4.5L0 9L-7.8 4.5L-7.8 -4.5Z" stroke="#789395" fill="none" stroke-width="2"></path></g><g transform="translate(1302 77)"><path d="M0 -14L12.1 -7L12.1 7L0 14L-12.1 7L-12.1 -7Z" stroke="#789395" fill="none" stroke-width="2"></path></g><g transform="translate(1873 902)"><path d="M0 -14L12.1 -7L12.1 7L0 14L-12.1 7L-12.1 -7Z" stroke="#789395" fill="none" stroke-width="2"></path></g><g transform="translate(1562 500)"><path d="M0 -14L12.1 -7L12.1 7L0 14L-12.1 7L-12.1 -7Z" stroke="#789395" fill="none" stroke-width="2"></path></g><g transform="translate(467 685)"><path d="M0 -22L19.1 -11L19.1 11L0 22L-19.1 11L-19.1 -11Z" stroke="#789395" fill="none" stroke-width="2"></path></g><g transform="translate(1509 579)"><path d="M0 -14L12.1 -7L12.1 7L0 14L-12.1 7L-12.1 -7Z" stroke="#789395" fill="none" stroke-width="2"></path></g><g transform="translate(391 924)"><path d="M0 -10L8.7 -5L8.7 5L0 10L-8.7 5L-8.7 -5Z" stroke="#789395" fill="none" stroke-width="2"></path></g><g transform="translate(357 111)"><path d="M0 -9L7.8 -4.5L7.8 4.5L0 9L-7.8 4.5L-7.8 -4.5Z" stroke="#789395" fill="none" stroke-width="2"></path></g><g transform="translate(164 816)"><path d="M0 -23L19.9 -11.5L19.9 11.5L0 23L-19.9 11.5L-19.9 -11.5Z" stroke="#789395" fill="none" stroke-width="2"></path></g><g transform="translate(1148 28)"><path d="M0 -13L11.3 -6.5L11.3 6.5L0 13L-11.3 6.5L-11.3 -6.5Z" stroke="#789395" fill="none" stroke-width="2"></path></g><g transform="translate(1459 27)"><path d="M0 -13L11.3 -6.5L11.3 6.5L0 13L-11.3 6.5L-11.3 -6.5Z" stroke="#789395" fill="none" stroke-width="2"></path></g><g transform="translate(909 284)"><path d="M0 -12L10.4 -6L10.4 6L0 12L-10.4 6L-10.4 -6Z" stroke="#789395" fill="none" stroke-width="2"></path></g><g transform="translate(198 1000)"><path d="M0 -10L8.7 -5L8.7 5L0 10L-8.7 5L-8.7 -5Z" stroke="#789395" fill="none" stroke-width="2"></path></g><g transform="translate(1919 636)"><path d="M0 -7L6.1 -3.5L6.1 3.5L0 7L-6.1 3.5L-6.1 -3.5Z" stroke="#789395" fill="none" stroke-width="2"></path></g><g transform="translate(1417 374)"><path d="M0 -16L13.9 -8L13.9 8L0 16L-13.9 8L-13.9 -8Z" stroke="#789395" fill="none" stroke-width="2"></path></g><g transform="translate(1140 210)"><path d="M0 -22L19.1 -11L19.1 11L0 22L-19.1 11L-19.1 -11Z" stroke="#789395" fill="none" stroke-width="2"></path></g><g transform="translate(594 109)"><path d="M0 -18L15.6 -9L15.6 9L0 18L-15.6 9L-15.6 -9Z" stroke="#789395" fill="none" stroke-width="2"></path></g><g transform="translate(276 808)"><path d="M0 -18L15.6 -9L15.6 9L0 18L-15.6 9L-15.6 -9Z" stroke="#789395" fill="none" stroke-width="2"></path></g><g transform="translate(770 737)"><path d="M0 -9L7.8 -4.5L7.8 4.5L0 9L-7.8 4.5L-7.8 -4.5Z" stroke="#789395" fill="none" stroke-width="2"></path></g><g transform="translate(340 704)"><path d="M0 -15L13 -7.5L13 7.5L0 15L-13 7.5L-13 -7.5Z" stroke="#789395" fill="none" stroke-width="2"></path></g><g transform="translate(530 135)"><path d="M0 -6L5.2 -3L5.2 3L0 6L-5.2 3L-5.2 -3Z" stroke="#789395" fill="none" stroke-width="2"></path></g><g transform="translate(1273 760)"><path d="M0 -17L14.7 -8.5L14.7 8.5L0 17L-14.7 8.5L-14.7 -8.5Z" stroke="#789395" fill="none" stroke-width="2"></path></g><g transform="translate(533 874)"><path d="M0 -24L20.8 -12L20.8 12L0 24L-20.8 12L-20.8 -12Z" stroke="#789395" fill="none" stroke-width="2"></path></g><g transform="translate(1908 816)"><path d="M0 -5L4.3 -2.5L4.3 2.5L0 5L-4.3 2.5L-4.3 -2.5Z" stroke="#789395" fill="none" stroke-width="2"></path></g><g transform="translate(704 86)"><path d="M0 -3L2.6 -1.5L2.6 1.5L0 3L-2.6 1.5L-2.6 -1.5Z" stroke="#789395" fill="none" stroke-width="2"></path></g><g transform="translate(907 60)"><path d="M0 -23L19.9 -11.5L19.9 11.5L0 23L-19.9 11.5L-19.9 -11.5Z" stroke="#789395" fill="none" stroke-width="2"></path></g><g transform="translate(832 340)"><path d="M0 -7L6.1 -3.5L6.1 3.5L0 7L-6.1 3.5L-6.1 -3.5Z" stroke="#789395" fill="none" stroke-width="2"></path></g><g transform="translate(1203 47)"><path d="M0 -3L2.6 -1.5L2.6 1.5L0 3L-2.6 1.5L-2.6 -1.5Z" stroke="#789395" fill="none" stroke-width="2"></path></g><g transform="translate(1895 384)"><path d="M0 -22L19.1 -11L19.1 11L0 22L-19.1 11L-19.1 -11Z" stroke="#789395" fill="none" stroke-width="2"></path></g><g transform="translate(450 1028)"><path d="M0 -23L19.9 -11.5L19.9 11.5L0 23L-19.9 11.5L-19.9 -11.5Z" stroke="#789395" fill="none" stroke-width="2"></path></g><g transform="translate(1596 775)"><path d="M0 -17L14.7 -8.5L14.7 8.5L0 17L-14.7 8.5L-14.7 -8.5Z" stroke="#789395" fill="none" stroke-width="2"></path></g><g transform="translate(721 330)"><path d="M0 -6L5.2 -3L5.2 3L0 6L-5.2 3L-5.2 -3Z" stroke="#789395" fill="none" stroke-width="2"></path></g><g transform="translate(1078 670)"><path d="M0 -13L11.3 -6.5L11.3 6.5L0 13L-11.3 6.5L-11.3 -6.5Z" stroke="#789395" fill="none" stroke-width="2"></path></g><g transform="translate(127 1020)"><path d="M0 -9L7.8 -4.5L7.8 4.5L0 9L-7.8 4.5L-7.8 -4.5Z" stroke="#789395" fill="none" stroke-width="2"></path></g><g transform="translate(845 118)"><path d="M0 -21L18.2 -10.5L18.2 10.5L0 21L-18.2 10.5L-18.2 -10.5Z" stroke="#789395" fill="none" stroke-width="2"></path></g><g transform="translate(595 207)"><path d="M0 -14L12.1 -7L12.1 7L0 14L-12.1 7L-12.1 -7Z" stroke="#789395" fill="none" stroke-width="2"></path></g><g transform="translate(25 554)"><path d="M0 -18L15.6 -9L15.6 9L0 18L-15.6 9L-15.6 -9Z" stroke="#789395" fill="none" stroke-width="2"></path></g><g transform="translate(277 394)"><path d="M0 -21L18.2 -10.5L18.2 10.5L0 21L-18.2 10.5L-18.2 -10.5Z" stroke="#789395" fill="none" stroke-width="2"></path></g><g transform="translate(1691 145)"><path d="M0 -17L14.7 -8.5L14.7 8.5L0 17L-14.7 8.5L-14.7 -8.5Z" stroke="#789395" fill="none" stroke-width="2"></path></g><g transform="translate(372 1024)"><path d="M0 -3L2.6 -1.5L2.6 1.5L0 3L-2.6 1.5L-2.6 -1.5Z" stroke="#789395" fill="none" stroke-width="2"></path></g><g transform="translate(663 156)"><path d="M0 -21L18.2 -10.5L18.2 10.5L0 21L-18.2 10.5L-18.2 -10.5Z" stroke="#789395" fill="none" stroke-width="2"></path></g><g transform="translate(1486 335)"><path d="M0 -8L6.9 -4L6.9 4L0 8L-6.9 4L-6.9 -4Z" stroke="#789395" fill="none" stroke-width="2"></path></g><g transform="translate(1010 27)"><path d="M0 -20L17.3 -10L17.3 10L0 20L-17.3 10L-17.3 -10Z" stroke="#789395" fill="none" stroke-width="2"></path></g><g transform="translate(1191 351)"><path d="M0 -10L8.7 -5L8.7 5L0 10L-8.7 5L-8.7 -5Z" stroke="#789395" fill="none" stroke-width="2"></path></g><g transform="translate(15 112)"><path d="M0 -9L7.8 -4.5L7.8 4.5L0 9L-7.8 4.5L-7.8 -4.5Z" stroke="#789395" fill="none" stroke-width="2"></path></g><g transform="translate(1859 288)"><path d="M0 -4L3.5 -2L3.5 2L0 4L-3.5 2L-3.5 -2Z" stroke="#789395" fill="none" stroke-width="2"></path></g><g transform="translate(30 833)"><path d="M0 -11L9.5 -5.5L9.5 5.5L0 11L-9.5 5.5L-9.5 -5.5Z" stroke="#789395" fill="none" stroke-width="2"></path></g><g transform="translate(477 53)"><path d="M0 -23L19.9 -11.5L19.9 11.5L0 23L-19.9 11.5L-19.9 -11.5Z" stroke="#789395" fill="none" stroke-width="2"></path></g><g transform="translate(1349 272)"><path d="M0 -22L19.1 -11L19.1 11L0 22L-19.1 11L-19.1 -11Z" stroke="#789395" fill="none" stroke-width="2"></path></g><g transform="translate(1874 580)"><path d="M0 -4L3.5 -2L3.5 2L0 4L-3.5 2L-3.5 -2Z" stroke="#789395" fill="none" stroke-width="2"></path></g><g transform="translate(215 282)"><path d="M0 -5L4.3 -2.5L4.3 2.5L0 5L-4.3 2.5L-4.3 -2.5Z" stroke="#789395" fill="none" stroke-width="2"></path></g><g transform="translate(1802 998)"><path d="M0 -22L19.1 -11L19.1 11L0 22L-19.1 11L-19.1 -11Z" stroke="#789395" fill="none" stroke-width="2"></path></g><g transform="translate(797 911)"><path d="M0 -17L14.7 -8.5L14.7 8.5L0 17L-14.7 8.5L-14.7 -8.5Z" stroke="#789395" fill="none" stroke-width="2"></path></g><g transform="translate(1177 120)"><path d="M0 -13L11.3 -6.5L11.3 6.5L0 13L-11.3 6.5L-11.3 -6.5Z" stroke="#789395" fill="none" stroke-width="2"></path></g><g transform="translate(188 534)"><path d="M0 -16L13.9 -8L13.9 8L0 16L-13.9 8L-13.9 -8Z" stroke="#789395" fill="none" stroke-width="2"></path></g><g transform="translate(1404 212)"><path d="M0 -9L7.8 -4.5L7.8 4.5L0 9L-7.8 4.5L-7.8 -4.5Z" stroke="#789395" fill="none" stroke-width="2"></path></g><g transform="translate(949 541)"><path d="M0 -17L14.7 -8.5L14.7 8.5L0 17L-14.7 8.5L-14.7 -8.5Z" stroke="#789395" fill="none" stroke-width="2"></path></g><g transform="translate(1502 171)"><path d="M0 -12L10.4 -6L10.4 6L0 12L-10.4 6L-10.4 -6Z" stroke="#789395" fill="none" stroke-width="2"></path></g><g transform="translate(1914 1050)"><path d="M0 -3L2.6 -1.5L2.6 1.5L0 3L-2.6 1.5L-2.6 -1.5Z" stroke="#789395" fill="none" stroke-width="2"></path></g><g transform="translate(1228 312)"><path d="M0 -13L11.3 -6.5L11.3 6.5L0 13L-11.3 6.5L-11.3 -6.5Z" stroke="#789395" fill="none" stroke-width="2"></path></g><g transform="translate(1077 310)"><path d="M0 -18L15.6 -9L15.6 9L0 18L-15.6 9L-15.6 -9Z" stroke="#789395" fill="none" stroke-width="2"></path></g><g transform="translate(567 1015)"><path d="M0 -3L2.6 -1.5L2.6 1.5L0 3L-2.6 1.5L-2.6 -1.5Z" stroke="#789395" fill="none" stroke-width="2"></path></g><g transform="translate(1735 539)"><path d="M0 -5L4.3 -2.5L4.3 2.5L0 5L-4.3 2.5L-4.3 -2.5Z" stroke="#789395" fill="none" stroke-width="2"></path></g><g transform="translate(1205 243)"><path d="M0 -4L3.5 -2L3.5 2L0 4L-3.5 2L-3.5 -2Z" stroke="#789395" fill="none" stroke-width="2"></path></g><g transform="translate(995 255)"><path d="M0 -18L15.6 -9L15.6 9L0 18L-15.6 9L-15.6 -9Z" stroke="#789395" fill="none" stroke-width="2"></path></g><g transform="translate(90 92)"><path d="M0 -20L17.3 -10L17.3 10L0 20L-17.3 10L-17.3 -10Z" stroke="#789395" fill="none" stroke-width="2"></path></g><g transform="translate(1124 451)"><path d="M0 -23L19.9 -11.5L19.9 11.5L0 23L-19.9 11.5L-19.9 -11.5Z" stroke="#789395" fill="none" stroke-width="2"></path></g><g transform="translate(1752 295)"><path d="M0 -23L19.9 -11.5L19.9 11.5L0 23L-19.9 11.5L-19.9 -11.5Z" stroke="#789395" fill="none" stroke-width="2"></path></g><g transform="translate(1186 999)"><path d="M0 -14L12.1 -7L12.1 7L0 14L-12.1 7L-12.1 -7Z" stroke="#789395" fill="none" stroke-width="2"></path></g><g transform="translate(1918 736)"><path d="M0 -13L11.3 -6.5L11.3 6.5L0 13L-11.3 6.5L-11.3 -6.5Z" stroke="#789395" fill="none" stroke-width="2"></path></g><g transform="translate(880 900)"><path d="M0 -16L13.9 -8L13.9 8L0 16L-13.9 8L-13.9 -8Z" stroke="#789395" fill="none" stroke-width="2"></path></g><g transform="translate(1787 545)"><path d="M0 -18L15.6 -9L15.6 9L0 18L-15.6 9L-15.6 -9Z" stroke="#789395" fill="none" stroke-width="2"></path></g><g transform="translate(1868 997)"><path d="M0 -17L14.7 -8.5L14.7 8.5L0 17L-14.7 8.5L-14.7 -8.5Z" stroke="#789395" fill="none" stroke-width="2"></path></g><g transform="translate(1038 103)"><path d="M0 -11L9.5 -5.5L9.5 5.5L0 11L-9.5 5.5L-9.5 -5.5Z" stroke="#789395" fill="none" stroke-width="2"></path></g><g transform="translate(17 1014)"><path d="M0 -6L5.2 -3L5.2 3L0 6L-5.2 3L-5.2 -3Z" stroke="#789395" fill="none" stroke-width="2"></path></g><g transform="translate(484 228)"><path d="M0 -12L10.4 -6L10.4 6L0 12L-10.4 6L-10.4 -6Z" stroke="#789395" fill="none" stroke-width="2"></path></g><g transform="translate(455 436)"><path d="M0 -12L10.4 -6L10.4 6L0 12L-10.4 6L-10.4 -6Z" stroke="#789395" fill="none" stroke-width="2"></path></g><g transform="translate(1785 369)"><path d="M0 -8L6.9 -4L6.9 4L0 8L-6.9 4L-6.9 -4Z" stroke="#789395" fill="none" stroke-width="2"></path></g><g transform="translate(1299 643)"><path d="M0 -20L17.3 -10L17.3 10L0 20L-17.3 10L-17.3 -10Z" stroke="#789395" fill="none" stroke-width="2"></path></g><g transform="translate(1798 642)"><path d="M0 -23L19.9 -11.5L19.9 11.5L0 23L-19.9 11.5L-19.9 -11.5Z" stroke="#789395" fill="none" stroke-width="2"></path></g><g transform="translate(474 170)"><path d="M0 -14L12.1 -7L12.1 7L0 14L-12.1 7L-12.1 -7Z" stroke="#789395" fill="none" stroke-width="2"></path></g><g transform="translate(254 702)"><path d="M0 -4L3.5 -2L3.5 2L0 4L-3.5 2L-3.5 -2Z" stroke="#789395" fill="none" stroke-width="2"></path></g><g transform="translate(1783 468)"><path d="M0 -10L8.7 -5L8.7 5L0 10L-8.7 5L-8.7 -5Z" stroke="#789395" fill="none" stroke-width="2"></path></g><g transform="translate(986 713)"><path d="M0 -12L10.4 -6L10.4 6L0 12L-10.4 6L-10.4 -6Z" stroke="#789395" fill="none" stroke-width="2"></path></g><g transform="translate(288 28)"><path d="M0 -9L7.8 -4.5L7.8 4.5L0 9L-7.8 4.5L-7.8 -4.5Z" stroke="#789395" fill="none" stroke-width="2"></path></g><g transform="translate(125 663)"><path d="M0 -22L19.1 -11L19.1 11L0 22L-19.1 11L-19.1 -11Z" stroke="#789395" fill="none" stroke-width="2"></path></g><g transform="translate(1495 249)"><path d="M0 -9L7.8 -4.5L7.8 4.5L0 9L-7.8 4.5L-7.8 -4.5Z" stroke="#789395" fill="none" stroke-width="2"></path></g><g transform="translate(1476 405)"><path d="M0 -18L15.6 -9L15.6 9L0 18L-15.6 9L-15.6 -9Z" stroke="#789395" fill="none" stroke-width="2"></path></g><g transform="translate(212 1053)"><path d="M0 -19L16.5 -9.5L16.5 9.5L0 19L-16.5 9.5L-16.5 -9.5Z" stroke="#789395" fill="none" stroke-width="2"></path></g><g transform="translate(1673 432)"><path d="M0 -12L10.4 -6L10.4 6L0 12L-10.4 6L-10.4 -6Z" stroke="#789395" fill="none" stroke-width="2"></path></g><g transform="translate(1693 56)"><path d="M0 -7L6.1 -3.5L6.1 3.5L0 7L-6.1 3.5L-6.1 -3.5Z" stroke="#789395" fill="none" stroke-width="2"></path></g><g transform="translate(1278 814)"><path d="M0 -3L2.6 -1.5L2.6 1.5L0 3L-2.6 1.5L-2.6 -1.5Z" stroke="#789395" fill="none" stroke-width="2"></path></g><g transform="translate(297 888)"><path d="M0 -7L6.1 -3.5L6.1 3.5L0 7L-6.1 3.5L-6.1 -3.5Z" stroke="#789395" fill="none" stroke-width="2"></path></g><g transform="translate(605 267)"><path d="M0 -23L19.9 -11.5L19.9 11.5L0 23L-19.9 11.5L-19.9 -11.5Z" stroke="#789395" fill="none" stroke-width="2"></path></g><g transform="translate(1024 952)"><path d="M0 -15L13 -7.5L13 7.5L0 15L-13 7.5L-13 -7.5Z" stroke="#789395" fill="none" stroke-width="2"></path></g><g transform="translate(1917 179)"><path d="M0 -4L3.5 -2L3.5 2L0 4L-3.5 2L-3.5 -2Z" stroke="#789395" fill="none" stroke-width="2"></path></g><g transform="translate(925 211)"><path d="M0 -24L20.8 -12L20.8 12L0 24L-20.8 12L-20.8 -12Z" stroke="#789395" fill="none" stroke-width="2"></path></g><g transform="translate(416 820)"><path d="M0 -15L13 -7.5L13 7.5L0 15L-13 7.5L-13 -7.5Z" stroke="#789395" fill="none" stroke-width="2"></path></g><g transform="translate(1797 189)"><path d="M0 -14L12.1 -7L12.1 7L0 14L-12.1 7L-12.1 -7Z" stroke="#789395" fill="none" stroke-width="2"></path></g><g transform="translate(14 919)"><path d="M0 -7L6.1 -3.5L6.1 3.5L0 7L-6.1 3.5L-6.1 -3.5Z" stroke="#789395" fill="none" stroke-width="2"></path></g><g transform="translate(498 400)"><path d="M0 -16L13.9 -8L13.9 8L0 16L-13.9 8L-13.9 -8Z" stroke="#789395" fill="none" stroke-width="2"></path></g><g transform="translate(884 957)"><path d="M0 -24L20.8 -12L20.8 12L0 24L-20.8 12L-20.8 -12Z" stroke="#789395" fill="none" stroke-width="2"></path></g><g transform="translate(143 184)"><path d="M0 -23L19.9 -11.5L19.9 11.5L0 23L-19.9 11.5L-19.9 -11.5Z" stroke="#789395" fill="none" stroke-width="2"></path></g><g transform="translate(18 16)"><path d="M0 -9L7.8 -4.5L7.8 4.5L0 9L-7.8 4.5L-7.8 -4.5Z" stroke="#789395" fill="none" stroke-width="2"></path></g><g transform="translate(700 787)"><path d="M0 -4L3.5 -2L3.5 2L0 4L-3.5 2L-3.5 -2Z" stroke="#789395" fill="none" stroke-width="2"></path></g><g transform="translate(283 646)"><path d="M0 -3L2.6 -1.5L2.6 1.5L0 3L-2.6 1.5L-2.6 -1.5Z" stroke="#789395" fill="none" stroke-width="2"></path></g><g transform="translate(1246 210)"><path d="M0 -5L4.3 -2.5L4.3 2.5L0 5L-4.3 2.5L-4.3 -2.5Z" stroke="#789395" fill="none" stroke-width="2"></path></g><g transform="translate(491 495)"><path d="M0 -23L19.9 -11.5L19.9 11.5L0 23L-19.9 11.5L-19.9 -11.5Z" stroke="#789395" fill="none" stroke-width="2"></path></g><g transform="translate(1000 572)"><path d="M0 -13L11.3 -6.5L11.3 6.5L0 13L-11.3 6.5L-11.3 -6.5Z" stroke="#789395" fill="none" stroke-width="2"></path></g><g transform="translate(1316 929)"><path d="M0 -19L16.5 -9.5L16.5 9.5L0 19L-16.5 9.5L-16.5 -9.5Z" stroke="#789395" fill="none" stroke-width="2"></path></g><g transform="translate(513 979)"><path d="M0 -3L2.6 -1.5L2.6 1.5L0 3L-2.6 1.5L-2.6 -1.5Z" stroke="#789395" fill="none" stroke-width="2"></path></g><g transform="translate(431 568)"><path d="M0 -20L17.3 -10L17.3 10L0 20L-17.3 10L-17.3 -10Z" stroke="#789395" fill="none" stroke-width="2"></path></g><g transform="translate(813 167)"><path d="M0 -15L13 -7.5L13 7.5L0 15L-13 7.5L-13 -7.5Z" stroke="#789395" fill="none" stroke-width="2"></path></g><g transform="translate(86 717)"><path d="M0 -17L14.7 -8.5L14.7 8.5L0 17L-14.7 8.5L-14.7 -8.5Z" stroke="#789395" fill="none" stroke-width="2"></path></g><g transform="translate(1828 72)"><path d="M0 -24L20.8 -12L20.8 12L0 24L-20.8 12L-20.8 -12Z" stroke="#789395" fill="none" stroke-width="2"></path></g><g transform="translate(1156 889)"><path d="M0 -10L8.7 -5L8.7 5L0 10L-8.7 5L-8.7 -5Z" stroke="#789395" fill="none" stroke-width="2"></path></g><g transform="translate(152 1075)"><path d="M0 -5L4.3 -2.5L4.3 2.5L0 5L-4.3 2.5L-4.3 -2.5Z" stroke="#789395" fill="none" stroke-width="2"></path></g><g transform="translate(691 433)"><path d="M0 -11L9.5 -5.5L9.5 5.5L0 11L-9.5 5.5L-9.5 -5.5Z" stroke="#789395" fill="none" stroke-width="2"></path></g><g transform="translate(1535 125)"><path d="M0 -24L20.8 -12L20.8 12L0 24L-20.8 12L-20.8 -12Z" stroke="#789395" fill="none" stroke-width="2"></path></g><g transform="translate(405 702)"><path d="M0 -19L16.5 -9.5L16.5 9.5L0 19L-16.5 9.5L-16.5 -9.5Z" stroke="#789395" fill="none" stroke-width="2"></path></g><g transform="translate(1340 1057)"><path d="M0 -9L7.8 -4.5L7.8 4.5L0 9L-7.8 4.5L-7.8 -4.5Z" stroke="#789395" fill="none" stroke-width="2"></path></g><g transform="translate(1846 1054)"><path d="M0 -12L10.4 -6L10.4 6L0 12L-10.4 6L-10.4 -6Z" stroke="#789395" fill="none" stroke-width="2"></path></g><g transform="translate(932 937)"><path d="M0 -9L7.8 -4.5L7.8 4.5L0 9L-7.8 4.5L-7.8 -4.5Z" stroke="#789395" fill="none" stroke-width="2"></path></g><g transform="translate(1507 8)"><path d="M0 -10L8.7 -5L8.7 5L0 10L-8.7 5L-8.7 -5Z" stroke="#789395" fill="none" stroke-width="2"></path></g><g transform="translate(915 1049)"><path d="M0 -19L16.5 -9.5L16.5 9.5L0 19L-16.5 9.5L-16.5 -9.5Z" stroke="#789395" fill="none" stroke-width="2"></path></g><g transform="translate(1522 638)"><path d="M0 -24L20.8 -12L20.8 12L0 24L-20.8 12L-20.8 -12Z" stroke="#789395" fill="none" stroke-width="2"></path></g><g transform="translate(1852 746)"><path d="M0 -21L18.2 -10.5L18.2 10.5L0 21L-18.2 10.5L-18.2 -10.5Z" stroke="#789395" fill="none" stroke-width="2"></path></g><g transform="translate(1571 262)"><path d="M0 -24L20.8 -12L20.8 12L0 24L-20.8 12L-20.8 -12Z" stroke="#789395" fill="none" stroke-width="2"></path></g><g transform="translate(1622 661)"><path d="M0 -20L17.3 -10L17.3 10L0 20L-17.3 10L-17.3 -10Z" stroke="#789395" fill="none" stroke-width="2"></path></g><g transform="translate(427 120)"><path d="M0 -17L14.7 -8.5L14.7 8.5L0 17L-14.7 8.5L-14.7 -8.5Z" stroke="#789395" fill="none" stroke-width="2"></path></g><g transform="translate(1256 473)"><path d="M0 -19L16.5 -9.5L16.5 9.5L0 19L-16.5 9.5L-16.5 -9.5Z" stroke="#789395" fill="none" stroke-width="2"></path></g><g transform="translate(1182 569)"><path d="M0 -3L2.6 -1.5L2.6 1.5L0 3L-2.6 1.5L-2.6 -1.5Z" stroke="#789395" fill="none" stroke-width="2"></path></g><g transform="translate(25 449)"><path d="M0 -4L3.5 -2L3.5 2L0 4L-3.5 2L-3.5 -2Z" stroke="#789395" fill="none" stroke-width="2"></path></g><g transform="translate(89 596)"><path d="M0 -3L2.6 -1.5L2.6 1.5L0 3L-2.6 1.5L-2.6 -1.5Z" stroke="#789395" fill="none" stroke-width="2"></path></g><g transform="translate(619 673)"><path d="M0 -9L7.8 -4.5L7.8 4.5L0 9L-7.8 4.5L-7.8 -4.5Z" stroke="#789395" fill="none" stroke-width="2"></path></g><g transform="translate(1833 432)"><path d="M0 -24L20.8 -12L20.8 12L0 24L-20.8 12L-20.8 -12Z" stroke="#789395" fill="none" stroke-width="2"></path></g><g transform="translate(1722 187)"><path d="M0 -19L16.5 -9.5L16.5 9.5L0 19L-16.5 9.5L-16.5 -9.5Z" stroke="#789395" fill="none" stroke-width="2"></path></g><g transform="translate(399 979)"><path d="M0 -4L3.5 -2L3.5 2L0 4L-3.5 2L-3.5 -2Z" stroke="#789395" fill="none" stroke-width="2"></path></g><g transform="translate(18 694)"><path d="M0 -5L4.3 -2.5L4.3 2.5L0 5L-4.3 2.5L-4.3 -2.5Z" stroke="#789395" fill="none" stroke-width="2"></path></g><g transform="translate(1102 116)"><path d="M0 -4L3.5 -2L3.5 2L0 4L-3.5 2L-3.5 -2Z" stroke="#789395" fill="none" stroke-width="2"></path></g><g transform="translate(1140 961)"><path d="M0 -9L7.8 -4.5L7.8 4.5L0 9L-7.8 4.5L-7.8 -4.5Z" stroke="#789395" fill="none" stroke-width="2"></path></g><g transform="translate(1406 65)"><path d="M0 -13L11.3 -6.5L11.3 6.5L0 13L-11.3 6.5L-11.3 -6.5Z" stroke="#789395" fill="none" stroke-width="2"></path></g><g transform="translate(381 294)"><path d="M0 -20L17.3 -10L17.3 10L0 20L-17.3 10L-17.3 -10Z" stroke="#789395" fill="none" stroke-width="2"></path></g><g transform="translate(1601 350)"><path d="M0 -21L18.2 -10.5L18.2 10.5L0 21L-18.2 10.5L-18.2 -10.5Z" stroke="#789395" fill="none" stroke-width="2"></path></g><g transform="translate(85 894)"><path d="M0 -15L13 -7.5L13 7.5L0 15L-13 7.5L-13 -7.5Z" stroke="#789395" fill="none" stroke-width="2"></path></g><g transform="translate(795 381)"><path d="M0 -11L9.5 -5.5L9.5 5.5L0 11L-9.5 5.5L-9.5 -5.5Z" stroke="#789395" fill="none" stroke-width="2"></path></g><g transform="translate(1501 852)"><path d="M0 -20L17.3 -10L17.3 10L0 20L-17.3 10L-17.3 -10Z" stroke="#789395" fill="none" stroke-width="2"></path></g><g transform="translate(62 983)"><path d="M0 -11L9.5 -5.5L9.5 5.5L0 11L-9.5 5.5L-9.5 -5.5Z" stroke="#789395" fill="none" stroke-width="2"></path></g><g transform="translate(998 775)"><path d="M0 -15L13 -7.5L13 7.5L0 15L-13 7.5L-13 -7.5Z" stroke="#789395" fill="none" stroke-width="2"></path></g><g transform="translate(1334 542)"><path d="M0 -4L3.5 -2L3.5 2L0 4L-3.5 2L-3.5 -2Z" stroke="#789395" fill="none" stroke-width="2"></path></g><g transform="translate(1806 251)"><path d="M0 -13L11.3 -6.5L11.3 6.5L0 13L-11.3 6.5L-11.3 -6.5Z" stroke="#789395" fill="none" stroke-width="2"></path></g><g transform="translate(478 618)"><path d="M0 -4L3.5 -2L3.5 2L0 4L-3.5 2L-3.5 -2Z" stroke="#789395" fill="none" stroke-width="2"></path></g><g transform="translate(1596 910)"><path d="M0 -18L15.6 -9L15.6 9L0 18L-15.6 9L-15.6 -9Z" stroke="#789395" fill="none" stroke-width="2"></path></g><g transform="translate(839 655)"><path d="M0 -17L14.7 -8.5L14.7 8.5L0 17L-14.7 8.5L-14.7 -8.5Z" stroke="#789395" fill="none" stroke-width="2"></path></g><g transform="translate(1477 802)"><path d="M0 -22L19.1 -11L19.1 11L0 22L-19.1 11L-19.1 -11Z" stroke="#789395" fill="none" stroke-width="2"></path></g><g transform="translate(539 1059)"><path d="M0 -22L19.1 -11L19.1 11L0 22L-19.1 11L-19.1 -11Z" stroke="#789395" fill="none" stroke-width="2"></path></g><g transform="translate(205 29)"><path d="M0 -17L14.7 -8.5L14.7 8.5L0 17L-14.7 8.5L-14.7 -8.5Z" stroke="#789395" fill="none" stroke-width="2"></path></g><g transform="translate(827 716)"><path d="M0 -18L15.6 -9L15.6 9L0 18L-15.6 9L-15.6 -9Z" stroke="#789395" fill="none" stroke-width="2"></path></g><g transform="translate(655 1020)"><path d="M0 -22L19.1 -11L19.1 11L0 22L-19.1 11L-19.1 -11Z" stroke="#789395" fill="none" stroke-width="2"></path></g><g transform="translate(1832 515)"><path d="M0 -17L14.7 -8.5L14.7 8.5L0 17L-14.7 8.5L-14.7 -8.5Z" stroke="#789395" fill="none" stroke-width="2"></path></g><g transform="translate(743 450)"><path d="M0 -8L6.9 -4L6.9 4L0 8L-6.9 4L-6.9 -4Z" stroke="#789395" fill="none" stroke-width="2"></path></g><g transform="translate(946 483)"><path d="M0 -12L10.4 -6L10.4 6L0 12L-10.4 6L-10.4 -6Z" stroke="#789395" fill="none" stroke-width="2"></path></g><g transform="translate(1226 147)"><path d="M0 -24L20.8 -12L20.8 12L0 24L-20.8 12L-20.8 -12Z" stroke="#789395" fill="none" stroke-width="2"></path></g><g transform="translate(177 413)"><path d="M0 -24L20.8 -12L20.8 12L0 24L-20.8 12L-20.8 -12Z" stroke="#789395" fill="none" stroke-width="2"></path></g><g transform="translate(441 900)"><path d="M0 -19L16.5 -9.5L16.5 9.5L0 19L-16.5 9.5L-16.5 -9.5Z" stroke="#789395" fill="none" stroke-width="2"></path></g><g transform="translate(744 148)"><path d="M0 -13L11.3 -6.5L11.3 6.5L0 13L-11.3 6.5L-11.3 -6.5Z" stroke="#789395" fill="none" stroke-width="2"></path></g><g transform="translate(1333 804)"><path d="M0 -15L13 -7.5L13 7.5L0 15L-13 7.5L-13 -7.5Z" stroke="#789395" fill="none" stroke-width="2"></path></g><g transform="translate(88 258)"><path d="M0 -13L11.3 -6.5L11.3 6.5L0 13L-11.3 6.5L-11.3 -6.5Z" stroke="#789395" fill="none" stroke-width="2"></path></g><g transform="translate(572 310)"><path d="M0 -6L5.2 -3L5.2 3L0 6L-5.2 3L-5.2 -3Z" stroke="#789395" fill="none" stroke-width="2"></path></g><g transform="translate(1363 673)"><path d="M0 -16L13.9 -8L13.9 8L0 16L-13.9 8L-13.9 -8Z" stroke="#789395" fill="none" stroke-width="2"></path></g><g transform="translate(231 151)"><path d="M0 -9L7.8 -4.5L7.8 4.5L0 9L-7.8 4.5L-7.8 -4.5Z" stroke="#789395" fill="none" stroke-width="2"></path></g><g transform="translate(40 295)"><path d="M0 -18L15.6 -9L15.6 9L0 18L-15.6 9L-15.6 -9Z" stroke="#789395" fill="none" stroke-width="2"></path></g><g transform="translate(841 854)"><path d="M0 -14L12.1 -7L12.1 7L0 14L-12.1 7L-12.1 -7Z" stroke="#789395" fill="none" stroke-width="2"></path></g><g transform="translate(1257 710)"><path d="M0 -23L19.9 -11.5L19.9 11.5L0 23L-19.9 11.5L-19.9 -11.5Z" stroke="#789395" fill="none" stroke-width="2"></path></g><g transform="translate(1520 988)"><path d="M0 -14L12.1 -7L12.1 7L0 14L-12.1 7L-12.1 -7Z" stroke="#789395" fill="none" stroke-width="2"></path></g><g transform="translate(908 667)"><path d="M0 -23L19.9 -11.5L19.9 11.5L0 23L-19.9 11.5L-19.9 -11.5Z" stroke="#789395" fill="none" stroke-width="2"></path></g><g transform="translate(453 764)"><path d="M0 -13L11.3 -6.5L11.3 6.5L0 13L-11.3 6.5L-11.3 -6.5Z" stroke="#789395" fill="none" stroke-width="2"></path></g><g transform="translate(358 55)"><path d="M0 -11L9.5 -5.5L9.5 5.5L0 11L-9.5 5.5L-9.5 -5.5Z" stroke="#789395" fill="none" stroke-width="2"></path></g><g transform="translate(696 27)"><path d="M0 -24L20.8 -12L20.8 12L0 24L-20.8 12L-20.8 -12Z" stroke="#789395" fill="none" stroke-width="2"></path></g><g transform="translate(1525 1061)"><path d="M0 -21L18.2 -10.5L18.2 10.5L0 21L-18.2 10.5L-18.2 -10.5Z" stroke="#789395" fill="none" stroke-width="2"></path></g><g transform="translate(1745 1004)"><path d="M0 -5L4.3 -2.5L4.3 2.5L0 5L-4.3 2.5L-4.3 -2.5Z" stroke="#789395" fill="none" stroke-width="2"></path></g><g transform="translate(541 59)"><path d="M0 -7L6.1 -3.5L6.1 3.5L0 7L-6.1 3.5L-6.1 -3.5Z" stroke="#789395" fill="none" stroke-width="2"></path></g><g transform="translate(948 389)"><path d="M0 -13L11.3 -6.5L11.3 6.5L0 13L-11.3 6.5L-11.3 -6.5Z" stroke="#789395" fill="none" stroke-width="2"></path></g><g transform="translate(1676 1027)"><path d="M0 -23L19.9 -11.5L19.9 11.5L0 23L-19.9 11.5L-19.9 -11.5Z" stroke="#789395" fill="none" stroke-width="2"></path></g><g transform="translate(1689 780)"><path d="M0 -21L18.2 -10.5L18.2 10.5L0 21L-18.2 10.5L-18.2 -10.5Z" stroke="#789395" fill="none" stroke-width="2"></path></g><g transform="translate(1767 418)"><path d="M0 -23L19.9 -11.5L19.9 11.5L0 23L-19.9 11.5L-19.9 -11.5Z" stroke="#789395" fill="none" stroke-width="2"></path></g><g transform="translate(514 567)"><path d="M0 -11L9.5 -5.5L9.5 5.5L0 11L-9.5 5.5L-9.5 -5.5Z" stroke="#789395" fill="none" stroke-width="2"></path></g><g transform="translate(1398 2)"><path d="M0 -6L5.2 -3L5.2 3L0 6L-5.2 3L-5.2 -3Z" stroke="#789395" fill="none" stroke-width="2"></path></g><g transform="translate(1423 440)"><path d="M0 -21L18.2 -10.5L18.2 10.5L0 21L-18.2 10.5L-18.2 -10.5Z" stroke="#789395" fill="none" stroke-width="2"></path></g><g transform="translate(450 271)"><path d="M0 -22L19.1 -11L19.1 11L0 22L-19.1 11L-19.1 -11Z" stroke="#789395" fill="none" stroke-width="2"></path></g><g transform="translate(1866 198)"><path d="M0 -24L20.8 -12L20.8 12L0 24L-20.8 12L-20.8 -12Z" stroke="#789395" fill="none" stroke-width="2"></path></g><g transform="translate(350 877)"><path d="M0 -6L5.2 -3L5.2 3L0 6L-5.2 3L-5.2 -3Z" stroke="#789395" fill="none" stroke-width="2"></path></g><g transform="translate(1700 280)"><path d="M0 -21L18.2 -10.5L18.2 10.5L0 21L-18.2 10.5L-18.2 -10.5Z" stroke="#789395" fill="none" stroke-width="2"></path></g><g transform="translate(1919 264)"><path d="M0 -5L4.3 -2.5L4.3 2.5L0 5L-4.3 2.5L-4.3 -2.5Z" stroke="#789395" fill="none" stroke-width="2"></path></g><g transform="translate(1471 471)"><path d="M0 -17L14.7 -8.5L14.7 8.5L0 17L-14.7 8.5L-14.7 -8.5Z" stroke="#789395" fill="none" stroke-width="2"></path></g><g transform="translate(674 282)"><path d="M0 -15L13 -7.5L13 7.5L0 15L-13 7.5L-13 -7.5Z" stroke="#789395" fill="none" stroke-width="2"></path></g><g transform="translate(1347 857)"><path d="M0 -6L5.2 -3L5.2 3L0 6L-5.2 3L-5.2 -3Z" stroke="#789395" fill="none" stroke-width="2"></path></g><g transform="translate(627 918)"><path d="M0 -4L3.5 -2L3.5 2L0 4L-3.5 2L-3.5 -2Z" stroke="#789395" fill="none" stroke-width="2"></path></g><g transform="translate(184 914)"><path d="M0 -10L8.7 -5L8.7 5L0 10L-8.7 5L-8.7 -5Z" stroke="#789395" fill="none" stroke-width="2"></path></g><g transform="translate(1081 383)"><path d="M0 -8L6.9 -4L6.9 4L0 8L-6.9 4L-6.9 -4Z" stroke="#789395" fill="none" stroke-width="2"></path></g><g transform="translate(764 797)"><path d="M0 -18L15.6 -9L15.6 9L0 18L-15.6 9L-15.6 -9Z" stroke="#789395" fill="none" stroke-width="2"></path></g><g transform="translate(1616 431)"><path d="M0 -7L6.1 -3.5L6.1 3.5L0 7L-6.1 3.5L-6.1 -3.5Z" stroke="#789395" fill="none" stroke-width="2"></path></g><g transform="translate(1692 627)"><path d="M0 -17L14.7 -8.5L14.7 8.5L0 17L-14.7 8.5L-14.7 -8.5Z" stroke="#789395" fill="none" stroke-width="2"></path></g><g transform="translate(651 97)"><path d="M0 -10L8.7 -5L8.7 5L0 10L-8.7 5L-8.7 -5Z" stroke="#789395" fill="none" stroke-width="2"></path></g><g transform="translate(1131 1070)"><path d="M0 -16L13.9 -8L13.9 8L0 16L-13.9 8L-13.9 -8Z" stroke="#789395" fill="none" stroke-width="2"></path></g><g transform="translate(1725 854)"><path d="M0 -18L15.6 -9L15.6 9L0 18L-15.6 9L-15.6 -9Z" stroke="#789395" fill="none" stroke-width="2"></path></g><g transform="translate(1067 441)"><path d="M0 -14L12.1 -7L12.1 7L0 14L-12.1 7L-12.1 -7Z" stroke="#789395" fill="none" stroke-width="2"></path></g><g transform="translate(390 433)"><path d="M0 -14L12.1 -7L12.1 7L0 14L-12.1 7L-12.1 -7Z" stroke="#789395" fill="none" stroke-width="2"></path></g><g transform="translate(426 384)"><path d="M0 -19L16.5 -9.5L16.5 9.5L0 19L-16.5 9.5L-16.5 -9.5Z" stroke="#789395" fill="none" stroke-width="2"></path></g><g transform="translate(116 955)"><path d="M0 -7L6.1 -3.5L6.1 3.5L0 7L-6.1 3.5L-6.1 -3.5Z" stroke="#789395" fill="none" stroke-width="2"></path></g><g transform="translate(343 947)"><path d="M0 -13L11.3 -6.5L11.3 6.5L0 13L-11.3 6.5L-11.3 -6.5Z" stroke="#789395" fill="none" stroke-width="2"></path></g><g transform="translate(1211 792)"><path d="M0 -9L7.8 -4.5L7.8 4.5L0 9L-7.8 4.5L-7.8 -4.5Z" stroke="#789395" fill="none" stroke-width="2"></path></g><g transform="translate(1013 648)"><path d="M0 -4L3.5 -2L3.5 2L0 4L-3.5 2L-3.5 -2Z" stroke="#789395" fill="none" stroke-width="2"></path></g><g transform="translate(1413 280)"><path d="M0 -18L15.6 -9L15.6 9L0 18L-15.6 9L-15.6 -9Z" stroke="#789395" fill="none" stroke-width="2"></path></g><g transform="translate(1389 723)"><path d="M0 -19L16.5 -9.5L16.5 9.5L0 19L-16.5 9.5L-16.5 -9.5Z" stroke="#789395" fill="none" stroke-width="2"></path></g><g transform="translate(1840 695)"><path d="M0 -13L11.3 -6.5L11.3 6.5L0 13L-11.3 6.5L-11.3 -6.5Z" stroke="#789395" fill="none" stroke-width="2"></path></g><g transform="translate(700 668)"><path d="M0 -20L17.3 -10L17.3 10L0 20L-17.3 10L-17.3 -10Z" stroke="#789395" fill="none" stroke-width="2"></path></g><g transform="translate(692 1058)"><path d="M0 -17L14.7 -8.5L14.7 8.5L0 17L-14.7 8.5L-14.7 -8.5Z" stroke="#789395" fill="none" stroke-width="2"></path></g><g transform="translate(1777 756)"><path d="M0 -4L3.5 -2L3.5 2L0 4L-3.5 2L-3.5 -2Z" stroke="#789395" fill="none" stroke-width="2"></path></g><g transform="translate(1238 1070)"><path d="M0 -18L15.6 -9L15.6 9L0 18L-15.6 9L-15.6 -9Z" stroke="#789395" fill="none" stroke-width="2"></path></g><g transform="translate(337 480)"><path d="M0 -10L8.7 -5L8.7 5L0 10L-8.7 5L-8.7 -5Z" stroke="#789395" fill="none" stroke-width="2"></path></g><g transform="translate(1690 896)"><path d="M0 -7L6.1 -3.5L6.1 3.5L0 7L-6.1 3.5L-6.1 -3.5Z" stroke="#789395" fill="none" stroke-width="2"></path></g><g transform="translate(933 335)"><path d="M0 -8L6.9 -4L6.9 4L0 8L-6.9 4L-6.9 -4Z" stroke="#789395" fill="none" stroke-width="2"></path></g><g transform="translate(839 1073)"><path d="M0 -9L7.8 -4.5L7.8 4.5L0 9L-7.8 4.5L-7.8 -4.5Z" stroke="#789395" fill="none" stroke-width="2"></path></g><g transform="translate(329 195)"><path d="M0 -10L8.7 -5L8.7 5L0 10L-8.7 5L-8.7 -5Z" stroke="#789395" fill="none" stroke-width="2"></path></g><g transform="translate(1647 2)"><path d="M0 -12L10.4 -6L10.4 6L0 12L-10.4 6L-10.4 -6Z" stroke="#789395" fill="none" stroke-width="2"></path></g><g transform="translate(956 45)"><path d="M0 -19L16.5 -9.5L16.5 9.5L0 19L-16.5 9.5L-16.5 -9.5Z" stroke="#789395" fill="none" stroke-width="2"></path></g><g transform="translate(69 1058)"><path d="M0 -13L11.3 -6.5L11.3 6.5L0 13L-11.3 6.5L-11.3 -6.5Z" stroke="#789395" fill="none" stroke-width="2"></path></g><g transform="translate(1616 146)"><path d="M0 -11L9.5 -5.5L9.5 5.5L0 11L-9.5 5.5L-9.5 -5.5Z" stroke="#789395" fill="none" stroke-width="2"></path></g><g transform="translate(495 929)"><path d="M0 -18L15.6 -9L15.6 9L0 18L-15.6 9L-15.6 -9Z" stroke="#789395" fill="none" stroke-width="2"></path></g><g transform="translate(1293 875)"><path d="M0 -5L4.3 -2.5L4.3 2.5L0 5L-4.3 2.5L-4.3 -2.5Z" stroke="#789395" fill="none" stroke-width="2"></path></g><g transform="translate(1633 578)"><path d="M0 -11L9.5 -5.5L9.5 5.5L0 11L-9.5 5.5L-9.5 -5.5Z" stroke="#789395" fill="none" stroke-width="2"></path></g><g transform="translate(1339 18)"><path d="M0 -18L15.6 -9L15.6 9L0 18L-15.6 9L-15.6 -9Z" stroke="#789395" fill="none" stroke-width="2"></path></g><g transform="translate(1489 76)"><path d="M0 -9L7.8 -4.5L7.8 4.5L0 9L-7.8 4.5L-7.8 -4.5Z" stroke="#789395" fill="none" stroke-width="2"></path></g><g transform="translate(1325 223)"><path d="M0 -4L3.5 -2L3.5 2L0 4L-3.5 2L-3.5 -2Z" stroke="#789395" fill="none" stroke-width="2"></path></g><g transform="translate(509 11)"><path d="M0 -21L18.2 -10.5L18.2 10.5L0 21L-18.2 10.5L-18.2 -10.5Z" stroke="#789395" fill="none" stroke-width="2"></path></g><g transform="translate(1720 484)"><path d="M0 -10L8.7 -5L8.7 5L0 10L-8.7 5L-8.7 -5Z" stroke="#789395" fill="none" stroke-width="2"></path></g><g transform="translate(928 590)"><path d="M0 -12L10.4 -6L10.4 6L0 12L-10.4 6L-10.4 -6Z" stroke="#789395" fill="none" stroke-width="2"></path></g><g transform="translate(1731 357)"><path d="M0 -15L13 -7.5L13 7.5L0 15L-13 7.5L-13 -7.5Z" stroke="#789395" fill="none" stroke-width="2"></path></g><g transform="translate(13 747)"><path d="M0 -8L6.9 -4L6.9 4L0 8L-6.9 4L-6.9 -4Z" stroke="#789395" fill="none" stroke-width="2"></path></g><g transform="translate(910 6)"><path d="M0 -24L20.8 -12L20.8 12L0 24L-20.8 12L-20.8 -12Z" stroke="#789395" fill="none" stroke-width="2"></path></g><g transform="translate(981 1047)"><path d="M0 -5L4.3 -2.5L4.3 2.5L0 5L-4.3 2.5L-4.3 -2.5Z" stroke="#789395" fill="none" stroke-width="2"></path></g><g transform="translate(590 806)"><path d="M0 -16L13.9 -8L13.9 8L0 16L-13.9 8L-13.9 -8Z" stroke="#789395" fill="none" stroke-width="2"></path></g><g transform="translate(1334 149)"><path d="M0 -7L6.1 -3.5L6.1 3.5L0 7L-6.1 3.5L-6.1 -3.5Z" stroke="#789395" fill="none" stroke-width="2"></path></g><g transform="translate(1760 107)"><path d="M0 -19L16.5 -9.5L16.5 9.5L0 19L-16.5 9.5L-16.5 -9.5Z" stroke="#789395" fill="none" stroke-width="2"></path></g><g transform="translate(696 730)"><path d="M0 -19L16.5 -9.5L16.5 9.5L0 19L-16.5 9.5L-16.5 -9.5Z" stroke="#789395" fill="none" stroke-width="2"></path></g><g transform="translate(736 925)"><path d="M0 -20L17.3 -10L17.3 10L0 20L-17.3 10L-17.3 -10Z" stroke="#789395" fill="none" stroke-width="2"></path></g><g transform="translate(1446 1069)"><path d="M0 -18L15.6 -9L15.6 9L0 18L-15.6 9L-15.6 -9Z" stroke="#789395" fill="none" stroke-width="2"></path></g><g transform="translate(1145 721)"><path d="M0 -3L2.6 -1.5L2.6 1.5L0 3L-2.6 1.5L-2.6 -1.5Z" stroke="#789395" fill="none" stroke-width="2"></path></g><g transform="translate(1085 26)"><path d="M0 -23L19.9 -11.5L19.9 11.5L0 23L-19.9 11.5L-19.9 -11.5Z" stroke="#789395" fill="none" stroke-width="2"></path></g><g transform="translate(1398 921)"><path d="M0 -9L7.8 -4.5L7.8 4.5L0 9L-7.8 4.5L-7.8 -4.5Z" stroke="#789395" fill="none" stroke-width="2"></path></g><g transform="translate(1072 185)"><path d="M0 -19L16.5 -9.5L16.5 9.5L0 19L-16.5 9.5L-16.5 -9.5Z" stroke="#789395" fill="none" stroke-width="2"></path></g><g transform="translate(200 202)"><path d="M0 -11L9.5 -5.5L9.5 5.5L0 11L-9.5 5.5L-9.5 -5.5Z" stroke="#789395" fill="none" stroke-width="2"></path></g><g transform="translate(930 109)"><path d="M0 -19L16.5 -9.5L16.5 9.5L0 19L-16.5 9.5L-16.5 -9.5Z" stroke="#789395" fill="none" stroke-width="2"></path></g><g transform="translate(1250 960)"><path d="M0 -10L8.7 -5L8.7 5L0 10L-8.7 5L-8.7 -5Z" stroke="#789395" fill="none" stroke-width="2"></path></g><g transform="translate(1547 810)"><path d="M0 -10L8.7 -5L8.7 5L0 10L-8.7 5L-8.7 -5Z" stroke="#789395" fill="none" stroke-width="2"></path></g><g transform="translate(1317 403)"><path d="M0 -3L2.6 -1.5L2.6 1.5L0 3L-2.6 1.5L-2.6 -1.5Z" stroke="#789395" fill="none" stroke-width="2"></path></g><g transform="translate(680 932)"><path d="M0 -17L14.7 -8.5L14.7 8.5L0 17L-14.7 8.5L-14.7 -8.5Z" stroke="#789395" fill="none" stroke-width="2"></path></g><g transform="translate(865 479)"><path d="M0 -8L6.9 -4L6.9 4L0 8L-6.9 4L-6.9 -4Z" stroke="#789395" fill="none" stroke-width="2"></path></g><g transform="translate(187 465)"><path d="M0 -16L13.9 -8L13.9 8L0 16L-13.9 8L-13.9 -8Z" stroke="#789395" fill="none" stroke-width="2"></path></g><g transform="translate(739 388)"><path d="M0 -20L17.3 -10L17.3 10L0 20L-17.3 10L-17.3 -10Z" stroke="#789395" fill="none" stroke-width="2"></path></g><g transform="translate(1157 393)"><path d="M0 -3L2.6 -1.5L2.6 1.5L0 3L-2.6 1.5L-2.6 -1.5Z" stroke="#789395" fill="none" stroke-width="2"></path></g><g transform="translate(1553 875)"><path d="M0 -18L15.6 -9L15.6 9L0 18L-15.6 9L-15.6 -9Z" stroke="#789395" fill="none" stroke-width="2"></path></g><g transform="translate(1565 671)"><path d="M0 -7L6.1 -3.5L6.1 3.5L0 7L-6.1 3.5L-6.1 -3.5Z" stroke="#789395" fill="none" stroke-width="2"></path></g><g transform="translate(1910 538)"><path d="M0 -16L13.9 -8L13.9 8L0 16L-13.9 8L-13.9 -8Z" stroke="#789395" fill="none" stroke-width="2"></path></g><g transform="translate(1726 15)"><path d="M0 -15L13 -7.5L13 7.5L0 15L-13 7.5L-13 -7.5Z" stroke="#789395" fill="none" stroke-width="2"></path></g><g transform="translate(212 593)"><path d="M0 -6L5.2 -3L5.2 3L0 6L-5.2 3L-5.2 -3Z" stroke="#789395" fill="none" stroke-width="2"></path></g><g transform="translate(1283 292)"><path d="M0 -15L13 -7.5L13 7.5L0 15L-13 7.5L-13 -7.5Z" stroke="#789395" fill="none" stroke-width="2"></path></g><g transform="translate(1358 607)"><path d="M0 -13L11.3 -6.5L11.3 6.5L0 13L-11.3 6.5L-11.3 -6.5Z" stroke="#789395" fill="none" stroke-width="2"></path></g><g transform="translate(277 1044)"><path d="M0 -12L10.4 -6L10.4 6L0 12L-10.4 6L-10.4 -6Z" stroke="#789395" fill="none" stroke-width="2"></path></g><g transform="translate(597 1061)"><path d="M0 -21L18.2 -10.5L18.2 10.5L0 21L-18.2 10.5L-18.2 -10.5Z" stroke="#789395" fill="none" stroke-width="2"></path></g><g transform="translate(1621 849)"><path d="M0 -3L2.6 -1.5L2.6 1.5L0 3L-2.6 1.5L-2.6 -1.5Z" stroke="#789395" fill="none" stroke-width="2"></path></g><g transform="translate(1904 331)"><path d="M0 -10L8.7 -5L8.7 5L0 10L-8.7 5L-8.7 -5Z" stroke="#789395" fill="none" stroke-width="2"></path></g><g transform="translate(1061 256)"><path d="M0 -6L5.2 -3L5.2 3L0 6L-5.2 3L-5.2 -3Z" stroke="#789395" fill="none" stroke-width="2"></path></g><g transform="translate(872 810)"><path d="M0 -14L12.1 -7L12.1 7L0 14L-12.1 7L-12.1 -7Z" stroke="#789395" fill="none" stroke-width="2"></path></g><g transform="translate(1791 2)"><path d="M0 -16L13.9 -8L13.9 8L0 16L-13.9 8L-13.9 -8Z" stroke="#789395" fill="none" stroke-width="2"></path></g><g transform="translate(83 431)"><path d="M0 -5L4.3 -2.5L4.3 2.5L0 5L-4.3 2.5L-4.3 -2.5Z" stroke="#789395" fill="none" stroke-width="2"></path></g><g transform="translate(796 601)"><path d="M0 -5L4.3 -2.5L4.3 2.5L0 5L-4.3 2.5L-4.3 -2.5Z" stroke="#789395" fill="none" stroke-width="2"></path></g><g transform="translate(1022 383)"><path d="M0 -14L12.1 -7L12.1 7L0 14L-12.1 7L-12.1 -7Z" stroke="#789395" fill="none" stroke-width="2"></path></g><g transform="translate(967 174)"><path d="M0 -13L11.3 -6.5L11.3 6.5L0 13L-11.3 6.5L-11.3 -6.5Z" stroke="#789395" fill="none" stroke-width="2"></path></g><g transform="translate(839 286)"><path d="M0 -14L12.1 -7L12.1 7L0 14L-12.1 7L-12.1 -7Z" stroke="#789395" fill="none" stroke-width="2"></path></g><g transform="translate(326 826)"><path d="M0 -19L16.5 -9.5L16.5 9.5L0 19L-16.5 9.5L-16.5 -9.5Z" stroke="#789395" fill="none" stroke-width="2"></path></g><g transform="translate(562 937)"><path d="M0 -19L16.5 -9.5L16.5 9.5L0 19L-16.5 9.5L-16.5 -9.5Z" stroke="#789395" fill="none" stroke-width="2"></path></g><g transform="translate(1153 837)"><path d="M0 -17L14.7 -8.5L14.7 8.5L0 17L-14.7 8.5L-14.7 -8.5Z" stroke="#789395" fill="none" stroke-width="2"></path></g><g transform="translate(1118 613)"><path d="M0 -9L7.8 -4.5L7.8 4.5L0 9L-7.8 4.5L-7.8 -4.5Z" stroke="#789395" fill="none" stroke-width="2"></path></g><g transform="translate(393 1076)"><path d="M0 -19L16.5 -9.5L16.5 9.5L0 19L-16.5 9.5L-16.5 -9.5Z" stroke="#789395" fill="none" stroke-width="2"></path></g><g transform="translate(1132 516)"><path d="M0 -21L18.2 -10.5L18.2 10.5L0 21L-18.2 10.5L-18.2 -10.5Z" stroke="#789395" fill="none" stroke-width="2"></path></g><g transform="translate(709 501)"><path d="M0 -12L10.4 -6L10.4 6L0 12L-10.4 6L-10.4 -6Z" stroke="#789395" fill="none" stroke-width="2"></path></g><g transform="translate(1555 314)"><path d="M0 -11L9.5 -5.5L9.5 5.5L0 11L-9.5 5.5L-9.5 -5.5Z" stroke="#789395" fill="none" stroke-width="2"></path></g><g transform="translate(486 1070)"><path d="M0 -24L20.8 -12L20.8 12L0 24L-20.8 12L-20.8 -12Z" stroke="#789395" fill="none" stroke-width="2"></path></g><g transform="translate(1378 324)"><path d="M0 -14L12.1 -7L12.1 7L0 14L-12.1 7L-12.1 -7Z" stroke="#789395" fill="none" stroke-width="2"></path></g><g transform="translate(88 830)"><path d="M0 -20L17.3 -10L17.3 10L0 20L-17.3 10L-17.3 -10Z" stroke="#789395" fill="none" stroke-width="2"></path></g><g transform="translate(45 633)"><path d="M0 -8L6.9 -4L6.9 4L0 8L-6.9 4L-6.9 -4Z" stroke="#789395" fill="none" stroke-width="2"></path></g><g transform="translate(339 1075)"><path d="M0 -8L6.9 -4L6.9 4L0 8L-6.9 4L-6.9 -4Z" stroke="#789395" fill="none" stroke-width="2"></path></g><g transform="translate(878 233)"><path d="M0 -18L15.6 -9L15.6 9L0 18L-15.6 9L-15.6 -9Z" stroke="#789395" fill="none" stroke-width="2"></path></g><g transform="translate(1548 934)"><path d="M0 -7L6.1 -3.5L6.1 3.5L0 7L-6.1 3.5L-6.1 -3.5Z" stroke="#789395" fill="none" stroke-width="2"></path></g><g transform="translate(450 956)"><path d="M0 -24L20.8 -12L20.8 12L0 24L-20.8 12L-20.8 -12Z" stroke="#789395" fill="none" stroke-width="2"></path></g><g transform="translate(531 193)"><path d="M0 -23L19.9 -11.5L19.9 11.5L0 23L-19.9 11.5L-19.9 -11.5Z" stroke="#789395" fill="none" stroke-width="2"></path></g><g transform="translate(723 590)"><path d="M0 -7L6.1 -3.5L6.1 3.5L0 7L-6.1 3.5L-6.1 -3.5Z" stroke="#789395" fill="none" stroke-width="2"></path></g><g transform="translate(845 36)"><path d="M0 -19L16.5 -9.5L16.5 9.5L0 19L-16.5 9.5L-16.5 -9.5Z" stroke="#789395" fill="none" stroke-width="2"></path></g><g transform="translate(385 161)"><path d="M0 -23L19.9 -11.5L19.9 11.5L0 23L-19.9 11.5L-19.9 -11.5Z" stroke="#789395" fill="none" stroke-width="2"></path></g><g transform="translate(430 23)"><path d="M0 -10L8.7 -5L8.7 5L0 10L-8.7 5L-8.7 -5Z" stroke="#789395" fill="none" stroke-width="2"></path></g><g transform="translate(568 411)"><path d="M0 -4L3.5 -2L3.5 2L0 4L-3.5 2L-3.5 -2Z" stroke="#789395" fill="none" stroke-width="2"></path></g><g transform="translate(370 564)"><path d="M0 -21L18.2 -10.5L18.2 10.5L0 21L-18.2 10.5L-18.2 -10.5Z" stroke="#789395" fill="none" stroke-width="2"></path></g><g transform="translate(1486 1028)"><path d="M0 -15L13 -7.5L13 7.5L0 15L-13 7.5L-13 -7.5Z" stroke="#789395" fill="none" stroke-width="2"></path></g><g transform="translate(1041 707)"><path d="M0 -24L20.8 -12L20.8 12L0 24L-20.8 12L-20.8 -12Z" stroke="#789395" fill="none" stroke-width="2"></path></g><g transform="translate(111 385)"><path d="M0 -4L3.5 -2L3.5 2L0 4L-3.5 2L-3.5 -2Z" stroke="#789395" fill="none" stroke-width="2"></path></g><g transform="translate(147 13)"><path d="M0 -19L16.5 -9.5L16.5 9.5L0 19L-16.5 9.5L-16.5 -9.5Z" stroke="#789395" fill="none" stroke-width="2"></path></g><g transform="translate(683 373)"><path d="M0 -15L13 -7.5L13 7.5L0 15L-13 7.5L-13 -7.5Z" stroke="#789395" fill="none" stroke-width="2"></path></g><g transform="translate(906 770)"><path d="M0 -12L10.4 -6L10.4 6L0 12L-10.4 6L-10.4 -6Z" stroke="#789395" fill="none" stroke-width="2"></path></g><g transform="translate(1357 99)"><path d="M0 -7L6.1 -3.5L6.1 3.5L0 7L-6.1 3.5L-6.1 -3.5Z" stroke="#789395" fill="none" stroke-width="2"></path></g><g transform="translate(1374 464)"><path d="M0 -11L9.5 -5.5L9.5 5.5L0 11L-9.5 5.5L-9.5 -5.5Z" stroke="#789395" fill="none" stroke-width="2"></path></g><g transform="translate(572 560)"><path d="M0 -4L3.5 -2L3.5 2L0 4L-3.5 2L-3.5 -2Z" stroke="#789395" fill="none" stroke-width="2"></path></g><g transform="translate(483 107)"><path d="M0 -9L7.8 -4.5L7.8 4.5L0 9L-7.8 4.5L-7.8 -4.5Z" stroke="#789395" fill="none" stroke-width="2"></path></g><g transform="translate(1489 749)"><path d="M0 -14L12.1 -7L12.1 7L0 14L-12.1 7L-12.1 -7Z" stroke="#789395" fill="none" stroke-width="2"></path></g><g transform="translate(1652 92)"><path d="M0 -15L13 -7.5L13 7.5L0 15L-13 7.5L-13 -7.5Z" stroke="#789395" fill="none" stroke-width="2"></path></g><g transform="translate(1282 132)"><path d="M0 -9L7.8 -4.5L7.8 4.5L0 9L-7.8 4.5L-7.8 -4.5Z" stroke="#789395" fill="none" stroke-width="2"></path></g><g transform="translate(143 504)"><path d="M0 -18L15.6 -9L15.6 9L0 18L-15.6 9L-15.6 -9Z" stroke="#789395" fill="none" stroke-width="2"></path></g><g transform="translate(1559 560)"><path d="M0 -7L6.1 -3.5L6.1 3.5L0 7L-6.1 3.5L-6.1 -3.5Z" stroke="#789395" fill="none" stroke-width="2"></path></g><g transform="translate(1455 196)"><path d="M0 -14L12.1 -7L12.1 7L0 14L-12.1 7L-12.1 -7Z" stroke="#789395" fill="none" stroke-width="2"></path></g><g transform="translate(1433 771)"><path d="M0 -24L20.8 -12L20.8 12L0 24L-20.8 12L-20.8 -12Z" stroke="#789395" fill="none" stroke-width="2"></path></g><g transform="translate(830 951)"><path d="M0 -6L5.2 -3L5.2 3L0 6L-5.2 3L-5.2 -3Z" stroke="#789395" fill="none" stroke-width="2"></path></g><g transform="translate(1618 723)"><path d="M0 -4L3.5 -2L3.5 2L0 4L-3.5 2L-3.5 -2Z" stroke="#789395" fill="none" stroke-width="2"></path></g><g transform="translate(1230 93)"><path d="M0 -22L19.1 -11L19.1 11L0 22L-19.1 11L-19.1 -11Z" stroke="#789395" fill="none" stroke-width="2"></path></g><g transform="translate(665 627)"><path d="M0 -9L7.8 -4.5L7.8 4.5L0 9L-7.8 4.5L-7.8 -4.5Z" stroke="#789395" fill="none" stroke-width="2"></path></g><g transform="translate(1197 191)"><path d="M0 -16L13.9 -8L13.9 8L0 16L-13.9 8L-13.9 -8Z" stroke="#789395" fill="none" stroke-width="2"></path></g><g transform="translate(430 636)"><path d="M0 -14L12.1 -7L12.1 7L0 14L-12.1 7L-12.1 -7Z" stroke="#789395" fill="none" stroke-width="2"></path></g><g transform="translate(1912 434)"><path d="M0 -23L19.9 -11.5L19.9 11.5L0 23L-19.9 11.5L-19.9 -11.5Z" stroke="#789395" fill="none" stroke-width="2"></path></g><g transform="translate(1029 215)"><path d="M0 -18L15.6 -9L15.6 9L0 18L-15.6 9L-15.6 -9Z" stroke="#789395" fill="none" stroke-width="2"></path></g><g transform="translate(587 876)"><path d="M0 -20L17.3 -10L17.3 10L0 20L-17.3 10L-17.3 -10Z" stroke="#789395" fill="none" stroke-width="2"></path></g><g transform="translate(288 84)"><path d="M0 -6L5.2 -3L5.2 3L0 6L-5.2 3L-5.2 -3Z" stroke="#789395" fill="none" stroke-width="2"></path></g><g transform="translate(1819 586)"><path d="M0 -11L9.5 -5.5L9.5 5.5L0 11L-9.5 5.5L-9.5 -5.5Z" stroke="#789395" fill="none" stroke-width="2"></path></g><g transform="translate(1018 894)"><path d="M0 -11L9.5 -5.5L9.5 5.5L0 11L-9.5 5.5L-9.5 -5.5Z" stroke="#789395" fill="none" stroke-width="2"></path></g><g transform="translate(1224 536)"><path d="M0 -19L16.5 -9.5L16.5 9.5L0 19L-16.5 9.5L-16.5 -9.5Z" stroke="#789395" fill="none" stroke-width="2"></path></g><g transform="translate(957 645)"><path d="M0 -19L16.5 -9.5L16.5 9.5L0 19L-16.5 9.5L-16.5 -9.5Z" stroke="#789395" fill="none" stroke-width="2"></path></g><g transform="translate(1228 1)"><path d="M0 -4L3.5 -2L3.5 2L0 4L-3.5 2L-3.5 -2Z" stroke="#789395" fill="none" stroke-width="2"></path></g><g transform="translate(17 1073)"><path d="M0 -17L14.7 -8.5L14.7 8.5L0 17L-14.7 8.5L-14.7 -8.5Z" stroke="#789395" fill="none" stroke-width="2"></path></g><g transform="translate(7 166)"><path d="M0 -3L2.6 -1.5L2.6 1.5L0 3L-2.6 1.5L-2.6 -1.5Z" stroke="#789395" fill="none" stroke-width="2"></path></g><g transform="translate(1744 799)"><path d="M0 -20L17.3 -10L17.3 10L0 20L-17.3 10L-17.3 -10Z" stroke="#789395" fill="none" stroke-width="2"></path></g><g transform="translate(1447 883)"><path d="M0 -24L20.8 -12L20.8 12L0 24L-20.8 12L-20.8 -12Z" stroke="#789395" fill="none" stroke-width="2"></path></g><g transform="translate(1 501)"><path d="M0 -22L19.1 -11L19.1 11L0 22L-19.1 11L-19.1 -11Z" stroke="#789395" fill="none" stroke-width="2"></path></g><g transform="translate(1238 1014)"><path d="M0 -22L19.1 -11L19.1 11L0 22L-19.1 11L-19.1 -11Z" stroke="#789395" fill="none" stroke-width="2"></path></g><g transform="translate(1247 361)"><path d="M0 -22L19.1 -11L19.1 11L0 22L-19.1 11L-19.1 -11Z" stroke="#789395" fill="none" stroke-width="2"></path></g><g transform="translate(1075 966)"><path d="M0 -6L5.2 -3L5.2 3L0 6L-5.2 3L-5.2 -3Z" stroke="#789395" fill="none" stroke-width="2"></path></g><g transform="translate(1135 159)"><path d="M0 -14L12.1 -7L12.1 7L0 14L-12.1 7L-12.1 -7Z" stroke="#789395" fill="none" stroke-width="2"></path></g><g transform="translate(903 514)"><path d="M0 -19L16.5 -9.5L16.5 9.5L0 19L-16.5 9.5L-16.5 -9.5Z" stroke="#789395" fill="none" stroke-width="2"></path></g><g transform="translate(1287 516)"><path d="M0 -6L5.2 -3L5.2 3L0 6L-5.2 3L-5.2 -3Z" stroke="#789395" fill="none" stroke-width="2"></path></g><g transform="translate(1915 961)"><path d="M0 -19L16.5 -9.5L16.5 9.5L0 19L-16.5 9.5L-16.5 -9.5Z" stroke="#789395" fill="none" stroke-width="2"></path></g><g transform="translate(642 42)"><path d="M0 -18L15.6 -9L15.6 9L0 18L-15.6 9L-15.6 -9Z" stroke="#789395" fill="none" stroke-width="2"></path></g><g transform="translate(318 756)"><path d="M0 -15L13 -7.5L13 7.5L0 15L-13 7.5L-13 -7.5Z" stroke="#789395" fill="none" stroke-width="2"></path></g><g transform="translate(1598 967)"><path d="M0 -18L15.6 -9L15.6 9L0 18L-15.6 9L-15.6 -9Z" stroke="#789395" fill="none" stroke-width="2"></path></g><g transform="translate(1091 732)"><path d="M0 -18L15.6 -9L15.6 9L0 18L-15.6 9L-15.6 -9Z" stroke="#789395" fill="none" stroke-width="2"></path></g><g transform="translate(300 347)"><path d="M0 -23L19.9 -11.5L19.9 11.5L0 23L-19.9 11.5L-19.9 -11.5Z" stroke="#789395" fill="none" stroke-width="2"></path></g><g transform="translate(1210 846)"><path d="M0 -14L12.1 -7L12.1 7L0 14L-12.1 7L-12.1 -7Z" stroke="#789395" fill="none" stroke-width="2"></path></g><g transform="translate(45 66)"><path d="M0 -3L2.6 -1.5L2.6 1.5L0 3L-2.6 1.5L-2.6 -1.5Z" stroke="#789395" fill="none" stroke-width="2"></path></g><g transform="translate(1032 1004)"><path d="M0 -19L16.5 -9.5L16.5 9.5L0 19L-16.5 9.5L-16.5 -9.5Z" stroke="#789395" fill="none" stroke-width="2"></path></g><g transform="translate(1331 748)"><path d="M0 -13L11.3 -6.5L11.3 6.5L0 13L-11.3 6.5L-11.3 -6.5Z" stroke="#789395" fill="none" stroke-width="2"></path></g><g transform="translate(525 694)"><path d="M0 -15L13 -7.5L13 7.5L0 15L-13 7.5L-13 -7.5Z" stroke="#789395" fill="none" stroke-width="2"></path></g><g transform="translate(320 602)"><path d="M0 -13L11.3 -6.5L11.3 6.5L0 13L-11.3 6.5L-11.3 -6.5Z" stroke="#789395" fill="none" stroke-width="2"></path></g><g transform="translate(747 1076)"><path d="M0 -24L20.8 -12L20.8 12L0 24L-20.8 12L-20.8 -12Z" stroke="#789395" fill="none" stroke-width="2"></path></g><g transform="translate(1291 1074)"><path d="M0 -3L2.6 -1.5L2.6 1.5L0 3L-2.6 1.5L-2.6 -1.5Z" stroke="#789395" fill="none" stroke-width="2"></path></g><g transform="translate(346 248)"><path d="M0 -24L20.8 -12L20.8 12L0 24L-20.8 12L-20.8 -12Z" stroke="#789395" fill="none" stroke-width="2"></path></g></g></svg>